<svg xmlns="http://www.w3.org/2000/svg" width="108" height="161" viewBox="0 0 108 161" fill="none">
<path d="M139.443 106.907C131.909 109.813 120.738 112.622 107.879 111.111C113.474 103.085 118.161 94.3483 121.834 85.0657C128.22 68.9335 131.318 51.9519 131.048 34.582C130.888 24.1407 129.499 13.7782 126.923 3.77973L126.08 0.497467H74.0259L76.6194 6.74044C80.4121 15.8713 82.4146 25.5239 82.5695 35.4375C82.7301 45.6786 80.894 55.7195 77.107 65.2751C73.3373 74.7942 67.9667 83.1304 61.11 90.0953L60.7829 90.4108C38.8414 85.4419 15.6606 93.7658 1.1783 112.009L0.191406 113.253V157.197L2.99715 158.246C3.52503 158.44 9.88249 160.734 20.5721 160.734C31.2617 160.734 47.0294 158.325 65.4421 148.782C83.0056 158.022 100.615 160.588 114.753 160.588C127.434 160.588 137.326 158.525 141.87 157.366L145.089 156.541V104.735L139.437 106.919L139.443 106.907ZM48.0794 97.8853C49.3245 97.8853 50.5696 97.9339 51.8147 98.0249C49.8696 99.4143 47.8499 100.706 45.7728 101.896C36.1103 107.417 25.1624 110.48 14.1917 110.82C23.6935 102.46 35.766 97.8853 48.0851 97.8853H48.0794ZM8.60877 150.59V119.666C8.76943 119.672 8.93001 119.672 9.09641 119.678C10.1063 119.721 11.1161 119.745 12.126 119.745C25.1681 119.745 38.2849 116.287 49.772 109.722C55.2 106.622 60.2493 102.885 64.7879 98.6134C64.7879 98.6134 66.297 97.2908 69.229 94.0692C70.0495 93.1652 70.5029 92.6374 70.7324 92.328C76.6251 85.4297 81.3818 77.5244 84.8761 68.703C89.1106 58.0068 91.1649 46.7646 90.987 35.2797C90.8493 26.4158 89.3918 17.7339 86.6491 9.39173H119.602C121.484 17.655 122.505 26.161 122.637 34.7276C122.889 50.8598 120.009 66.6402 114.076 81.6257C110.077 91.7334 104.786 101.149 98.3658 109.613C98.0387 110.044 97.7002 110.474 97.3616 110.899L96.9543 111.415C95.7206 112.974 94.6821 114.236 93.678 115.395C92.9837 116.196 92.2723 116.99 91.5608 117.767C90.1952 119.047 75.9996 132.291 64.633 139.226C64.2944 139.414 63.9559 139.596 63.6174 139.778L63.5486 139.815C36.3455 154.497 15.8155 152.137 8.60877 150.577V150.59ZM136.677 149.449C125.661 151.785 100.351 154.988 74.3358 143.309C74.439 143.236 74.5423 143.164 74.6399 143.091C74.7661 143 74.898 142.909 75.0243 142.818C75.2882 142.63 75.5578 142.435 75.8218 142.241C75.9423 142.156 76.0628 142.065 76.1833 141.98C76.4702 141.768 76.7571 141.562 77.044 141.35C77.1415 141.277 77.2391 141.204 77.3366 141.137C78.1112 140.561 78.8801 139.978 79.6375 139.39C79.7064 139.335 79.7694 139.287 79.8383 139.232C80.1481 138.989 80.458 138.753 80.7621 138.51C80.8654 138.431 80.9687 138.352 81.0662 138.267C81.3359 138.055 81.6055 137.843 81.8752 137.624C81.9842 137.539 82.0933 137.448 82.2023 137.363C82.4663 137.151 82.7359 136.939 82.9941 136.726C83.0916 136.648 83.1949 136.569 83.2924 136.484C83.5851 136.247 83.872 136.017 84.1531 135.78C84.222 135.725 84.2851 135.671 84.354 135.616C85.077 135.028 85.7769 134.439 86.4655 133.869C86.4999 133.839 86.5343 133.808 86.5687 133.778C86.8671 133.529 87.1655 133.274 87.4581 133.032C87.527 132.971 87.5959 132.916 87.6647 132.856C87.923 132.637 88.1811 132.413 88.4393 132.2C88.5081 132.14 88.577 132.085 88.6459 132.024C88.8984 131.806 89.1509 131.588 89.3976 131.375C89.455 131.327 89.5122 131.272 89.5754 131.224C89.845 130.987 90.1091 130.763 90.373 130.532C90.4017 130.508 90.4303 130.483 90.459 130.459C91.3426 129.689 92.1632 128.961 92.9091 128.299C92.9378 128.275 92.9665 128.245 92.9952 128.22C93.2133 128.026 93.4197 127.838 93.6206 127.656C93.655 127.626 93.6838 127.596 93.7182 127.565C93.9133 127.389 94.1026 127.219 94.2862 127.05C94.3149 127.025 94.3378 127.001 94.3665 126.977C94.5673 126.795 94.7624 126.619 94.946 126.449C95.5256 125.921 96.0075 125.478 96.3805 125.126C96.3862 125.126 96.392 125.114 96.3977 125.108C96.5182 124.999 96.6215 124.896 96.7191 124.805C96.7191 124.805 96.7248 124.805 96.7306 124.799C97.0232 124.526 97.2183 124.344 97.2756 124.289L97.4879 124.077C98.2912 123.203 99.0945 122.299 99.8749 121.401C100.168 121.067 100.46 120.722 100.758 120.364C100.856 120.248 100.953 120.127 101.051 120.012C101.252 119.769 101.453 119.526 101.665 119.278C101.699 119.235 101.734 119.193 101.774 119.15C115.367 121.808 127.543 119.951 136.677 117.197V149.443V149.449Z" fill="#3e3e3e09"/>
</svg>