<svg xmlns="http://www.w3.org/2000/svg" width="146" height="161" viewBox="0 0 150 170" fill="none"  opacity="0.02">
<path d="M139.414 106.907C131.88 109.813 120.708 112.622 107.85 111.111C113.444 103.085 118.132 94.3483 121.804 85.0657C128.191 68.9335 131.289 51.9519 131.019 34.582C130.859 24.1407 129.47 13.7782 126.894 3.77973L126.05 0.497467H73.9966L76.5901 6.74044C80.3829 15.8713 82.3854 25.5239 82.5403 35.4375C82.7009 45.6786 80.8648 55.7195 77.0779 65.2751C73.3081 74.7942 67.9375 83.1304 61.0808 90.0953L60.7537 90.4108C38.8122 85.4419 15.6313 93.7658 1.14902 112.009L0.162109 113.253V157.197L2.96792 158.246C3.4958 158.44 9.85332 160.734 20.5429 160.734C31.2325 160.734 47.0001 158.325 65.4128 148.782C82.9764 158.022 100.586 160.588 114.724 160.588C127.404 160.588 137.296 158.525 141.841 157.366L145.06 156.541V104.735L139.408 106.919L139.414 106.907ZM48.0501 97.8853C49.2952 97.8853 50.5403 97.9339 51.7855 98.0249C49.8403 99.4143 47.8206 100.706 45.7435 101.896C36.081 107.417 25.1332 110.48 14.1624 110.82C23.6643 102.46 35.7367 97.8853 48.0559 97.8853H48.0501ZM8.57953 150.59V119.666C8.74019 119.672 8.90083 119.672 9.06723 119.678C10.0771 119.721 11.0869 119.745 12.0968 119.745C25.1389 119.745 38.2556 116.287 49.7428 109.722C55.1708 106.622 60.2201 102.885 64.7587 98.6134C64.7587 98.6134 66.2678 97.2908 69.1998 94.0692C70.0203 93.1652 70.4736 92.6374 70.7031 92.328C76.5959 85.4297 81.3525 77.5244 84.8469 68.703C89.0814 58.0068 91.1356 46.7646 90.9577 35.2797C90.82 26.4158 89.3626 17.7339 86.6199 9.39173H119.572C121.454 17.655 122.476 26.161 122.608 34.7276C122.86 50.8598 119.98 66.6402 114.047 81.6257C110.047 91.7334 104.757 101.149 98.3366 109.613C98.0095 110.044 97.671 110.474 97.3324 110.899L96.925 111.415C95.6914 112.974 94.6529 114.236 93.6487 115.395C92.9545 116.196 92.243 116.99 91.5315 117.767C90.1659 119.047 75.9705 132.291 64.6038 139.226C64.2653 139.414 63.9267 139.596 63.5882 139.778L63.5193 139.815C36.3162 154.497 15.7863 152.137 8.57953 150.577V150.59ZM136.648 149.449C125.631 151.785 100.322 154.988 74.3065 143.309C74.4098 143.236 74.513 143.164 74.6106 143.091C74.7368 143 74.8688 142.909 74.995 142.818C75.259 142.63 75.5286 142.435 75.7926 142.241C75.9131 142.156 76.0336 142.065 76.1541 141.98C76.441 141.768 76.7278 141.562 77.0147 141.35C77.1123 141.277 77.2098 141.204 77.3074 141.137C78.082 140.561 78.8508 139.978 79.6082 139.39C79.6771 139.335 79.7402 139.287 79.8091 139.232C80.1189 138.989 80.4288 138.753 80.7329 138.51C80.8361 138.431 80.9394 138.352 81.037 138.267C81.3066 138.055 81.5763 137.843 81.846 137.624C81.955 137.539 82.064 137.448 82.173 137.363C82.437 137.151 82.7067 136.939 82.9649 136.726C83.0624 136.648 83.1657 136.569 83.2632 136.484C83.5559 136.247 83.8428 136.017 84.1239 135.78C84.1928 135.725 84.2559 135.671 84.3247 135.616C85.0477 135.028 85.7477 134.439 86.4363 133.869C86.4707 133.839 86.5051 133.808 86.5396 133.778C86.8379 133.529 87.1363 133.274 87.4289 133.032C87.4978 132.971 87.5666 132.916 87.6355 132.856C87.8937 132.637 88.1519 132.413 88.4101 132.2C88.4789 132.14 88.5478 132.085 88.6167 132.024C88.8691 131.806 89.1216 131.588 89.3683 131.375C89.4257 131.327 89.4831 131.272 89.5462 131.224C89.8159 130.987 90.0798 130.763 90.3438 130.532C90.3724 130.508 90.4011 130.483 90.4298 130.459C91.3134 129.689 92.1339 128.961 92.8799 128.299C92.9086 128.275 92.9372 128.245 92.9659 128.22C93.184 128.026 93.3905 127.838 93.5913 127.656C93.6258 127.626 93.6545 127.596 93.6889 127.565C93.884 127.389 94.0733 127.219 94.2569 127.05C94.2856 127.025 94.3086 127.001 94.3373 126.977C94.5381 126.795 94.7332 126.619 94.9168 126.449C95.4963 125.921 95.9783 125.478 96.3513 125.126C96.357 125.126 96.3627 125.114 96.3685 125.108C96.489 124.999 96.5923 124.896 96.6898 124.805C96.6898 124.805 96.6955 124.805 96.7013 124.799C96.9939 124.526 97.189 124.344 97.2464 124.289L97.4587 124.077C98.262 123.203 99.0653 122.299 99.8456 121.401C100.138 121.067 100.431 120.722 100.729 120.364C100.827 120.248 100.924 120.127 101.022 120.012C101.223 119.769 101.424 119.526 101.636 119.278C101.67 119.235 101.705 119.193 101.745 119.15C115.338 121.808 127.513 119.951 136.648 117.197V149.443V149.449Z" fill="#3E3E3E"/>
</svg>