<svg width="1204" height="487" viewBox="0 0 1204 487" fill="none" xmlns="http://www.w3.org/2000/svg" opacity="0.03">
<mask id="mask0_243_1573" style="mask-type:luminance" maskUnits="userSpaceOnUse" x="-88" y="-193" width="1363" height="825">
<path d="M1274.04 -193H-87.875V632H1274.04V-193Z" fill="white"/>
</mask>
<g mask="url(#mask0_243_1573)">
<path d="M51.3766 22.616C43.8428 25.5221 32.6713 28.3311 19.8128 26.8204C25.4072 18.7937 30.095 10.0572 33.7672 0.774666C40.1534 -15.3575 43.2519 -32.3392 42.9822 -49.709C42.8215 -60.1504 41.433 -70.5129 38.8567 -80.5113L38.0132 -83.7936H-14.0405L-11.447 -77.5506C-7.65426 -68.4197 -5.65175 -58.7671 -5.49683 -48.8536C-5.33617 -38.6125 -7.17228 -28.5715 -10.9593 -19.016C-14.729 -9.49682 -20.0996 -1.16073 -26.9564 5.80421L-27.2834 6.11971C-49.2249 1.15082 -72.4058 9.47476 -86.8881 27.7183L-87.875 28.9621V72.9055L-85.0692 73.9551C-84.5413 74.1492 -78.1838 76.4426 -67.4942 76.4426C-56.8046 76.4426 -41.037 74.034 -22.6243 64.4905C-5.06075 73.7306 12.5487 76.297 26.6867 76.297C39.3673 76.297 49.2594 74.2342 53.8037 73.0754L57.0227 72.2503V20.4439L51.3709 22.6281L51.3766 22.616ZM-39.987 13.5943C-38.7419 13.5943 -37.4968 13.6428 -36.2517 13.7338C-38.1968 15.1232 -40.2165 16.4155 -42.2936 17.6046C-51.9561 23.1256 -62.9039 26.1894 -73.8747 26.5292C-64.3728 18.1688 -52.3004 13.5943 -39.9813 13.5943H-39.987ZM-79.4576 66.2985V35.3749C-79.2969 35.381 -79.1363 35.381 -78.9699 35.387C-77.96 35.4295 -76.9502 35.4538 -75.9403 35.4538C-62.8982 35.4538 -49.7815 31.9956 -38.2943 25.431C-32.8663 22.3308 -27.817 18.5935 -23.2784 14.3223C-23.2784 14.3223 -21.7693 12.9997 -18.8373 9.77813C-18.0168 8.87414 -17.5635 8.3463 -17.334 8.03687C-11.4412 1.13867 -6.68457 -6.76664 -3.19022 -15.5881C1.0443 -26.2843 3.09846 -37.5265 2.92059 -49.0113C2.78288 -57.8753 1.32545 -66.5572 -1.41723 -74.8993H31.5352C33.4172 -66.636 34.4385 -58.1301 34.5705 -49.5634C34.823 -33.4312 31.9426 -17.6509 26.0096 -2.66534C22.0104 7.44231 16.7201 16.8583 10.2994 25.3218C9.97239 25.7526 9.63386 26.1833 9.29533 26.608L8.88793 27.1237C7.6543 28.683 6.61575 29.9449 5.61163 31.1037C4.91734 31.9046 4.20586 32.6993 3.49437 33.4759C2.12876 34.7561 -12.0667 48.0004 -23.4333 54.935C-23.7719 55.1231 -24.1104 55.3051 -24.4489 55.4871L-24.5178 55.5235C-51.7209 70.2057 -72.2509 67.8456 -79.4576 66.2864V66.2985ZM48.611 65.1579C37.5943 67.4937 12.2847 70.6971 -13.7306 59.0181C-13.6273 58.9453 -13.5241 58.8725 -13.4265 58.7997C-13.3003 58.7087 -13.1683 58.6176 -13.0421 58.5266C-12.7782 58.3386 -12.5085 58.1444 -12.2445 57.9503C-12.124 57.8654 -12.0035 57.7744 -11.883 57.6894C-11.5962 57.4771 -11.3093 57.2708 -11.0224 57.0584C-10.9248 56.9856 -10.8273 56.9128 -10.7297 56.8461C-9.95514 56.2697 -9.18626 55.6873 -8.42886 55.0988C-8.36001 55.0442 -8.2969 54.9957 -8.22804 54.9411C-7.91821 54.6984 -7.60836 54.4618 -7.30425 54.2191C-7.20097 54.1402 -7.09769 54.0613 -7.00014 53.9764C-6.73047 53.764 -6.46079 53.5517 -6.19111 53.3333C-6.08209 53.2483 -5.97308 53.1573 -5.86406 53.0724C-5.60012 52.86 -5.33044 52.6477 -5.07224 52.4354C-4.97469 52.3565 -4.87141 52.2776 -4.77386 52.1927C-4.48123 51.9561 -4.19434 51.7255 -3.91319 51.4889C-3.84433 51.4343 -3.78122 51.3797 -3.71236 51.3251C-2.9894 50.7366 -2.28938 50.1481 -1.60084 49.5778C-1.56641 49.5475 -1.53199 49.5171 -1.49756 49.4868C-1.1992 49.238 -0.900826 48.9832 -0.608192 48.7406C-0.539337 48.6799 -0.47049 48.6253 -0.401634 48.5646C-0.143433 48.3462 0.114777 48.1217 0.372978 47.9093C0.441833 47.8487 0.510689 47.7941 0.579544 47.7334C0.832008 47.515 1.08447 47.2966 1.3312 47.0842C1.38858 47.0357 1.44595 46.9811 1.50907 46.9326C1.77875 46.696 2.04269 46.4715 2.30663 46.2409C2.33532 46.2167 2.36401 46.1924 2.3927 46.1681C3.27633 45.3976 4.09683 44.6696 4.84275 44.0083C4.87144 43.984 4.90014 43.9537 4.92883 43.9294C5.14687 43.7352 5.35342 43.5472 5.55424 43.3652C5.58868 43.3348 5.61736 43.3045 5.65179 43.2742C5.84688 43.0982 6.03623 42.9283 6.21984 42.7585C6.24853 42.7342 6.27148 42.7099 6.30017 42.6857C6.50099 42.5036 6.69608 42.3277 6.87969 42.1578C7.45921 41.63 7.94118 41.1871 8.31415 40.8352C8.31989 40.8352 8.32562 40.8231 8.33136 40.817C8.45186 40.7078 8.55514 40.6047 8.65268 40.5137C8.65268 40.5137 8.65842 40.5137 8.66415 40.5076C8.95679 40.2346 9.15187 40.0526 9.20925 39.998L9.42155 39.7856C10.2249 38.912 11.0281 38.008 11.8085 37.1101C12.1011 36.7764 12.3938 36.4306 12.6921 36.0726C12.7897 35.9573 12.8872 35.836 12.9847 35.7207C13.1856 35.478 13.3864 35.2354 13.5987 34.9866C13.6331 34.9441 13.6675 34.9017 13.7077 34.8592C27.3007 37.5166 39.4764 35.66 48.611 32.9056V65.1518V65.1579Z" fill="#3E3E3E"/>
<path d="M385.055 22.616C377.521 25.5221 366.349 28.3311 353.491 26.8204C359.085 18.7937 363.773 10.0572 367.445 0.774666C373.832 -15.3575 376.93 -32.3392 376.66 -49.709C376.5 -60.1504 375.111 -70.5129 372.535 -80.5113L371.691 -83.7936H319.638L322.231 -77.5506C326.024 -68.4197 328.026 -58.7671 328.181 -48.8536C328.342 -38.6125 326.506 -28.5715 322.719 -19.016C318.949 -9.49682 313.579 -1.16073 306.722 5.80421L306.395 6.11971C284.453 1.15082 261.272 9.47476 246.79 27.7183L245.803 28.9621V72.9055L248.609 73.9551C249.137 74.1492 255.494 76.4426 266.184 76.4426C276.874 76.4426 292.641 74.034 311.054 64.4905C328.617 73.7306 346.227 76.297 360.365 76.297C373.046 76.297 382.938 74.2342 387.482 73.0754L390.701 72.2503V20.4439L385.049 22.6281L385.055 22.616ZM293.691 13.5943C294.936 13.5943 296.181 13.6428 297.427 13.7338C295.481 15.1232 293.462 16.4155 291.385 17.6046C281.722 23.1256 270.774 26.1894 259.804 26.5292C269.305 18.1688 281.378 13.5943 293.697 13.5943H293.691ZM254.221 66.2985V35.3749C254.381 35.381 254.542 35.381 254.708 35.387C255.718 35.4295 256.728 35.4538 257.738 35.4538C270.78 35.4538 283.897 31.9956 295.384 25.431C300.812 22.3308 305.861 18.5935 310.4 14.3223C310.4 14.3223 311.909 12.9997 314.841 9.77813C315.661 8.87414 316.115 8.3463 316.344 8.03687C322.237 1.13867 326.994 -6.76664 330.488 -15.5881C334.723 -26.2843 336.777 -37.5265 336.599 -49.0113C336.461 -57.8753 335.004 -66.5572 332.261 -74.8993H365.213C367.095 -66.636 368.117 -58.1301 368.249 -49.5634C368.501 -33.4312 365.621 -17.6509 359.688 -2.66534C355.689 7.44231 350.398 16.8583 343.978 25.3218C343.651 25.7526 343.312 26.1833 342.974 26.608L342.566 27.1237C341.333 28.683 340.294 29.9449 339.29 31.1037C338.596 31.9046 337.884 32.6993 337.173 33.4759C335.807 34.7561 321.612 48.0004 310.245 54.935C309.906 55.1231 309.568 55.3051 309.229 55.4871L309.16 55.5235C281.957 70.2057 261.427 67.8456 254.221 66.2864V66.2985ZM382.289 65.1579C371.273 67.4937 345.963 70.6971 319.948 59.0181C320.051 58.9453 320.154 58.8725 320.252 58.7997C320.378 58.7087 320.51 58.6176 320.636 58.5266C320.9 58.3386 321.17 58.1444 321.434 57.9503C321.554 57.8654 321.675 57.7744 321.795 57.6894C322.082 57.4771 322.369 57.2708 322.656 57.0584C322.753 56.9856 322.851 56.9128 322.948 56.8461C323.723 56.2697 324.492 55.6873 325.249 55.0988C325.318 55.0442 325.381 54.9957 325.45 54.9411C325.76 54.6984 326.07 54.4618 326.374 54.2191C326.477 54.1402 326.581 54.0613 326.678 53.9764C326.948 53.764 327.217 53.5517 327.487 53.3333C327.596 53.2483 327.705 53.1573 327.814 53.0724C328.078 52.86 328.348 52.6477 328.606 52.4354C328.704 52.3565 328.807 52.2776 328.904 52.1927C329.197 51.9561 329.484 51.7255 329.765 51.4889C329.834 51.4343 329.897 51.3797 329.966 51.3251C330.689 50.7366 331.389 50.1481 332.077 49.5778C332.112 49.5475 332.146 49.5171 332.181 49.4868C332.479 49.238 332.777 48.9832 333.07 48.7406C333.139 48.6799 333.208 48.6253 333.277 48.5646C333.535 48.3462 333.793 48.1217 334.051 47.9093C334.12 47.8487 334.189 47.7941 334.258 47.7334C334.51 47.515 334.763 47.2966 335.009 47.0842C335.067 47.0357 335.124 46.9811 335.187 46.9326C335.457 46.696 335.721 46.4715 335.985 46.2409C336.014 46.2167 336.042 46.1924 336.071 46.1681C336.955 45.3976 337.775 44.6696 338.521 44.0083C338.55 43.984 338.578 43.9537 338.607 43.9294C338.825 43.7352 339.032 43.5472 339.232 43.3652C339.267 43.3348 339.296 43.3045 339.33 43.2742C339.525 43.0982 339.714 42.9283 339.898 42.7585C339.927 42.7342 339.95 42.7099 339.978 42.6857C340.179 42.5036 340.374 42.3277 340.558 42.1578C341.137 41.63 341.619 41.1871 341.992 40.8352C341.998 40.8352 342.004 40.8231 342.01 40.817C342.13 40.7078 342.233 40.6047 342.331 40.5137C342.331 40.5137 342.337 40.5137 342.342 40.5076C342.635 40.2346 342.83 40.0526 342.887 39.998L343.1 39.7856C343.903 38.912 344.706 38.008 345.487 37.1101C345.779 36.7764 346.072 36.4306 346.37 36.0726C346.468 35.9573 346.565 35.836 346.663 35.7207C346.864 35.478 347.065 35.2354 347.277 34.9866C347.311 34.9441 347.346 34.9017 347.386 34.8592C360.979 37.5166 373.155 35.66 382.289 32.9056V65.1518V65.1579Z" fill="#3E3E3E"/>
<path d="M718.728 22.616C711.194 25.5221 700.022 28.3311 687.164 26.8204C692.758 18.7937 697.446 10.0572 701.118 0.774666C707.504 -15.3575 710.603 -32.3392 710.333 -49.709C710.173 -60.1504 708.784 -70.5129 706.208 -80.5113L705.364 -83.7936H653.311L655.904 -77.5506C659.697 -68.4197 661.699 -58.7671 661.854 -48.8536C662.015 -38.6125 660.179 -28.5715 656.392 -19.016C652.622 -9.49682 647.251 -1.16073 640.395 5.80421L640.068 6.11971C618.126 1.15082 594.945 9.47476 580.463 27.7183L579.476 28.9621V72.9055L582.282 73.9551C582.81 74.1492 589.167 76.4426 599.857 76.4426C610.546 76.4426 626.314 74.034 644.727 64.4905C662.29 73.7306 679.9 76.297 694.038 76.297C706.718 76.297 716.61 74.2342 721.155 73.0754L724.374 72.2503V20.4439L718.722 22.6281L718.728 22.616ZM627.364 13.5943C628.609 13.5943 629.854 13.6428 631.099 13.7338C629.154 15.1232 627.134 16.4155 625.057 17.6046C615.395 23.1256 604.447 26.1894 593.476 26.5292C602.978 18.1688 615.051 13.5943 627.37 13.5943H627.364ZM587.893 66.2985V35.3749C588.054 35.381 588.215 35.381 588.381 35.387C589.391 35.4295 590.401 35.4538 591.411 35.4538C604.453 35.4538 617.569 31.9956 629.057 25.431C634.485 22.3308 639.534 18.5935 644.073 14.3223C644.073 14.3223 645.582 12.9997 648.514 9.77813C649.334 8.87414 649.787 8.3463 650.017 8.03687C655.91 1.13867 660.666 -6.76664 664.161 -15.5881C668.395 -26.2843 670.449 -37.5265 670.272 -49.0113C670.134 -57.8753 668.676 -66.5572 665.934 -74.8993H698.886C700.768 -66.636 701.789 -58.1301 701.921 -49.5634C702.174 -33.4312 699.294 -17.6509 693.361 -2.66534C689.361 7.44231 684.071 16.8583 677.65 25.3218C677.323 25.7526 676.985 26.1833 676.646 26.608L676.239 27.1237C675.005 28.683 673.967 29.9449 672.963 31.1037C672.268 31.9046 671.557 32.6993 670.845 33.4759C669.48 34.7561 655.284 48.0004 643.918 54.935C643.579 55.1231 643.241 55.3051 642.902 55.4871L642.833 55.5235C615.63 70.2057 595.1 67.8456 587.893 66.2864V66.2985ZM715.962 65.1579C704.945 67.4937 679.636 70.6971 653.62 59.0181C653.724 58.9453 653.827 58.8725 653.924 58.7997C654.051 58.7087 654.183 58.6176 654.309 58.5266C654.573 58.3386 654.843 58.1444 655.106 57.9503C655.227 57.8654 655.347 57.7744 655.468 57.6894C655.755 57.4771 656.042 57.2708 656.329 57.0584C656.426 56.9856 656.524 56.9128 656.621 56.8461C657.396 56.2697 658.165 55.6873 658.922 55.0988C658.991 55.0442 659.054 54.9957 659.123 54.9411C659.433 54.6984 659.743 54.4618 660.047 54.2191C660.15 54.1402 660.253 54.0613 660.351 53.9764C660.621 53.764 660.89 53.5517 661.16 53.3333C661.269 53.2483 661.378 53.1573 661.487 53.0724C661.751 52.86 662.021 52.6477 662.279 52.4354C662.376 52.3565 662.48 52.2776 662.577 52.1927C662.87 51.9561 663.157 51.7255 663.438 51.4889C663.507 51.4343 663.57 51.3797 663.639 51.3251C664.362 50.7366 665.062 50.1481 665.75 49.5778C665.785 49.5475 665.819 49.5171 665.853 49.4868C666.152 49.238 666.45 48.9832 666.743 48.7406C666.812 48.6799 666.881 48.6253 666.949 48.5646C667.208 48.3462 667.466 48.1217 667.724 47.9093C667.793 47.8487 667.862 47.7941 667.931 47.7334C668.183 47.515 668.435 47.2966 668.682 47.0842C668.74 47.0357 668.797 46.9811 668.86 46.9326C669.13 46.696 669.394 46.4715 669.658 46.2409C669.686 46.2167 669.715 46.1924 669.744 46.1681C670.627 45.3976 671.448 44.6696 672.194 44.0083C672.222 43.984 672.251 43.9537 672.28 43.9294C672.498 43.7352 672.704 43.5472 672.905 43.3652C672.94 43.3348 672.968 43.3045 673.003 43.2742C673.198 43.0982 673.387 42.9283 673.571 42.7585C673.6 42.7342 673.622 42.7099 673.651 42.6857C673.852 42.5036 674.047 42.3277 674.231 42.1578C674.81 41.63 675.292 41.1871 675.665 40.8352C675.671 40.8352 675.677 40.8231 675.682 40.817C675.803 40.7078 675.906 40.6047 676.004 40.5137C676.004 40.5137 676.009 40.5137 676.015 40.5076C676.308 40.2346 676.503 40.0526 676.56 39.998L676.773 39.7856C677.576 38.912 678.379 38.008 679.16 37.1101C679.452 36.7764 679.745 36.4306 680.043 36.0726C680.141 35.9573 680.238 35.836 680.336 35.7207C680.537 35.478 680.737 35.2354 680.95 34.9866C680.984 34.9441 681.019 34.9017 681.059 34.8592C694.652 37.5166 706.827 35.66 715.962 32.9056V65.1518V65.1579Z" fill="#3E3E3E"/>
<path d="M1052.41 22.616C1044.87 25.5221 1033.7 28.3311 1020.84 26.8204C1026.44 18.7937 1031.12 10.0572 1034.8 0.774666C1041.18 -15.3575 1044.28 -32.3392 1044.01 -49.709C1043.85 -60.1504 1042.46 -70.5129 1039.89 -80.5113L1039.04 -83.7936H986.989L989.582 -77.5506C993.375 -68.4197 995.378 -58.7671 995.533 -48.8536C995.693 -38.6125 993.857 -28.5715 990.07 -19.016C986.3 -9.49682 980.93 -1.16073 974.073 5.80421L973.746 6.11971C951.804 1.15082 928.623 9.47476 914.141 27.7183L913.154 28.9621V72.9055L915.96 73.9551C916.488 74.1492 922.846 76.4426 933.535 76.4426C944.225 76.4426 959.992 74.034 978.405 64.4905C995.969 73.7306 1013.58 76.297 1027.72 76.297C1040.4 76.297 1050.29 74.2342 1054.83 73.0754L1058.05 72.2503V20.4439L1052.4 22.6281L1052.41 22.616ZM961.042 13.5943C962.287 13.5943 963.533 13.6428 964.778 13.7338C962.832 15.1232 960.813 16.4155 958.736 17.6046C949.073 23.1256 938.125 26.1894 927.155 26.5292C936.657 18.1688 948.729 13.5943 961.048 13.5943H961.042ZM921.572 66.2985V35.3749C921.732 35.381 921.893 35.381 922.059 35.387C923.069 35.4295 924.079 35.4538 925.089 35.4538C938.131 35.4538 951.248 31.9956 962.735 25.431C968.163 22.3308 973.212 18.5935 977.751 14.3223C977.751 14.3223 979.26 12.9997 982.192 9.77813C983.013 8.87414 983.466 8.3463 983.695 8.03687C989.588 1.13867 994.345 -6.76664 997.839 -15.5881C1002.07 -26.2843 1004.13 -37.5265 1003.95 -49.0113C1003.81 -57.8753 1002.35 -66.5572 999.612 -74.8993H1032.56C1034.45 -66.636 1035.47 -58.1301 1035.6 -49.5634C1035.85 -33.4312 1032.97 -17.6509 1027.04 -2.66534C1023.04 7.44231 1017.75 16.8583 1011.33 25.3218C1011 25.7526 1010.66 26.1833 1010.32 26.608L1009.92 27.1237C1008.68 28.683 1007.65 29.9449 1006.64 31.1037C1005.95 31.9046 1005.24 32.6993 1004.52 33.4759C1003.16 34.7561 988.963 48.0004 977.596 54.935C977.257 55.1231 976.919 55.3051 976.58 55.4871L976.512 55.5235C949.308 70.2057 928.778 67.8456 921.572 66.2864V66.2985ZM1049.64 65.1579C1038.62 67.4937 1013.31 70.6971 987.299 59.0181C987.402 58.9453 987.505 58.8725 987.603 58.7997C987.729 58.7087 987.861 58.6176 987.987 58.5266C988.251 58.3386 988.521 58.1444 988.785 57.9503C988.905 57.8654 989.026 57.7744 989.146 57.6894C989.433 57.4771 989.72 57.2708 990.007 57.0584C990.105 56.9856 990.202 56.9128 990.3 56.8461C991.074 56.2697 991.843 55.6873 992.6 55.0988C992.669 55.0442 992.732 54.9957 992.801 54.9411C993.111 54.6984 993.421 54.4618 993.725 54.2191C993.828 54.1402 993.932 54.0613 994.029 53.9764C994.299 53.764 994.568 53.5517 994.838 53.3333C994.947 53.2483 995.056 53.1573 995.165 53.0724C995.429 52.86 995.699 52.6477 995.957 52.4354C996.055 52.3565 996.158 52.2776 996.255 52.1927C996.548 51.9561 996.835 51.7255 997.116 51.4889C997.185 51.4343 997.248 51.3797 997.317 51.3251C998.04 50.7366 998.74 50.1481 999.428 49.5778C999.463 49.5475 999.497 49.5171 999.532 49.4868C999.83 49.238 1000.13 48.9832 1000.42 48.7406C1000.49 48.6799 1000.56 48.6253 1000.63 48.5646C1000.89 48.3462 1001.14 48.1217 1001.4 47.9093C1001.47 47.8487 1001.54 47.7941 1001.61 47.7334C1001.86 47.515 1002.11 47.2966 1002.36 47.0842C1002.42 47.0357 1002.48 46.9811 1002.54 46.9326C1002.81 46.696 1003.07 46.4715 1003.34 46.2409C1003.36 46.2167 1003.39 46.1924 1003.42 46.1681C1004.31 45.3976 1005.13 44.6696 1005.87 44.0083C1005.9 43.984 1005.93 43.9537 1005.96 43.9294C1006.18 43.7352 1006.38 43.5472 1006.58 43.3652C1006.62 43.3348 1006.65 43.3045 1006.68 43.2742C1006.88 43.0982 1007.07 42.9283 1007.25 42.7585C1007.28 42.7342 1007.3 42.7099 1007.33 42.6857C1007.53 42.5036 1007.73 42.3277 1007.91 42.1578C1008.49 41.63 1008.97 41.1871 1009.34 40.8352C1009.35 40.8352 1009.35 40.8231 1009.36 40.817C1009.48 40.7078 1009.58 40.6047 1009.68 40.5137C1009.68 40.5137 1009.69 40.5137 1009.69 40.5076C1009.99 40.2346 1010.18 40.0526 1010.24 39.998L1010.45 39.7856C1011.25 38.912 1012.06 38.008 1012.84 37.1101C1013.13 36.7764 1013.42 36.4306 1013.72 36.0726C1013.82 35.9573 1013.92 35.836 1014.01 35.7207C1014.21 35.478 1014.42 35.2354 1014.63 34.9866C1014.66 34.9441 1014.7 34.9017 1014.74 34.8592C1028.33 37.5166 1040.51 35.66 1049.64 32.9056V65.1518V65.1579Z" fill="#3E3E3E"/>
<path d="M51.3766 298.113C43.8428 301.02 32.6713 303.829 19.8128 302.318C25.4072 294.291 30.095 285.555 33.7672 276.272C40.1534 260.14 43.2519 243.158 42.9822 225.788C42.8215 215.347 41.433 204.985 38.8567 194.986L38.0132 191.704H-14.0405L-11.447 197.947C-7.65426 207.078 -5.65175 216.73 -5.49683 226.644C-5.33617 236.885 -7.17228 246.926 -10.9593 256.481C-14.729 266.001 -20.0996 274.337 -26.9564 281.302L-27.2834 281.617C-49.2249 276.648 -72.4058 284.972 -86.8881 303.216L-87.875 304.46V348.403L-85.0692 349.453C-84.5413 349.647 -78.1838 351.94 -67.4942 351.94C-56.8046 351.94 -41.037 349.531 -22.6243 339.988C-5.06075 349.228 12.5487 351.794 26.6867 351.794C39.3673 351.794 49.2594 349.732 53.8037 348.573L57.0227 347.748V295.941L51.3709 298.126L51.3766 298.113ZM-39.987 289.092C-38.7419 289.092 -37.4968 289.14 -36.2517 289.231C-38.1968 290.621 -40.2165 291.913 -42.2936 293.102C-51.9561 298.623 -62.9039 301.687 -73.8747 302.027C-64.3728 293.666 -52.3004 289.092 -39.9813 289.092H-39.987ZM-79.4576 341.796V310.872C-79.2969 310.878 -79.1363 310.878 -78.9699 310.885C-77.96 310.927 -76.9502 310.951 -75.9403 310.951C-62.8982 310.951 -49.7815 307.493 -38.2943 300.929C-32.8663 297.828 -27.817 294.091 -23.2784 289.82C-23.2784 289.82 -21.7693 288.497 -18.8373 285.276C-18.0168 284.372 -17.5635 283.844 -17.334 283.534C-11.4412 276.636 -6.68457 268.731 -3.19022 259.909C1.0443 249.213 3.09846 237.971 2.92059 226.486C2.78288 217.622 1.32545 208.94 -1.41723 200.598H31.5352C33.4172 208.861 34.4385 217.367 34.5705 225.934C34.823 242.066 31.9426 257.847 26.0096 272.832C22.0104 282.94 16.7201 292.356 10.2994 300.819C9.97239 301.25 9.63386 301.681 9.29533 302.106L8.88793 302.621C7.6543 304.18 6.61575 305.442 5.61163 306.601C4.91734 307.402 4.20586 308.197 3.49437 308.973C2.12876 310.254 -12.0667 323.498 -23.4333 330.432C-23.7719 330.621 -24.1104 330.803 -24.4489 330.985L-24.5178 331.021C-51.7209 345.703 -72.2509 343.343 -79.4576 341.784V341.796ZM48.611 340.655C37.5943 342.991 12.2847 346.195 -13.7306 334.516C-13.6273 334.443 -13.5241 334.37 -13.4265 334.297C-13.3003 334.206 -13.1683 334.115 -13.0421 334.024C-12.7782 333.836 -12.5085 333.642 -12.2445 333.448C-12.124 333.363 -12.0035 333.272 -11.883 333.187C-11.5962 332.975 -11.3093 332.768 -11.0224 332.556C-10.9248 332.483 -10.8273 332.41 -10.7297 332.344C-9.95514 331.767 -9.18626 331.185 -8.42886 330.596C-8.36001 330.542 -8.2969 330.493 -8.22804 330.439C-7.91821 330.196 -7.60836 329.959 -7.30425 329.717C-7.20097 329.638 -7.09769 329.559 -7.00014 329.474C-6.73047 329.262 -6.46079 329.049 -6.19111 328.831C-6.08209 328.746 -5.97308 328.655 -5.86406 328.57C-5.60012 328.358 -5.33044 328.145 -5.07224 327.933C-4.97469 327.854 -4.87141 327.775 -4.77386 327.69C-4.48123 327.454 -4.19434 327.223 -3.91319 326.986C-3.84433 326.932 -3.78122 326.877 -3.71236 326.823C-2.9894 326.234 -2.28938 325.646 -1.60084 325.075C-1.56641 325.045 -1.53199 325.015 -1.49756 324.984C-1.1992 324.736 -0.900826 324.481 -0.608192 324.238C-0.539337 324.177 -0.47049 324.123 -0.401634 324.062C-0.143433 323.844 0.114777 323.619 0.372978 323.407C0.441833 323.346 0.510689 323.292 0.579544 323.231C0.832008 323.012 1.08447 322.794 1.3312 322.582C1.38858 322.533 1.44595 322.479 1.50907 322.43C1.77875 322.193 2.04269 321.969 2.30663 321.738C2.33532 321.714 2.36401 321.69 2.3927 321.666C3.27633 320.895 4.09683 320.167 4.84275 319.506C4.87144 319.481 4.90014 319.451 4.92883 319.427C5.14687 319.233 5.35342 319.045 5.55424 318.863C5.58868 318.832 5.61736 318.802 5.65179 318.772C5.84688 318.596 6.03623 318.426 6.21984 318.256C6.24853 318.232 6.27148 318.207 6.30017 318.183C6.50099 318.001 6.69608 317.825 6.87969 317.655C7.45921 317.127 7.94118 316.685 8.31415 316.333C8.31989 316.333 8.32562 316.321 8.33136 316.314C8.45186 316.205 8.55514 316.102 8.65268 316.011C8.65268 316.011 8.65842 316.011 8.66415 316.005C8.95679 315.732 9.15187 315.55 9.20925 315.495L9.42155 315.283C10.2249 314.409 11.0281 313.505 11.8085 312.608C12.1011 312.274 12.3938 311.928 12.6921 311.57C12.7897 311.455 12.8872 311.333 12.9847 311.218C13.1856 310.976 13.3864 310.733 13.5987 310.484C13.6331 310.442 13.6675 310.399 13.7077 310.357C27.3007 313.014 39.4764 311.158 48.611 308.403V340.649V340.655Z" fill="#3E3E3E"/>
<path d="M234.414 188.907C226.88 191.813 215.708 194.622 202.85 193.111C208.444 185.085 213.132 176.348 216.804 167.066C223.191 150.933 226.289 133.952 226.019 116.582C225.859 106.141 224.47 95.7782 221.894 85.7797L221.05 82.4975H168.997L171.59 88.7404C175.383 97.8713 177.385 107.524 177.54 117.437C177.701 127.679 175.865 137.72 172.078 147.275C168.308 156.794 162.937 165.13 156.081 172.095L155.754 172.411C133.812 167.442 110.631 175.766 96.149 194.009L95.1621 195.253V239.197L97.9679 240.246C98.4958 240.44 104.853 242.734 115.543 242.734C126.233 242.734 142 240.325 160.413 230.782C177.976 240.022 195.586 242.588 209.724 242.588C222.404 242.588 232.296 240.525 236.841 239.366L240.06 238.541V186.735L234.408 188.919L234.414 188.907ZM143.05 179.885C144.295 179.885 145.54 179.934 146.785 180.025C144.84 181.414 142.821 182.706 140.744 183.896C131.081 189.417 120.133 192.48 109.162 192.82C118.664 184.46 130.737 179.885 143.056 179.885H143.05ZM103.58 232.59V201.666C103.74 201.672 103.901 201.672 104.067 201.678C105.077 201.721 106.087 201.745 107.097 201.745C120.139 201.745 133.256 198.287 144.743 191.722C150.171 188.622 155.22 184.885 159.759 180.613C159.759 180.613 161.268 179.291 164.2 176.069C165.02 175.165 165.474 174.637 165.703 174.328C171.596 167.43 176.353 159.524 179.847 150.703C184.081 140.007 186.136 128.765 185.958 117.28C185.82 108.416 184.363 99.7339 181.62 91.3917H214.572C216.454 99.655 217.476 108.161 217.608 116.728C217.86 132.86 214.98 148.64 209.047 163.626C205.047 173.733 199.757 183.149 193.337 191.613C193.009 192.044 192.671 192.474 192.332 192.899L191.925 193.415C190.691 194.974 189.653 196.236 188.649 197.395C187.954 198.196 187.243 198.99 186.531 199.767C185.166 201.047 170.97 214.291 159.604 221.226C159.265 221.414 158.927 221.596 158.588 221.778L158.519 221.815C131.316 236.497 110.786 234.137 103.58 232.577V232.59ZM231.648 231.449C220.631 233.785 195.322 236.988 169.306 225.309C169.41 225.236 169.513 225.164 169.611 225.091C169.737 225 169.869 224.909 169.995 224.818C170.259 224.63 170.529 224.435 170.793 224.241C170.913 224.156 171.034 224.065 171.154 223.98C171.441 223.768 171.728 223.562 172.015 223.35C172.112 223.277 172.21 223.204 172.307 223.137C173.082 222.561 173.851 221.978 174.608 221.39C174.677 221.335 174.74 221.287 174.809 221.232C175.119 220.989 175.429 220.753 175.733 220.51C175.836 220.431 175.939 220.352 176.037 220.267C176.307 220.055 176.576 219.843 176.846 219.624C176.955 219.539 177.064 219.448 177.173 219.363C177.437 219.151 177.707 218.939 177.965 218.726C178.062 218.648 178.166 218.569 178.263 218.484C178.556 218.247 178.843 218.017 179.124 217.78C179.193 217.725 179.256 217.671 179.325 217.616C180.048 217.028 180.748 216.439 181.436 215.869C181.471 215.839 181.505 215.808 181.54 215.778C181.838 215.529 182.136 215.274 182.429 215.032C182.498 214.971 182.567 214.916 182.635 214.856C182.894 214.637 183.152 214.413 183.41 214.2C183.479 214.14 183.548 214.085 183.617 214.024C183.869 213.806 184.122 213.588 184.368 213.375C184.426 213.327 184.483 213.272 184.546 213.224C184.816 212.987 185.08 212.763 185.344 212.532C185.372 212.508 185.401 212.483 185.43 212.459C186.313 211.689 187.134 210.961 187.88 210.299C187.909 210.275 187.937 210.245 187.966 210.22C188.184 210.026 188.391 209.838 188.591 209.656C188.626 209.626 188.654 209.596 188.689 209.565C188.884 209.389 189.073 209.219 189.257 209.05C189.286 209.025 189.309 209.001 189.337 208.977C189.538 208.795 189.733 208.619 189.917 208.449C190.496 207.921 190.978 207.478 191.351 207.126C191.357 207.126 191.363 207.114 191.368 207.108C191.489 206.999 191.592 206.896 191.69 206.805C191.69 206.805 191.696 206.805 191.701 206.799C191.994 206.526 192.189 206.344 192.246 206.289L192.459 206.077C193.262 205.203 194.065 204.299 194.846 203.401C195.138 203.067 195.431 202.722 195.729 202.364C195.827 202.248 195.924 202.127 196.022 202.012C196.223 201.769 196.424 201.526 196.636 201.278C196.67 201.235 196.705 201.193 196.745 201.15C210.338 203.808 222.513 201.951 231.648 199.197V231.443V231.449Z" fill="#3E3E3E"/>
<path d="M385.055 298.113C377.521 301.02 366.349 303.829 353.491 302.318C359.085 294.291 363.773 285.555 367.445 276.272C373.832 260.14 376.93 243.158 376.66 225.788C376.5 215.347 375.111 204.985 372.535 194.986L371.691 191.704H319.638L322.231 197.947C326.024 207.078 328.026 216.73 328.181 226.644C328.342 236.885 326.506 246.926 322.719 256.481C318.949 266.001 313.579 274.337 306.722 281.302L306.395 281.617C284.453 276.648 261.272 284.972 246.79 303.216L245.803 304.46V348.403L248.609 349.453C249.137 349.647 255.494 351.94 266.184 351.94C276.874 351.94 292.641 349.531 311.054 339.988C328.617 349.228 346.227 351.794 360.365 351.794C373.046 351.794 382.938 349.732 387.482 348.573L390.701 347.748V295.941L385.049 298.126L385.055 298.113ZM293.691 289.092C294.936 289.092 296.181 289.14 297.427 289.231C295.481 290.621 293.462 291.913 291.385 293.102C281.722 298.623 270.774 301.687 259.804 302.027C269.305 293.666 281.378 289.092 293.697 289.092H293.691ZM254.221 341.796V310.872C254.381 310.878 254.542 310.878 254.708 310.885C255.718 310.927 256.728 310.951 257.738 310.951C270.78 310.951 283.897 307.493 295.384 300.929C300.812 297.828 305.861 294.091 310.4 289.82C310.4 289.82 311.909 288.497 314.841 285.276C315.661 284.372 316.115 283.844 316.344 283.534C322.237 276.636 326.994 268.731 330.488 259.909C334.723 249.213 336.777 237.971 336.599 226.486C336.461 217.622 335.004 208.94 332.261 200.598H365.213C367.095 208.861 368.117 217.367 368.249 225.934C368.501 242.066 365.621 257.847 359.688 272.832C355.689 282.94 350.398 292.356 343.978 300.819C343.651 301.25 343.312 301.681 342.974 302.106L342.566 302.621C341.333 304.18 340.294 305.442 339.29 306.601C338.596 307.402 337.884 308.197 337.173 308.973C335.807 310.254 321.612 323.498 310.245 330.432C309.906 330.621 309.568 330.803 309.229 330.985L309.16 331.021C281.957 345.703 261.427 343.343 254.221 341.784V341.796ZM382.289 340.655C371.273 342.991 345.963 346.195 319.948 334.516C320.051 334.443 320.154 334.37 320.252 334.297C320.378 334.206 320.51 334.115 320.636 334.024C320.9 333.836 321.17 333.642 321.434 333.448C321.554 333.363 321.675 333.272 321.795 333.187C322.082 332.975 322.369 332.768 322.656 332.556C322.753 332.483 322.851 332.41 322.948 332.344C323.723 331.767 324.492 331.185 325.249 330.596C325.318 330.542 325.381 330.493 325.45 330.439C325.76 330.196 326.07 329.959 326.374 329.717C326.477 329.638 326.581 329.559 326.678 329.474C326.948 329.262 327.217 329.049 327.487 328.831C327.596 328.746 327.705 328.655 327.814 328.57C328.078 328.358 328.348 328.145 328.606 327.933C328.704 327.854 328.807 327.775 328.904 327.69C329.197 327.454 329.484 327.223 329.765 326.986C329.834 326.932 329.897 326.877 329.966 326.823C330.689 326.234 331.389 325.646 332.077 325.075C332.112 325.045 332.146 325.015 332.181 324.984C332.479 324.736 332.777 324.481 333.07 324.238C333.139 324.177 333.208 324.123 333.277 324.062C333.535 323.844 333.793 323.619 334.051 323.407C334.12 323.346 334.189 323.292 334.258 323.231C334.51 323.012 334.763 322.794 335.009 322.582C335.067 322.533 335.124 322.479 335.187 322.43C335.457 322.193 335.721 321.969 335.985 321.738C336.014 321.714 336.042 321.69 336.071 321.666C336.955 320.895 337.775 320.167 338.521 319.506C338.55 319.481 338.578 319.451 338.607 319.427C338.825 319.233 339.032 319.045 339.232 318.863C339.267 318.832 339.296 318.802 339.33 318.772C339.525 318.596 339.714 318.426 339.898 318.256C339.927 318.232 339.95 318.207 339.978 318.183C340.179 318.001 340.374 317.825 340.558 317.655C341.137 317.127 341.619 316.685 341.992 316.333C341.998 316.333 342.004 316.321 342.01 316.314C342.13 316.205 342.233 316.102 342.331 316.011C342.331 316.011 342.337 316.011 342.342 316.005C342.635 315.732 342.83 315.55 342.887 315.495L343.1 315.283C343.903 314.409 344.706 313.505 345.487 312.608C345.779 312.274 346.072 311.928 346.37 311.57C346.468 311.455 346.565 311.333 346.663 311.218C346.864 310.976 347.065 310.733 347.277 310.484C347.311 310.442 347.346 310.399 347.386 310.357C360.979 313.014 373.155 311.158 382.289 308.403V340.649V340.655Z" fill="#3E3E3E"/>
<path d="M568.092 188.907C560.558 191.813 549.387 194.622 536.528 193.111C542.123 185.085 546.81 176.348 550.483 167.066C556.869 150.933 559.967 133.952 559.698 116.582C559.537 106.141 558.148 95.7782 555.572 85.7797L554.729 82.4975H502.675L505.268 88.7404C509.061 97.8713 511.064 107.524 511.219 117.437C511.379 127.679 509.543 137.72 505.756 147.275C501.986 156.794 496.616 165.13 489.759 172.095L489.432 172.411C467.49 167.442 444.31 175.766 429.827 194.009L428.84 195.253V239.197L431.646 240.246C432.174 240.44 438.532 242.734 449.221 242.734C459.911 242.734 475.678 240.325 494.091 230.782C511.655 240.022 529.264 242.588 543.402 242.588C556.083 242.588 565.975 240.525 570.519 239.366L573.738 238.541V186.735L568.086 188.919L568.092 188.907ZM476.728 179.885C477.973 179.885 479.219 179.934 480.464 180.025C478.519 181.414 476.499 182.706 474.422 183.896C464.759 189.417 453.811 192.48 442.841 192.82C452.343 184.46 464.415 179.885 476.734 179.885H476.728ZM437.258 232.59V201.666C437.418 201.672 437.579 201.672 437.745 201.678C438.755 201.721 439.765 201.745 440.775 201.745C453.817 201.745 466.934 198.287 478.421 191.722C483.849 188.622 488.898 184.885 493.437 180.613C493.437 180.613 494.946 179.291 497.878 176.069C498.699 175.165 499.152 174.637 499.381 174.328C505.274 167.43 510.031 159.524 513.525 150.703C517.76 140.007 519.814 128.765 519.636 117.28C519.498 108.416 518.041 99.7339 515.298 91.3917H548.251C550.133 99.655 551.154 108.161 551.286 116.728C551.538 132.86 548.658 148.64 542.725 163.626C538.726 173.733 533.435 183.149 527.015 191.613C526.688 192.044 526.349 192.474 526.011 192.899L525.603 193.415C524.37 194.974 523.331 196.236 522.327 197.395C521.633 198.196 520.921 198.99 520.21 199.767C518.844 201.047 504.649 214.291 493.282 221.226C492.943 221.414 492.605 221.596 492.266 221.778L492.198 221.815C464.994 236.497 444.464 234.137 437.258 232.577V232.59ZM565.326 231.449C554.31 233.785 529 236.988 502.985 225.309C503.088 225.236 503.191 225.164 503.289 225.091C503.415 225 503.547 224.909 503.673 224.818C503.937 224.63 504.207 224.435 504.471 224.241C504.591 224.156 504.712 224.065 504.832 223.98C505.119 223.768 505.406 223.562 505.693 223.35C505.791 223.277 505.888 223.204 505.986 223.137C506.76 222.561 507.529 221.978 508.286 221.39C508.355 221.335 508.418 221.287 508.487 221.232C508.797 220.989 509.107 220.753 509.411 220.51C509.514 220.431 509.618 220.352 509.715 220.267C509.985 220.055 510.255 219.843 510.524 219.624C510.633 219.539 510.742 219.448 510.851 219.363C511.115 219.151 511.385 218.939 511.643 218.726C511.741 218.648 511.844 218.569 511.941 218.484C512.234 218.247 512.521 218.017 512.802 217.78C512.871 217.725 512.934 217.671 513.003 217.616C513.726 217.028 514.426 216.439 515.115 215.869C515.149 215.839 515.183 215.808 515.218 215.778C515.516 215.529 515.815 215.274 516.107 215.032C516.176 214.971 516.245 214.916 516.314 214.856C516.572 214.637 516.83 214.413 517.088 214.2C517.157 214.14 517.226 214.085 517.295 214.024C517.547 213.806 517.8 213.588 518.047 213.375C518.104 213.327 518.161 213.272 518.224 213.224C518.494 212.987 518.758 212.763 519.022 212.532C519.051 212.508 519.079 212.483 519.108 212.459C519.992 211.689 520.812 210.961 521.558 210.299C521.587 210.275 521.615 210.245 521.644 210.22C521.862 210.026 522.069 209.838 522.27 209.656C522.304 209.626 522.333 209.596 522.367 209.565C522.562 209.389 522.752 209.219 522.935 209.05C522.964 209.025 522.987 209.001 523.016 208.977C523.216 208.795 523.411 208.619 523.595 208.449C524.175 207.921 524.657 207.478 525.03 207.126C525.035 207.126 525.041 207.114 525.047 207.108C525.167 206.999 525.27 206.896 525.368 206.805C525.368 206.805 525.374 206.805 525.38 206.799C525.672 206.526 525.867 206.344 525.925 206.289L526.137 206.077C526.94 205.203 527.743 204.299 528.524 203.401C528.816 203.067 529.109 202.722 529.408 202.364C529.505 202.248 529.603 202.127 529.7 202.012C529.901 201.769 530.102 201.526 530.314 201.278C530.348 201.235 530.383 201.193 530.423 201.15C544.016 203.808 556.192 201.951 565.326 199.197V231.443V231.449Z" fill="#3E3E3E"/>
<path d="M718.728 298.113C711.194 301.02 700.022 303.829 687.164 302.318C692.758 294.291 697.446 285.555 701.118 276.272C707.504 260.14 710.603 243.158 710.333 225.788C710.173 215.347 708.784 204.985 706.208 194.986L705.364 191.704H653.311L655.904 197.947C659.697 207.078 661.699 216.73 661.854 226.644C662.015 236.885 660.179 246.926 656.392 256.481C652.622 266.001 647.251 274.337 640.395 281.302L640.068 281.617C618.126 276.648 594.945 284.972 580.463 303.216L579.476 304.46V348.403L582.282 349.453C582.81 349.647 589.167 351.94 599.857 351.94C610.546 351.94 626.314 349.531 644.727 339.988C662.29 349.228 679.9 351.794 694.038 351.794C706.718 351.794 716.61 349.732 721.155 348.573L724.374 347.748V295.941L718.722 298.126L718.728 298.113ZM627.364 289.092C628.609 289.092 629.854 289.14 631.099 289.231C629.154 290.621 627.134 291.913 625.057 293.102C615.395 298.623 604.447 301.687 593.476 302.027C602.978 293.666 615.051 289.092 627.37 289.092H627.364ZM587.893 341.796V310.872C588.054 310.878 588.215 310.878 588.381 310.885C589.391 310.927 590.401 310.951 591.411 310.951C604.453 310.951 617.569 307.493 629.057 300.929C634.485 297.828 639.534 294.091 644.073 289.82C644.073 289.82 645.582 288.497 648.514 285.276C649.334 284.372 649.787 283.844 650.017 283.534C655.91 276.636 660.666 268.731 664.161 259.909C668.395 249.213 670.449 237.971 670.272 226.486C670.134 217.622 668.676 208.94 665.934 200.598H698.886C700.768 208.861 701.789 217.367 701.921 225.934C702.174 242.066 699.294 257.847 693.361 272.832C689.361 282.94 684.071 292.356 677.65 300.819C677.323 301.25 676.985 301.681 676.646 302.106L676.239 302.621C675.005 304.18 673.967 305.442 672.963 306.601C672.268 307.402 671.557 308.197 670.845 308.973C669.48 310.254 655.284 323.498 643.918 330.432C643.579 330.621 643.241 330.803 642.902 330.985L642.833 331.021C615.63 345.703 595.1 343.343 587.893 341.784V341.796ZM715.962 340.655C704.945 342.991 679.636 346.195 653.62 334.516C653.724 334.443 653.827 334.37 653.924 334.297C654.051 334.206 654.183 334.115 654.309 334.024C654.573 333.836 654.843 333.642 655.106 333.448C655.227 333.363 655.347 333.272 655.468 333.187C655.755 332.975 656.042 332.768 656.329 332.556C656.426 332.483 656.524 332.41 656.621 332.344C657.396 331.767 658.165 331.185 658.922 330.596C658.991 330.542 659.054 330.493 659.123 330.439C659.433 330.196 659.743 329.959 660.047 329.717C660.15 329.638 660.253 329.559 660.351 329.474C660.621 329.262 660.89 329.049 661.16 328.831C661.269 328.746 661.378 328.655 661.487 328.57C661.751 328.358 662.021 328.145 662.279 327.933C662.376 327.854 662.48 327.775 662.577 327.69C662.87 327.454 663.157 327.223 663.438 326.986C663.507 326.932 663.57 326.877 663.639 326.823C664.362 326.234 665.062 325.646 665.75 325.075C665.785 325.045 665.819 325.015 665.853 324.984C666.152 324.736 666.45 324.481 666.743 324.238C666.812 324.177 666.881 324.123 666.949 324.062C667.208 323.844 667.466 323.619 667.724 323.407C667.793 323.346 667.862 323.292 667.931 323.231C668.183 323.012 668.435 322.794 668.682 322.582C668.74 322.533 668.797 322.479 668.86 322.43C669.13 322.193 669.394 321.969 669.658 321.738C669.686 321.714 669.715 321.69 669.744 321.666C670.627 320.895 671.448 320.167 672.194 319.506C672.222 319.481 672.251 319.451 672.28 319.427C672.498 319.233 672.704 319.045 672.905 318.863C672.94 318.832 672.968 318.802 673.003 318.772C673.198 318.596 673.387 318.426 673.571 318.256C673.6 318.232 673.622 318.207 673.651 318.183C673.852 318.001 674.047 317.825 674.231 317.655C674.81 317.127 675.292 316.685 675.665 316.333C675.671 316.333 675.677 316.321 675.682 316.314C675.803 316.205 675.906 316.102 676.004 316.011C676.004 316.011 676.009 316.011 676.015 316.005C676.308 315.732 676.503 315.55 676.56 315.495L676.773 315.283C677.576 314.409 678.379 313.505 679.16 312.608C679.452 312.274 679.745 311.928 680.043 311.57C680.141 311.455 680.238 311.333 680.336 311.218C680.537 310.976 680.737 310.733 680.95 310.484C680.984 310.442 681.019 310.399 681.059 310.357C694.652 313.014 706.827 311.158 715.962 308.403V340.649V340.655Z" fill="#3E3E3E"/>
<path d="M901.765 188.907C894.231 191.813 883.059 194.622 870.201 193.111C875.795 185.085 880.483 176.348 884.155 167.066C890.541 150.933 893.64 133.952 893.37 116.582C893.209 106.141 891.821 95.7782 889.245 85.7797L888.401 82.4975H836.347L838.941 88.7404C842.734 97.8713 844.736 107.524 844.891 117.437C845.052 127.679 843.216 137.72 839.429 147.275C835.659 156.794 830.288 165.13 823.432 172.095L823.105 172.411C801.163 167.442 777.982 175.766 763.5 194.009L762.513 195.253V239.197L765.319 240.246C765.847 240.44 772.204 242.734 782.894 242.734C793.583 242.734 809.351 240.325 827.764 230.782C845.327 240.022 862.937 242.588 877.075 242.588C889.755 242.588 899.647 240.525 904.192 239.366L907.411 238.541V186.735L901.759 188.919L901.765 188.907ZM810.401 179.885C811.646 179.885 812.891 179.934 814.136 180.025C812.191 181.414 810.171 182.706 808.094 183.896C798.432 189.417 787.484 192.48 776.513 192.82C786.015 184.46 798.088 179.885 810.407 179.885H810.401ZM770.93 232.59V201.666C771.091 201.672 771.252 201.672 771.418 201.678C772.428 201.721 773.438 201.745 774.448 201.745C787.49 201.745 800.606 198.287 812.094 191.722C817.522 188.622 822.571 184.885 827.11 180.613C827.11 180.613 828.619 179.291 831.551 176.069C832.371 175.165 832.824 174.637 833.054 174.328C838.947 167.43 843.703 159.524 847.198 150.703C851.432 140.007 853.486 128.765 853.309 117.28C853.171 108.416 851.713 99.7339 848.971 91.3917H881.923C883.805 99.655 884.826 108.161 884.958 116.728C885.211 132.86 882.331 148.64 876.398 163.626C872.398 173.733 867.108 183.149 860.687 191.613C860.36 192.044 860.022 192.474 859.683 192.899L859.276 193.415C858.042 194.974 857.004 196.236 856 197.395C855.305 198.196 854.594 198.99 853.882 199.767C852.517 201.047 838.321 214.291 826.955 221.226C826.616 221.414 826.278 221.596 825.939 221.778L825.87 221.815C798.667 236.497 778.137 234.137 770.93 232.577V232.59ZM898.999 231.449C887.982 233.785 862.673 236.988 836.657 225.309C836.761 225.236 836.864 225.164 836.961 225.091C837.088 225 837.22 224.909 837.346 224.818C837.61 224.63 837.88 224.435 838.143 224.241C838.264 224.156 838.384 224.065 838.505 223.98C838.792 223.768 839.079 223.562 839.366 223.35C839.463 223.277 839.561 223.204 839.658 223.137C840.433 222.561 841.202 221.978 841.959 221.39C842.028 221.335 842.091 221.287 842.16 221.232C842.47 220.989 842.78 220.753 843.084 220.51C843.187 220.431 843.29 220.352 843.388 220.267C843.658 220.055 843.927 219.843 844.197 219.624C844.306 219.539 844.415 219.448 844.524 219.363C844.788 219.151 845.058 218.939 845.316 218.726C845.413 218.648 845.517 218.569 845.614 218.484C845.907 218.247 846.194 218.017 846.475 217.78C846.544 217.725 846.607 217.671 846.676 217.616C847.399 217.028 848.099 216.439 848.787 215.869C848.822 215.839 848.856 215.808 848.89 215.778C849.189 215.529 849.487 215.274 849.78 215.032C849.849 214.971 849.917 214.916 849.986 214.856C850.245 214.637 850.503 214.413 850.761 214.2C850.83 214.14 850.899 214.085 850.967 214.024C851.22 213.806 851.472 213.588 851.719 213.375C851.777 213.327 851.834 213.272 851.897 213.224C852.167 212.987 852.431 212.763 852.695 212.532C852.723 212.508 852.752 212.483 852.781 212.459C853.664 211.689 854.485 210.961 855.231 210.299C855.259 210.275 855.288 210.245 855.317 210.22C855.535 210.026 855.741 209.838 855.942 209.656C855.977 209.626 856.005 209.596 856.04 209.565C856.235 209.389 856.424 209.219 856.608 209.05C856.637 209.025 856.659 209.001 856.688 208.977C856.889 208.795 857.084 208.619 857.268 208.449C857.847 207.921 858.329 207.478 858.702 207.126C858.708 207.126 858.714 207.114 858.719 207.108C858.84 206.999 858.943 206.896 859.041 206.805C859.041 206.805 859.046 206.805 859.052 206.799C859.345 206.526 859.54 206.344 859.597 206.289L859.81 206.077C860.613 205.203 861.416 204.299 862.196 203.401C862.489 203.067 862.782 202.722 863.08 202.364C863.178 202.248 863.275 202.127 863.373 202.012C863.574 201.769 863.774 201.526 863.987 201.278C864.021 201.235 864.056 201.193 864.096 201.15C877.689 203.808 889.864 201.951 898.999 199.197V231.443V231.449Z" fill="#3E3E3E"/>
<path d="M1052.41 298.113C1044.87 301.02 1033.7 303.829 1020.84 302.318C1026.44 294.291 1031.12 285.555 1034.8 276.272C1041.18 260.14 1044.28 243.158 1044.01 225.788C1043.85 215.347 1042.46 204.985 1039.89 194.986L1039.04 191.704H986.989L989.582 197.947C993.375 207.078 995.378 216.73 995.533 226.644C995.693 236.885 993.857 246.926 990.07 256.481C986.3 266.001 980.93 274.337 974.073 281.302L973.746 281.617C951.804 276.648 928.623 284.972 914.141 303.216L913.154 304.46V348.403L915.96 349.453C916.488 349.647 922.846 351.94 933.535 351.94C944.225 351.94 959.992 349.531 978.405 339.988C995.969 349.228 1013.58 351.794 1027.72 351.794C1040.4 351.794 1050.29 349.732 1054.83 348.573L1058.05 347.748V295.941L1052.4 298.126L1052.41 298.113ZM961.042 289.092C962.287 289.092 963.533 289.14 964.778 289.231C962.832 290.621 960.813 291.913 958.736 293.102C949.073 298.623 938.125 301.687 927.155 302.027C936.657 293.666 948.729 289.092 961.048 289.092H961.042ZM921.572 341.796V310.872C921.732 310.878 921.893 310.878 922.059 310.885C923.069 310.927 924.079 310.951 925.089 310.951C938.131 310.951 951.248 307.493 962.735 300.929C968.163 297.828 973.212 294.091 977.751 289.82C977.751 289.82 979.26 288.497 982.192 285.276C983.013 284.372 983.466 283.844 983.695 283.534C989.588 276.636 994.345 268.731 997.839 259.909C1002.07 249.213 1004.13 237.971 1003.95 226.486C1003.81 217.622 1002.35 208.94 999.612 200.598H1032.56C1034.45 208.861 1035.47 217.367 1035.6 225.934C1035.85 242.066 1032.97 257.847 1027.04 272.832C1023.04 282.94 1017.75 292.356 1011.33 300.819C1011 301.25 1010.66 301.681 1010.32 302.106L1009.92 302.621C1008.68 304.18 1007.65 305.442 1006.64 306.601C1005.95 307.402 1005.24 308.197 1004.52 308.973C1003.16 310.254 988.963 323.498 977.596 330.432C977.257 330.621 976.919 330.803 976.58 330.985L976.512 331.021C949.308 345.703 928.778 343.343 921.572 341.784V341.796ZM1049.64 340.655C1038.62 342.991 1013.31 346.195 987.299 334.516C987.402 334.443 987.505 334.37 987.603 334.297C987.729 334.206 987.861 334.115 987.987 334.024C988.251 333.836 988.521 333.642 988.785 333.448C988.905 333.363 989.026 333.272 989.146 333.187C989.433 332.975 989.72 332.768 990.007 332.556C990.105 332.483 990.202 332.41 990.3 332.344C991.074 331.767 991.843 331.185 992.6 330.596C992.669 330.542 992.732 330.493 992.801 330.439C993.111 330.196 993.421 329.959 993.725 329.717C993.828 329.638 993.932 329.559 994.029 329.474C994.299 329.262 994.568 329.049 994.838 328.831C994.947 328.746 995.056 328.655 995.165 328.57C995.429 328.358 995.699 328.145 995.957 327.933C996.055 327.854 996.158 327.775 996.255 327.69C996.548 327.454 996.835 327.223 997.116 326.986C997.185 326.932 997.248 326.877 997.317 326.823C998.04 326.234 998.74 325.646 999.428 325.075C999.463 325.045 999.497 325.015 999.532 324.984C999.83 324.736 1000.13 324.481 1000.42 324.238C1000.49 324.177 1000.56 324.123 1000.63 324.062C1000.89 323.844 1001.14 323.619 1001.4 323.407C1001.47 323.346 1001.54 323.292 1001.61 323.231C1001.86 323.012 1002.11 322.794 1002.36 322.582C1002.42 322.533 1002.48 322.479 1002.54 322.43C1002.81 322.193 1003.07 321.969 1003.34 321.738C1003.36 321.714 1003.39 321.69 1003.42 321.666C1004.31 320.895 1005.13 320.167 1005.87 319.506C1005.9 319.481 1005.93 319.451 1005.96 319.427C1006.18 319.233 1006.38 319.045 1006.58 318.863C1006.62 318.832 1006.65 318.802 1006.68 318.772C1006.88 318.596 1007.07 318.426 1007.25 318.256C1007.28 318.232 1007.3 318.207 1007.33 318.183C1007.53 318.001 1007.73 317.825 1007.91 317.655C1008.49 317.127 1008.97 316.685 1009.34 316.333C1009.35 316.333 1009.35 316.321 1009.36 316.314C1009.48 316.205 1009.58 316.102 1009.68 316.011C1009.68 316.011 1009.69 316.011 1009.69 316.005C1009.99 315.732 1010.18 315.55 1010.24 315.495L1010.45 315.283C1011.25 314.409 1012.06 313.505 1012.84 312.608C1013.13 312.274 1013.42 311.928 1013.72 311.57C1013.82 311.455 1013.92 311.333 1014.01 311.218C1014.21 310.976 1014.42 310.733 1014.63 310.484C1014.66 310.442 1014.7 310.399 1014.74 310.357C1028.33 313.014 1040.51 311.158 1049.64 308.403V340.649V340.655Z" fill="#3E3E3E"/>
<path d="M1235.44 188.907C1227.91 191.813 1216.74 194.622 1203.88 193.111C1209.47 185.085 1214.16 176.348 1217.83 167.066C1224.22 150.933 1227.32 133.952 1227.05 116.582C1226.89 106.141 1225.5 95.7782 1222.92 85.7797L1222.08 82.4975H1170.03L1172.62 88.7404C1176.41 97.8713 1178.41 107.524 1178.57 117.437C1178.73 127.679 1176.89 137.72 1173.11 147.275C1169.34 156.794 1163.97 165.13 1157.11 172.095L1156.78 172.411C1134.84 167.442 1111.66 175.766 1097.18 194.009L1096.19 195.253V239.197L1099 240.246C1099.53 240.44 1105.88 242.734 1116.57 242.734C1127.26 242.734 1143.03 240.325 1161.44 230.782C1179.01 240.022 1196.62 242.588 1210.75 242.588C1223.43 242.588 1233.33 240.525 1237.87 239.366L1241.09 238.541V186.735L1235.44 188.919L1235.44 188.907ZM1144.08 179.885C1145.32 179.885 1146.57 179.934 1147.81 180.025C1145.87 181.414 1143.85 182.706 1141.77 183.896C1132.11 189.417 1121.16 192.48 1110.19 192.82C1119.69 184.46 1131.77 179.885 1144.09 179.885H1144.08ZM1104.61 232.59V201.666C1104.77 201.672 1104.93 201.672 1105.1 201.678C1106.11 201.721 1107.12 201.745 1108.13 201.745C1121.17 201.745 1134.28 198.287 1145.77 191.722C1151.2 188.622 1156.25 184.885 1160.79 180.613C1160.79 180.613 1162.3 179.291 1165.23 176.069C1166.05 175.165 1166.5 174.637 1166.73 174.328C1172.63 167.43 1177.38 159.524 1180.88 150.703C1185.11 140.007 1187.16 128.765 1186.99 117.28C1186.85 108.416 1185.39 99.7339 1182.65 91.3917H1215.6C1217.48 99.655 1218.5 108.161 1218.64 116.728C1218.89 132.86 1216.01 148.64 1210.08 163.626C1206.08 173.733 1200.79 183.149 1194.37 191.613C1194.04 192.044 1193.7 192.474 1193.36 192.899L1192.95 193.415C1191.72 194.974 1190.68 196.236 1189.68 197.395C1188.98 198.196 1188.27 198.99 1187.56 199.767C1186.2 201.047 1172 214.291 1160.63 221.226C1160.29 221.414 1159.96 221.596 1159.62 221.778L1159.55 221.815C1132.35 236.497 1111.82 234.137 1104.61 232.577V232.59ZM1232.68 231.449C1221.66 233.785 1196.35 236.988 1170.34 225.309C1170.44 225.236 1170.54 225.164 1170.64 225.091C1170.77 225 1170.9 224.909 1171.02 224.818C1171.29 224.63 1171.56 224.435 1171.82 224.241C1171.94 224.156 1172.06 224.065 1172.18 223.98C1172.47 223.768 1172.76 223.562 1173.04 223.35C1173.14 223.277 1173.24 223.204 1173.34 223.137C1174.11 222.561 1174.88 221.978 1175.64 221.39C1175.71 221.335 1175.77 221.287 1175.84 221.232C1176.15 220.989 1176.46 220.753 1176.76 220.51C1176.87 220.431 1176.97 220.352 1177.07 220.267C1177.34 220.055 1177.61 219.843 1177.88 219.624C1177.98 219.539 1178.09 219.448 1178.2 219.363C1178.47 219.151 1178.74 218.939 1178.99 218.726C1179.09 218.648 1179.19 218.569 1179.29 218.484C1179.59 218.247 1179.87 218.017 1180.15 217.78C1180.22 217.725 1180.29 217.671 1180.35 217.616C1181.08 217.028 1181.78 216.439 1182.47 215.869C1182.5 215.839 1182.53 215.808 1182.57 215.778C1182.87 215.529 1183.17 215.274 1183.46 215.032C1183.53 214.971 1183.6 214.916 1183.66 214.856C1183.92 214.637 1184.18 214.413 1184.44 214.2C1184.51 214.14 1184.58 214.085 1184.65 214.024C1184.9 213.806 1185.15 213.588 1185.4 213.375C1185.45 213.327 1185.51 213.272 1185.58 213.224C1185.85 212.987 1186.11 212.763 1186.37 212.532C1186.4 212.508 1186.43 212.483 1186.46 212.459C1187.34 211.689 1188.16 210.961 1188.91 210.299C1188.94 210.275 1188.97 210.245 1189 210.22C1189.21 210.026 1189.42 209.838 1189.62 209.656C1189.65 209.626 1189.68 209.596 1189.72 209.565C1189.91 209.389 1190.1 209.219 1190.29 209.05C1190.31 209.025 1190.34 209.001 1190.37 208.977C1190.57 208.795 1190.76 208.619 1190.95 208.449C1191.53 207.921 1192.01 207.478 1192.38 207.126C1192.39 207.126 1192.39 207.114 1192.4 207.108C1192.52 206.999 1192.62 206.896 1192.72 206.805C1192.72 206.805 1192.72 206.805 1192.73 206.799C1193.02 206.526 1193.22 206.344 1193.28 206.289L1193.49 206.077C1194.29 205.203 1195.09 204.299 1195.87 203.401C1196.17 203.067 1196.46 202.722 1196.76 202.364C1196.86 202.248 1196.95 202.127 1197.05 202.012C1197.25 201.769 1197.45 201.526 1197.67 201.278C1197.7 201.235 1197.73 201.193 1197.77 201.15C1211.37 203.808 1223.54 201.951 1232.68 199.197V231.443V231.449Z" fill="#3E3E3E"/>
<path d="M51.3766 573.611C43.8428 576.517 32.6713 579.326 19.8128 577.815C25.4072 569.789 30.095 561.052 33.7672 551.77C40.1534 535.637 43.2519 518.656 42.9822 501.286C42.8215 490.845 41.433 480.482 38.8567 470.484L38.0132 467.201H-14.0405L-11.447 473.444C-7.65426 482.575 -5.65175 492.228 -5.49683 502.141C-5.33617 512.383 -7.17228 522.423 -10.9593 531.979C-14.729 541.498 -20.0996 549.834 -26.9564 556.799L-27.2834 557.115C-49.2249 552.146 -72.4058 560.47 -86.8881 578.713L-87.875 579.957V623.9L-85.0692 624.95C-84.5413 625.144 -78.1838 627.438 -67.4942 627.438C-56.8046 627.438 -41.037 625.029 -22.6243 615.485C-5.06075 624.726 12.5487 627.292 26.6867 627.292C39.3673 627.292 49.2594 625.229 53.8037 624.07L57.0227 623.245V571.439L51.3709 573.623L51.3766 573.611ZM-39.987 564.589C-38.7419 564.589 -37.4968 564.638 -36.2517 564.729C-38.1968 566.118 -40.2165 567.41 -42.2936 568.6C-51.9561 574.121 -62.9039 577.184 -73.8747 577.524C-64.3728 569.164 -52.3004 564.589 -39.9813 564.589H-39.987ZM-79.4576 617.293V586.37C-79.2969 586.376 -79.1363 586.376 -78.9699 586.382C-77.96 586.424 -76.9502 586.449 -75.9403 586.449C-62.8982 586.449 -49.7815 582.991 -38.2943 576.426C-32.8663 573.326 -27.817 569.588 -23.2784 565.317C-23.2784 565.317 -21.7693 563.995 -18.8373 560.773C-18.0168 559.869 -17.5635 559.341 -17.334 559.032C-11.4412 552.134 -6.68457 544.228 -3.19022 535.407C1.0443 524.711 3.09846 513.469 2.92059 501.984C2.78288 493.12 1.32545 484.438 -1.41723 476.096H31.5352C33.4172 484.359 34.4385 492.865 34.5705 501.432C34.823 517.564 31.9426 533.344 26.0096 548.33C22.0104 558.437 16.7201 567.853 10.2994 576.317C9.97239 576.748 9.63386 577.178 9.29533 577.603L8.88793 578.119C7.6543 579.678 6.61575 580.94 5.61163 582.099C4.91734 582.9 4.20586 583.694 3.49437 584.471C2.12876 585.751 -12.0667 598.995 -23.4333 605.93C-23.7719 606.118 -24.1104 606.3 -24.4489 606.482L-24.5178 606.518C-51.7209 621.201 -72.2509 618.841 -79.4576 617.281V617.293ZM48.611 616.153C37.5943 618.489 12.2847 621.692 -13.7306 610.013C-13.6273 609.94 -13.5241 609.867 -13.4265 609.795C-13.3003 609.704 -13.1683 609.613 -13.0421 609.522C-12.7782 609.334 -12.5085 609.139 -12.2445 608.945C-12.124 608.86 -12.0035 608.769 -11.883 608.684C-11.5962 608.472 -11.3093 608.266 -11.0224 608.053C-10.9248 607.981 -10.8273 607.908 -10.7297 607.841C-9.95514 607.265 -9.18626 606.682 -8.42886 606.094C-8.36001 606.039 -8.2969 605.991 -8.22804 605.936C-7.91821 605.693 -7.60836 605.457 -7.30425 605.214C-7.20097 605.135 -7.09769 605.056 -7.00014 604.971C-6.73047 604.759 -6.46079 604.547 -6.19111 604.328C-6.08209 604.243 -5.97308 604.152 -5.86406 604.067C-5.60012 603.855 -5.33044 603.643 -5.07224 603.43C-4.97469 603.351 -4.87141 603.273 -4.77386 603.188C-4.48123 602.951 -4.19434 602.721 -3.91319 602.484C-3.84433 602.429 -3.78122 602.375 -3.71236 602.32C-2.9894 601.732 -2.28938 601.143 -1.60084 600.573C-1.56641 600.542 -1.53199 600.512 -1.49756 600.482C-1.1992 600.233 -0.900826 599.978 -0.608192 599.736C-0.539337 599.675 -0.47049 599.62 -0.401634 599.56C-0.143433 599.341 0.114777 599.117 0.372978 598.904C0.441833 598.844 0.510689 598.789 0.579544 598.728C0.832008 598.51 1.08447 598.292 1.3312 598.079C1.38858 598.031 1.44595 597.976 1.50907 597.928C1.77875 597.691 2.04269 597.466 2.30663 597.236C2.33532 597.212 2.36401 597.187 2.3927 597.163C3.27633 596.393 4.09683 595.665 4.84275 595.003C4.87144 594.979 4.90014 594.949 4.92883 594.924C5.14687 594.73 5.35342 594.542 5.55424 594.36C5.58868 594.33 5.61736 594.299 5.65179 594.269C5.84688 594.093 6.03623 593.923 6.21984 593.753C6.24853 593.729 6.27148 593.705 6.30017 593.681C6.50099 593.499 6.69608 593.323 6.87969 593.153C7.45921 592.625 7.94118 592.182 8.31415 591.83C8.31989 591.83 8.32562 591.818 8.33136 591.812C8.45186 591.703 8.55514 591.6 8.65268 591.509C8.65268 591.509 8.65842 591.509 8.66415 591.503C8.95679 591.23 9.15187 591.048 9.20925 590.993L9.42155 590.781C10.2249 589.907 11.0281 589.003 11.8085 588.105C12.1011 587.771 12.3938 587.426 12.6921 587.068C12.7897 586.952 12.8872 586.831 12.9847 586.716C13.1856 586.473 13.3864 586.23 13.5987 585.982C13.6331 585.939 13.6675 585.897 13.7077 585.854C27.3007 588.512 39.4764 586.655 48.611 583.901V616.147V616.153Z" fill="#3E3E3E"/>
<path d="M234.414 464.404C226.88 467.311 215.708 470.12 202.85 468.609C208.444 460.582 213.132 451.846 216.804 442.563C223.191 426.431 226.289 409.449 226.019 392.079C225.859 381.638 224.47 371.276 221.894 361.277L221.05 357.995H168.997L171.59 364.238C175.383 373.369 177.385 383.021 177.54 392.935C177.701 403.176 175.865 413.217 172.078 422.773C168.308 432.292 162.937 440.628 156.081 447.593L155.754 447.908C133.812 442.939 110.631 451.263 96.149 469.507L95.1621 470.751V514.694L97.9679 515.744C98.4958 515.938 104.853 518.231 115.543 518.231C126.233 518.231 142 515.822 160.413 506.279C177.976 515.519 195.586 518.086 209.724 518.086C222.404 518.086 232.296 516.023 236.841 514.864L240.06 514.039V462.232L234.408 464.417L234.414 464.404ZM143.05 455.383C144.295 455.383 145.54 455.431 146.785 455.522C144.84 456.912 142.821 458.204 140.744 459.393C131.081 464.914 120.133 467.978 109.162 468.318C118.664 459.957 130.737 455.383 143.056 455.383H143.05ZM103.58 508.087V477.163C103.74 477.169 103.901 477.169 104.067 477.176C105.077 477.218 106.087 477.242 107.097 477.242C120.139 477.242 133.256 473.784 144.743 467.22C150.171 464.119 155.22 460.382 159.759 456.111C159.759 456.111 161.268 454.788 164.2 451.567C165.02 450.663 165.474 450.135 165.703 449.825C171.596 442.927 176.353 435.022 179.847 426.2C184.081 415.504 186.136 404.262 185.958 392.777C185.82 383.913 184.363 375.231 181.62 366.889H214.572C216.454 375.153 217.476 383.658 217.608 392.225C217.86 408.357 214.98 424.138 209.047 439.123C205.047 449.231 199.757 458.647 193.337 467.11C193.009 467.541 192.671 467.972 192.332 468.397L191.925 468.912C190.691 470.472 189.653 471.733 188.649 472.892C187.954 473.693 187.243 474.488 186.531 475.264C185.166 476.545 170.97 489.789 159.604 496.723C159.265 496.912 158.927 497.094 158.588 497.276L158.519 497.312C131.316 511.994 110.786 509.634 103.58 508.075V508.087ZM231.648 506.946C220.631 509.282 195.322 512.486 169.306 500.807C169.41 500.734 169.513 500.661 169.611 500.588C169.737 500.497 169.869 500.406 169.995 500.315C170.259 500.127 170.529 499.933 170.793 499.739C170.913 499.654 171.034 499.563 171.154 499.478C171.441 499.266 171.728 499.059 172.015 498.847C172.112 498.774 172.21 498.701 172.307 498.635C173.082 498.058 173.851 497.476 174.608 496.887C174.677 496.833 174.74 496.784 174.809 496.73C175.119 496.487 175.429 496.25 175.733 496.008C175.836 495.929 175.939 495.85 176.037 495.765C176.307 495.553 176.576 495.34 176.846 495.122C176.955 495.037 177.064 494.946 177.173 494.861C177.437 494.649 177.707 494.436 177.965 494.224C178.062 494.145 178.166 494.066 178.263 493.981C178.556 493.745 178.843 493.514 179.124 493.277C179.193 493.223 179.256 493.168 179.325 493.114C180.048 492.525 180.748 491.937 181.436 491.366C181.471 491.336 181.505 491.306 181.54 491.275C181.838 491.027 182.136 490.772 182.429 490.529C182.498 490.468 182.567 490.414 182.635 490.353C182.894 490.135 183.152 489.91 183.41 489.698C183.479 489.637 183.548 489.583 183.617 489.522C183.869 489.304 184.122 489.085 184.368 488.873C184.426 488.824 184.483 488.77 184.546 488.721C184.816 488.485 185.08 488.26 185.344 488.029C185.372 488.005 185.401 487.981 185.43 487.957C186.313 487.186 187.134 486.458 187.88 485.797C187.909 485.773 187.937 485.742 187.966 485.718C188.184 485.524 188.391 485.336 188.591 485.154C188.626 485.123 188.654 485.093 188.689 485.063C188.884 484.887 189.073 484.717 189.257 484.547C189.286 484.523 189.309 484.498 189.337 484.474C189.538 484.292 189.733 484.116 189.917 483.946C190.496 483.419 190.978 482.976 191.351 482.624C191.357 482.624 191.363 482.612 191.368 482.606C191.489 482.496 191.592 482.393 191.69 482.302C191.69 482.302 191.696 482.302 191.701 482.296C191.994 482.023 192.189 481.841 192.246 481.786L192.459 481.574C193.262 480.701 194.065 479.797 194.846 478.899C195.138 478.565 195.431 478.219 195.729 477.861C195.827 477.746 195.924 477.625 196.022 477.509C196.223 477.267 196.424 477.024 196.636 476.775C196.67 476.733 196.705 476.69 196.745 476.648C210.338 479.305 222.513 477.449 231.648 474.694V506.94V506.946Z" fill="#3E3E3E"/>
<path d="M385.055 573.611C377.521 576.517 366.349 579.326 353.491 577.815C359.085 569.789 363.773 561.052 367.445 551.77C373.832 535.637 376.93 518.656 376.66 501.286C376.5 490.845 375.111 480.482 372.535 470.484L371.691 467.201H319.638L322.231 473.444C326.024 482.575 328.026 492.228 328.181 502.141C328.342 512.383 326.506 522.423 322.719 531.979C318.949 541.498 313.579 549.834 306.722 556.799L306.395 557.115C284.453 552.146 261.272 560.47 246.79 578.713L245.803 579.957V623.9L248.609 624.95C249.137 625.144 255.494 627.438 266.184 627.438C276.874 627.438 292.641 625.029 311.054 615.485C328.617 624.726 346.227 627.292 360.365 627.292C373.046 627.292 382.938 625.229 387.482 624.07L390.701 623.245V571.439L385.049 573.623L385.055 573.611ZM293.691 564.589C294.936 564.589 296.181 564.638 297.427 564.729C295.481 566.118 293.462 567.41 291.385 568.6C281.722 574.121 270.774 577.184 259.804 577.524C269.305 569.164 281.378 564.589 293.697 564.589H293.691ZM254.221 617.293V586.37C254.381 586.376 254.542 586.376 254.708 586.382C255.718 586.424 256.728 586.449 257.738 586.449C270.78 586.449 283.897 582.991 295.384 576.426C300.812 573.326 305.861 569.588 310.4 565.317C310.4 565.317 311.909 563.995 314.841 560.773C315.661 559.869 316.115 559.341 316.344 559.032C322.237 552.134 326.994 544.228 330.488 535.407C334.723 524.711 336.777 513.469 336.599 501.984C336.461 493.12 335.004 484.438 332.261 476.096H365.213C367.095 484.359 368.117 492.865 368.249 501.432C368.501 517.564 365.621 533.344 359.688 548.33C355.689 558.437 350.398 567.853 343.978 576.317C343.651 576.748 343.312 577.178 342.974 577.603L342.566 578.119C341.333 579.678 340.294 580.94 339.29 582.099C338.596 582.9 337.884 583.694 337.173 584.471C335.807 585.751 321.612 598.995 310.245 605.93C309.906 606.118 309.568 606.3 309.229 606.482L309.16 606.518C281.957 621.201 261.427 618.841 254.221 617.281V617.293ZM382.289 616.153C371.273 618.489 345.963 621.692 319.948 610.013C320.051 609.94 320.154 609.867 320.252 609.795C320.378 609.704 320.51 609.613 320.636 609.522C320.9 609.334 321.17 609.139 321.434 608.945C321.554 608.86 321.675 608.769 321.795 608.684C322.082 608.472 322.369 608.266 322.656 608.053C322.753 607.981 322.851 607.908 322.948 607.841C323.723 607.265 324.492 606.682 325.249 606.094C325.318 606.039 325.381 605.991 325.45 605.936C325.76 605.693 326.07 605.457 326.374 605.214C326.477 605.135 326.581 605.056 326.678 604.971C326.948 604.759 327.217 604.547 327.487 604.328C327.596 604.243 327.705 604.152 327.814 604.067C328.078 603.855 328.348 603.643 328.606 603.43C328.704 603.351 328.807 603.273 328.904 603.188C329.197 602.951 329.484 602.721 329.765 602.484C329.834 602.429 329.897 602.375 329.966 602.32C330.689 601.732 331.389 601.143 332.077 600.573C332.112 600.542 332.146 600.512 332.181 600.482C332.479 600.233 332.777 599.978 333.07 599.736C333.139 599.675 333.208 599.62 333.277 599.56C333.535 599.341 333.793 599.117 334.051 598.904C334.12 598.844 334.189 598.789 334.258 598.728C334.51 598.51 334.763 598.292 335.009 598.079C335.067 598.031 335.124 597.976 335.187 597.928C335.457 597.691 335.721 597.466 335.985 597.236C336.014 597.212 336.042 597.187 336.071 597.163C336.955 596.393 337.775 595.665 338.521 595.003C338.55 594.979 338.578 594.949 338.607 594.924C338.825 594.73 339.032 594.542 339.232 594.36C339.267 594.33 339.296 594.299 339.33 594.269C339.525 594.093 339.714 593.923 339.898 593.753C339.927 593.729 339.95 593.705 339.978 593.681C340.179 593.499 340.374 593.323 340.558 593.153C341.137 592.625 341.619 592.182 341.992 591.83C341.998 591.83 342.004 591.818 342.01 591.812C342.13 591.703 342.233 591.6 342.331 591.509C342.331 591.509 342.337 591.509 342.342 591.503C342.635 591.23 342.83 591.048 342.887 590.993L343.1 590.781C343.903 589.907 344.706 589.003 345.487 588.105C345.779 587.771 346.072 587.426 346.37 587.068C346.468 586.952 346.565 586.831 346.663 586.716C346.864 586.473 347.065 586.23 347.277 585.982C347.311 585.939 347.346 585.897 347.386 585.854C360.979 588.512 373.155 586.655 382.289 583.901V616.147V616.153Z" fill="#3E3E3E"/>
<path d="M568.092 464.404C560.558 467.311 549.387 470.12 536.528 468.609C542.123 460.582 546.81 451.846 550.483 442.563C556.869 426.431 559.967 409.449 559.698 392.079C559.537 381.638 558.148 371.276 555.572 361.277L554.729 357.995H502.675L505.268 364.238C509.061 373.369 511.064 383.021 511.219 392.935C511.379 403.176 509.543 413.217 505.756 422.773C501.986 432.292 496.616 440.628 489.759 447.593L489.432 447.908C467.49 442.939 444.31 451.263 429.827 469.507L428.84 470.751V514.694L431.646 515.744C432.174 515.938 438.532 518.231 449.221 518.231C459.911 518.231 475.678 515.822 494.091 506.279C511.655 515.519 529.264 518.086 543.402 518.086C556.083 518.086 565.975 516.023 570.519 514.864L573.738 514.039V462.232L568.086 464.417L568.092 464.404ZM476.728 455.383C477.973 455.383 479.219 455.431 480.464 455.522C478.519 456.912 476.499 458.204 474.422 459.393C464.759 464.914 453.811 467.978 442.841 468.318C452.343 459.957 464.415 455.383 476.734 455.383H476.728ZM437.258 508.087V477.163C437.418 477.169 437.579 477.169 437.745 477.176C438.755 477.218 439.765 477.242 440.775 477.242C453.817 477.242 466.934 473.784 478.421 467.22C483.849 464.119 488.898 460.382 493.437 456.111C493.437 456.111 494.946 454.788 497.878 451.567C498.699 450.663 499.152 450.135 499.381 449.825C505.274 442.927 510.031 435.022 513.525 426.2C517.76 415.504 519.814 404.262 519.636 392.777C519.498 383.913 518.041 375.231 515.298 366.889H548.251C550.133 375.153 551.154 383.658 551.286 392.225C551.538 408.357 548.658 424.138 542.725 439.123C538.726 449.231 533.435 458.647 527.015 467.11C526.688 467.541 526.349 467.972 526.011 468.397L525.603 468.912C524.37 470.472 523.331 471.733 522.327 472.892C521.633 473.693 520.921 474.488 520.21 475.264C518.844 476.545 504.649 489.789 493.282 496.723C492.943 496.912 492.605 497.094 492.266 497.276L492.198 497.312C464.994 511.994 444.464 509.634 437.258 508.075V508.087ZM565.326 506.946C554.31 509.282 529 512.486 502.985 500.807C503.088 500.734 503.191 500.661 503.289 500.588C503.415 500.497 503.547 500.406 503.673 500.315C503.937 500.127 504.207 499.933 504.471 499.739C504.591 499.654 504.712 499.563 504.832 499.478C505.119 499.266 505.406 499.059 505.693 498.847C505.791 498.774 505.888 498.701 505.986 498.635C506.76 498.058 507.529 497.476 508.286 496.887C508.355 496.833 508.418 496.784 508.487 496.73C508.797 496.487 509.107 496.25 509.411 496.008C509.514 495.929 509.618 495.85 509.715 495.765C509.985 495.553 510.255 495.34 510.524 495.122C510.633 495.037 510.742 494.946 510.851 494.861C511.115 494.649 511.385 494.436 511.643 494.224C511.741 494.145 511.844 494.066 511.941 493.981C512.234 493.745 512.521 493.514 512.802 493.277C512.871 493.223 512.934 493.168 513.003 493.114C513.726 492.525 514.426 491.937 515.115 491.366C515.149 491.336 515.183 491.306 515.218 491.275C515.516 491.027 515.815 490.772 516.107 490.529C516.176 490.468 516.245 490.414 516.314 490.353C516.572 490.135 516.83 489.91 517.088 489.698C517.157 489.637 517.226 489.583 517.295 489.522C517.547 489.304 517.8 489.085 518.047 488.873C518.104 488.824 518.161 488.77 518.224 488.721C518.494 488.485 518.758 488.26 519.022 488.029C519.051 488.005 519.079 487.981 519.108 487.957C519.992 487.186 520.812 486.458 521.558 485.797C521.587 485.773 521.615 485.742 521.644 485.718C521.862 485.524 522.069 485.336 522.27 485.154C522.304 485.123 522.333 485.093 522.367 485.063C522.562 484.887 522.752 484.717 522.935 484.547C522.964 484.523 522.987 484.498 523.016 484.474C523.216 484.292 523.411 484.116 523.595 483.946C524.175 483.419 524.657 482.976 525.03 482.624C525.035 482.624 525.041 482.612 525.047 482.606C525.167 482.496 525.27 482.393 525.368 482.302C525.368 482.302 525.374 482.302 525.38 482.296C525.672 482.023 525.867 481.841 525.925 481.786L526.137 481.574C526.94 480.701 527.743 479.797 528.524 478.899C528.816 478.565 529.109 478.219 529.408 477.861C529.505 477.746 529.603 477.625 529.7 477.509C529.901 477.267 530.102 477.024 530.314 476.775C530.348 476.733 530.383 476.69 530.423 476.648C544.016 479.305 556.192 477.449 565.326 474.694V506.94V506.946Z" fill="#3E3E3E"/>
<path d="M718.728 573.611C711.194 576.517 700.022 579.326 687.164 577.815C692.758 569.789 697.446 561.052 701.118 551.77C707.504 535.637 710.603 518.656 710.333 501.286C710.173 490.845 708.784 480.482 706.208 470.484L705.364 467.201H653.311L655.904 473.444C659.697 482.575 661.699 492.228 661.854 502.141C662.015 512.383 660.179 522.423 656.392 531.979C652.622 541.498 647.251 549.834 640.395 556.799L640.068 557.115C618.126 552.146 594.945 560.47 580.463 578.713L579.476 579.957V623.9L582.282 624.95C582.81 625.144 589.167 627.438 599.857 627.438C610.546 627.438 626.314 625.029 644.727 615.485C662.29 624.726 679.9 627.292 694.038 627.292C706.718 627.292 716.61 625.229 721.155 624.07L724.374 623.245V571.439L718.722 573.623L718.728 573.611ZM627.364 564.589C628.609 564.589 629.854 564.638 631.099 564.729C629.154 566.118 627.134 567.41 625.057 568.6C615.395 574.121 604.447 577.184 593.476 577.524C602.978 569.164 615.051 564.589 627.37 564.589H627.364ZM587.893 617.293V586.37C588.054 586.376 588.215 586.376 588.381 586.382C589.391 586.424 590.401 586.449 591.411 586.449C604.453 586.449 617.569 582.991 629.057 576.426C634.485 573.326 639.534 569.588 644.073 565.317C644.073 565.317 645.582 563.995 648.514 560.773C649.334 559.869 649.787 559.341 650.017 559.032C655.91 552.134 660.666 544.228 664.161 535.407C668.395 524.711 670.449 513.469 670.272 501.984C670.134 493.12 668.676 484.438 665.934 476.096H698.886C700.768 484.359 701.789 492.865 701.921 501.432C702.174 517.564 699.294 533.344 693.361 548.33C689.361 558.437 684.071 567.853 677.65 576.317C677.323 576.748 676.985 577.178 676.646 577.603L676.239 578.119C675.005 579.678 673.967 580.94 672.963 582.099C672.268 582.9 671.557 583.694 670.845 584.471C669.48 585.751 655.284 598.995 643.918 605.93C643.579 606.118 643.241 606.3 642.902 606.482L642.833 606.518C615.63 621.201 595.1 618.841 587.893 617.281V617.293ZM715.962 616.153C704.945 618.489 679.636 621.692 653.62 610.013C653.724 609.94 653.827 609.867 653.924 609.795C654.051 609.704 654.183 609.613 654.309 609.522C654.573 609.334 654.843 609.139 655.106 608.945C655.227 608.86 655.347 608.769 655.468 608.684C655.755 608.472 656.042 608.266 656.329 608.053C656.426 607.981 656.524 607.908 656.621 607.841C657.396 607.265 658.165 606.682 658.922 606.094C658.991 606.039 659.054 605.991 659.123 605.936C659.433 605.693 659.743 605.457 660.047 605.214C660.15 605.135 660.253 605.056 660.351 604.971C660.621 604.759 660.89 604.547 661.16 604.328C661.269 604.243 661.378 604.152 661.487 604.067C661.751 603.855 662.021 603.643 662.279 603.43C662.376 603.351 662.48 603.273 662.577 603.188C662.87 602.951 663.157 602.721 663.438 602.484C663.507 602.429 663.57 602.375 663.639 602.32C664.362 601.732 665.062 601.143 665.75 600.573C665.785 600.542 665.819 600.512 665.853 600.482C666.152 600.233 666.45 599.978 666.743 599.736C666.812 599.675 666.881 599.62 666.949 599.56C667.208 599.341 667.466 599.117 667.724 598.904C667.793 598.844 667.862 598.789 667.931 598.728C668.183 598.51 668.435 598.292 668.682 598.079C668.74 598.031 668.797 597.976 668.86 597.928C669.13 597.691 669.394 597.466 669.658 597.236C669.686 597.212 669.715 597.187 669.744 597.163C670.627 596.393 671.448 595.665 672.194 595.003C672.222 594.979 672.251 594.949 672.28 594.924C672.498 594.73 672.704 594.542 672.905 594.36C672.94 594.33 672.968 594.299 673.003 594.269C673.198 594.093 673.387 593.923 673.571 593.753C673.6 593.729 673.622 593.705 673.651 593.681C673.852 593.499 674.047 593.323 674.231 593.153C674.81 592.625 675.292 592.182 675.665 591.83C675.671 591.83 675.677 591.818 675.682 591.812C675.803 591.703 675.906 591.6 676.004 591.509C676.004 591.509 676.009 591.509 676.015 591.503C676.308 591.23 676.503 591.048 676.56 590.993L676.773 590.781C677.576 589.907 678.379 589.003 679.16 588.105C679.452 587.771 679.745 587.426 680.043 587.068C680.141 586.952 680.238 586.831 680.336 586.716C680.537 586.473 680.737 586.23 680.95 585.982C680.984 585.939 681.019 585.897 681.059 585.854C694.652 588.512 706.827 586.655 715.962 583.901V616.147V616.153Z" fill="#3E3E3E"/>
<path d="M901.765 464.404C894.231 467.311 883.059 470.12 870.201 468.609C875.795 460.582 880.483 451.846 884.155 442.563C890.541 426.431 893.64 409.449 893.37 392.079C893.209 381.638 891.821 371.276 889.245 361.277L888.401 357.995H836.347L838.941 364.238C842.734 373.369 844.736 383.021 844.891 392.935C845.052 403.176 843.216 413.217 839.429 422.773C835.659 432.292 830.288 440.628 823.432 447.593L823.105 447.908C801.163 442.939 777.982 451.263 763.5 469.507L762.513 470.751V514.694L765.319 515.744C765.847 515.938 772.204 518.231 782.894 518.231C793.583 518.231 809.351 515.822 827.764 506.279C845.327 515.519 862.937 518.086 877.075 518.086C889.755 518.086 899.647 516.023 904.192 514.864L907.411 514.039V462.232L901.759 464.417L901.765 464.404ZM810.401 455.383C811.646 455.383 812.891 455.431 814.136 455.522C812.191 456.912 810.171 458.204 808.094 459.393C798.432 464.914 787.484 467.978 776.513 468.318C786.015 459.957 798.088 455.383 810.407 455.383H810.401ZM770.93 508.087V477.163C771.091 477.169 771.252 477.169 771.418 477.176C772.428 477.218 773.438 477.242 774.448 477.242C787.49 477.242 800.606 473.784 812.094 467.22C817.522 464.119 822.571 460.382 827.11 456.111C827.11 456.111 828.619 454.788 831.551 451.567C832.371 450.663 832.824 450.135 833.054 449.825C838.947 442.927 843.703 435.022 847.198 426.2C851.432 415.504 853.486 404.262 853.309 392.777C853.171 383.913 851.713 375.231 848.971 366.889H881.923C883.805 375.153 884.826 383.658 884.958 392.225C885.211 408.357 882.331 424.138 876.398 439.123C872.398 449.231 867.108 458.647 860.687 467.11C860.36 467.541 860.022 467.972 859.683 468.397L859.276 468.912C858.042 470.472 857.004 471.733 856 472.892C855.305 473.693 854.594 474.488 853.882 475.264C852.517 476.545 838.321 489.789 826.955 496.723C826.616 496.912 826.278 497.094 825.939 497.276L825.87 497.312C798.667 511.994 778.137 509.634 770.93 508.075V508.087ZM898.999 506.946C887.982 509.282 862.673 512.486 836.657 500.807C836.761 500.734 836.864 500.661 836.961 500.588C837.088 500.497 837.22 500.406 837.346 500.315C837.61 500.127 837.88 499.933 838.143 499.739C838.264 499.654 838.384 499.563 838.505 499.478C838.792 499.266 839.079 499.059 839.366 498.847C839.463 498.774 839.561 498.701 839.658 498.635C840.433 498.058 841.202 497.476 841.959 496.887C842.028 496.833 842.091 496.784 842.16 496.73C842.47 496.487 842.78 496.25 843.084 496.008C843.187 495.929 843.29 495.85 843.388 495.765C843.658 495.553 843.927 495.34 844.197 495.122C844.306 495.037 844.415 494.946 844.524 494.861C844.788 494.649 845.058 494.436 845.316 494.224C845.413 494.145 845.517 494.066 845.614 493.981C845.907 493.745 846.194 493.514 846.475 493.277C846.544 493.223 846.607 493.168 846.676 493.114C847.399 492.525 848.099 491.937 848.787 491.366C848.822 491.336 848.856 491.306 848.89 491.275C849.189 491.027 849.487 490.772 849.78 490.529C849.849 490.468 849.917 490.414 849.986 490.353C850.245 490.135 850.503 489.91 850.761 489.698C850.83 489.637 850.899 489.583 850.967 489.522C851.22 489.304 851.472 489.085 851.719 488.873C851.777 488.824 851.834 488.77 851.897 488.721C852.167 488.485 852.431 488.26 852.695 488.029C852.723 488.005 852.752 487.981 852.781 487.957C853.664 487.186 854.485 486.458 855.231 485.797C855.259 485.773 855.288 485.742 855.317 485.718C855.535 485.524 855.741 485.336 855.942 485.154C855.977 485.123 856.005 485.093 856.04 485.063C856.235 484.887 856.424 484.717 856.608 484.547C856.637 484.523 856.659 484.498 856.688 484.474C856.889 484.292 857.084 484.116 857.268 483.946C857.847 483.419 858.329 482.976 858.702 482.624C858.708 482.624 858.714 482.612 858.719 482.606C858.84 482.496 858.943 482.393 859.041 482.302C859.041 482.302 859.046 482.302 859.052 482.296C859.345 482.023 859.54 481.841 859.597 481.786L859.81 481.574C860.613 480.701 861.416 479.797 862.196 478.899C862.489 478.565 862.782 478.219 863.08 477.861C863.178 477.746 863.275 477.625 863.373 477.509C863.574 477.267 863.774 477.024 863.987 476.775C864.021 476.733 864.056 476.69 864.096 476.648C877.689 479.305 889.864 477.449 898.999 474.694V506.94V506.946Z" fill="#3E3E3E"/>
<path d="M1052.41 573.611C1044.87 576.517 1033.7 579.326 1020.84 577.815C1026.44 569.789 1031.12 561.052 1034.8 551.77C1041.18 535.637 1044.28 518.656 1044.01 501.286C1043.85 490.845 1042.46 480.482 1039.89 470.484L1039.04 467.201H986.989L989.582 473.444C993.375 482.575 995.378 492.228 995.533 502.141C995.693 512.383 993.857 522.423 990.07 531.979C986.3 541.498 980.93 549.834 974.073 556.799L973.746 557.115C951.804 552.146 928.623 560.47 914.141 578.713L913.154 579.957V623.9L915.96 624.95C916.488 625.144 922.846 627.438 933.535 627.438C944.225 627.438 959.992 625.029 978.405 615.485C995.969 624.726 1013.58 627.292 1027.72 627.292C1040.4 627.292 1050.29 625.229 1054.83 624.07L1058.05 623.245V571.439L1052.4 573.623L1052.41 573.611ZM961.042 564.589C962.287 564.589 963.533 564.638 964.778 564.729C962.832 566.118 960.813 567.41 958.736 568.6C949.073 574.121 938.125 577.184 927.155 577.524C936.657 569.164 948.729 564.589 961.048 564.589H961.042ZM921.572 617.293V586.37C921.732 586.376 921.893 586.376 922.059 586.382C923.069 586.424 924.079 586.449 925.089 586.449C938.131 586.449 951.248 582.991 962.735 576.426C968.163 573.326 973.212 569.588 977.751 565.317C977.751 565.317 979.26 563.995 982.192 560.773C983.013 559.869 983.466 559.341 983.695 559.032C989.588 552.134 994.345 544.228 997.839 535.407C1002.07 524.711 1004.13 513.469 1003.95 501.984C1003.81 493.12 1002.35 484.438 999.612 476.096H1032.56C1034.45 484.359 1035.47 492.865 1035.6 501.432C1035.85 517.564 1032.97 533.344 1027.04 548.33C1023.04 558.437 1017.75 567.853 1011.33 576.317C1011 576.748 1010.66 577.178 1010.32 577.603L1009.92 578.119C1008.68 579.678 1007.65 580.94 1006.64 582.099C1005.95 582.9 1005.24 583.694 1004.52 584.471C1003.16 585.751 988.963 598.995 977.596 605.93C977.257 606.118 976.919 606.3 976.58 606.482L976.512 606.518C949.308 621.201 928.778 618.841 921.572 617.281V617.293ZM1049.64 616.153C1038.62 618.489 1013.31 621.692 987.299 610.013C987.402 609.94 987.505 609.867 987.603 609.795C987.729 609.704 987.861 609.613 987.987 609.522C988.251 609.334 988.521 609.139 988.785 608.945C988.905 608.86 989.026 608.769 989.146 608.684C989.433 608.472 989.72 608.266 990.007 608.053C990.105 607.981 990.202 607.908 990.3 607.841C991.074 607.265 991.843 606.682 992.6 606.094C992.669 606.039 992.732 605.991 992.801 605.936C993.111 605.693 993.421 605.457 993.725 605.214C993.828 605.135 993.932 605.056 994.029 604.971C994.299 604.759 994.568 604.547 994.838 604.328C994.947 604.243 995.056 604.152 995.165 604.067C995.429 603.855 995.699 603.643 995.957 603.43C996.055 603.351 996.158 603.273 996.255 603.188C996.548 602.951 996.835 602.721 997.116 602.484C997.185 602.429 997.248 602.375 997.317 602.32C998.04 601.732 998.74 601.143 999.428 600.573C999.463 600.542 999.497 600.512 999.532 600.482C999.83 600.233 1000.13 599.978 1000.42 599.736C1000.49 599.675 1000.56 599.62 1000.63 599.56C1000.89 599.341 1001.14 599.117 1001.4 598.904C1001.47 598.844 1001.54 598.789 1001.61 598.728C1001.86 598.51 1002.11 598.292 1002.36 598.079C1002.42 598.031 1002.48 597.976 1002.54 597.928C1002.81 597.691 1003.07 597.466 1003.34 597.236C1003.36 597.212 1003.39 597.187 1003.42 597.163C1004.31 596.393 1005.13 595.665 1005.87 595.003C1005.9 594.979 1005.93 594.949 1005.96 594.924C1006.18 594.73 1006.38 594.542 1006.58 594.36C1006.62 594.33 1006.65 594.299 1006.68 594.269C1006.88 594.093 1007.07 593.923 1007.25 593.753C1007.28 593.729 1007.3 593.705 1007.33 593.681C1007.53 593.499 1007.73 593.323 1007.91 593.153C1008.49 592.625 1008.97 592.182 1009.34 591.83C1009.35 591.83 1009.35 591.818 1009.36 591.812C1009.48 591.703 1009.58 591.6 1009.68 591.509C1009.68 591.509 1009.69 591.509 1009.69 591.503C1009.99 591.23 1010.18 591.048 1010.24 590.993L1010.45 590.781C1011.25 589.907 1012.06 589.003 1012.84 588.105C1013.13 587.771 1013.42 587.426 1013.72 587.068C1013.82 586.952 1013.92 586.831 1014.01 586.716C1014.21 586.473 1014.42 586.23 1014.63 585.982C1014.66 585.939 1014.7 585.897 1014.74 585.854C1028.33 588.512 1040.51 586.655 1049.64 583.901V616.147V616.153Z" fill="#3E3E3E"/>
<path d="M1235.44 464.404C1227.91 467.311 1216.74 470.12 1203.88 468.609C1209.47 460.582 1214.16 451.846 1217.83 442.563C1224.22 426.431 1227.32 409.449 1227.05 392.079C1226.89 381.638 1225.5 371.276 1222.92 361.277L1222.08 357.995H1170.03L1172.62 364.238C1176.41 373.369 1178.41 383.021 1178.57 392.935C1178.73 403.176 1176.89 413.217 1173.11 422.773C1169.34 432.292 1163.97 440.628 1157.11 447.593L1156.78 447.908C1134.84 442.939 1111.66 451.263 1097.18 469.507L1096.19 470.751V514.694L1099 515.744C1099.53 515.938 1105.88 518.231 1116.57 518.231C1127.26 518.231 1143.03 515.822 1161.44 506.279C1179.01 515.519 1196.62 518.086 1210.75 518.086C1223.43 518.086 1233.33 516.023 1237.87 514.864L1241.09 514.039V462.232L1235.44 464.417L1235.44 464.404ZM1144.08 455.383C1145.32 455.383 1146.57 455.431 1147.81 455.522C1145.87 456.912 1143.85 458.204 1141.77 459.393C1132.11 464.914 1121.16 467.978 1110.19 468.318C1119.69 459.957 1131.77 455.383 1144.09 455.383H1144.08ZM1104.61 508.087V477.163C1104.77 477.169 1104.93 477.169 1105.1 477.176C1106.11 477.218 1107.12 477.242 1108.13 477.242C1121.17 477.242 1134.28 473.784 1145.77 467.22C1151.2 464.119 1156.25 460.382 1160.79 456.111C1160.79 456.111 1162.3 454.788 1165.23 451.567C1166.05 450.663 1166.5 450.135 1166.73 449.825C1172.63 442.927 1177.38 435.022 1180.88 426.2C1185.11 415.504 1187.16 404.262 1186.99 392.777C1186.85 383.913 1185.39 375.231 1182.65 366.889H1215.6C1217.48 375.153 1218.5 383.658 1218.64 392.225C1218.89 408.357 1216.01 424.138 1210.08 439.123C1206.08 449.231 1200.79 458.647 1194.37 467.11C1194.04 467.541 1193.7 467.972 1193.36 468.397L1192.95 468.912C1191.72 470.472 1190.68 471.733 1189.68 472.892C1188.98 473.693 1188.27 474.488 1187.56 475.264C1186.2 476.545 1172 489.789 1160.63 496.723C1160.29 496.912 1159.96 497.094 1159.62 497.276L1159.55 497.312C1132.35 511.994 1111.82 509.634 1104.61 508.075V508.087ZM1232.68 506.946C1221.66 509.282 1196.35 512.486 1170.34 500.807C1170.44 500.734 1170.54 500.661 1170.64 500.588C1170.77 500.497 1170.9 500.406 1171.02 500.315C1171.29 500.127 1171.56 499.933 1171.82 499.739C1171.94 499.654 1172.06 499.563 1172.18 499.478C1172.47 499.266 1172.76 499.059 1173.04 498.847C1173.14 498.774 1173.24 498.701 1173.34 498.635C1174.11 498.058 1174.88 497.476 1175.64 496.887C1175.71 496.833 1175.77 496.784 1175.84 496.73C1176.15 496.487 1176.46 496.25 1176.76 496.008C1176.87 495.929 1176.97 495.85 1177.07 495.765C1177.34 495.553 1177.61 495.34 1177.88 495.122C1177.98 495.037 1178.09 494.946 1178.2 494.861C1178.47 494.649 1178.74 494.436 1178.99 494.224C1179.09 494.145 1179.19 494.066 1179.29 493.981C1179.59 493.745 1179.87 493.514 1180.15 493.277C1180.22 493.223 1180.29 493.168 1180.35 493.114C1181.08 492.525 1181.78 491.937 1182.47 491.366C1182.5 491.336 1182.53 491.306 1182.57 491.275C1182.87 491.027 1183.17 490.772 1183.46 490.529C1183.53 490.468 1183.6 490.414 1183.66 490.353C1183.92 490.135 1184.18 489.91 1184.44 489.698C1184.51 489.637 1184.58 489.583 1184.65 489.522C1184.9 489.304 1185.15 489.085 1185.4 488.873C1185.45 488.824 1185.51 488.77 1185.58 488.721C1185.85 488.485 1186.11 488.26 1186.37 488.029C1186.4 488.005 1186.43 487.981 1186.46 487.957C1187.34 487.186 1188.16 486.458 1188.91 485.797C1188.94 485.773 1188.97 485.742 1189 485.718C1189.21 485.524 1189.42 485.336 1189.62 485.154C1189.65 485.123 1189.68 485.093 1189.72 485.063C1189.91 484.887 1190.1 484.717 1190.29 484.547C1190.31 484.523 1190.34 484.498 1190.37 484.474C1190.57 484.292 1190.76 484.116 1190.95 483.946C1191.53 483.419 1192.01 482.976 1192.38 482.624C1192.39 482.624 1192.39 482.612 1192.4 482.606C1192.52 482.496 1192.62 482.393 1192.72 482.302C1192.72 482.302 1192.72 482.302 1192.73 482.296C1193.02 482.023 1193.22 481.841 1193.28 481.786L1193.49 481.574C1194.29 480.701 1195.09 479.797 1195.87 478.899C1196.17 478.565 1196.46 478.219 1196.76 477.861C1196.86 477.746 1196.95 477.625 1197.05 477.509C1197.25 477.267 1197.45 477.024 1197.67 476.775C1197.7 476.733 1197.73 476.69 1197.77 476.648C1211.37 479.305 1223.54 477.449 1232.68 474.694V506.94V506.946Z" fill="#3E3E3E"/>
</g>
</svg>
