<svg width="328" height="128" viewBox="0 0 328 128" fill="none" xmlns="http://www.w3.org/2000/svg" opacity="0.03">
<path d="M20.809 44.2362C18.8176 45.0077 15.8645 45.7533 12.4656 45.3523C13.9444 43.2216 15.1835 40.9025 16.1542 38.4384C17.8423 34.156 18.6614 29.6482 18.5901 25.0372C18.5476 22.2655 18.1806 19.5148 17.4995 16.8606L17.2766 15.9893H3.51701L4.20256 17.6466C5.20511 20.0704 5.73444 22.6327 5.77539 25.2643C5.81786 27.9829 5.33251 30.6483 4.33149 33.1849C3.33501 35.7118 1.91537 37.9246 0.1029 39.7735L0.0164471 39.8572C-5.78345 38.5382 -11.911 40.7479 -15.7391 45.5907L-16 45.9208V57.5858L-15.2583 57.8645C-15.1188 57.916 -13.4383 58.5248 -10.6126 58.5248C-7.78702 58.5248 -3.6191 57.8854 1.24801 55.352C5.89066 57.8049 10.5454 58.4861 14.2826 58.4861C17.6345 58.4861 20.2493 57.9385 21.4506 57.6309L22.3015 57.4119V43.6597L20.8075 44.2395L20.809 44.2362ZM-3.34155 41.8414C-3.01242 41.8414 -2.68329 41.8543 -2.35417 41.8784C-2.86833 42.2472 -3.40221 42.5903 -3.95126 42.906C-6.5054 44.3715 -9.39928 45.1848 -12.2992 45.275C-9.78756 43.0557 -6.5964 41.8414 -3.34003 41.8414H-3.34155ZM-13.775 55.832V47.6232C-13.7325 47.6248 -13.6901 47.6248 -13.6461 47.6264C-13.3791 47.6377 -13.1122 47.6441 -12.8452 47.6441C-9.39777 47.6441 -5.93057 46.7261 -2.89412 44.9835C-1.45931 44.1605 -0.124606 43.1685 1.07511 42.0347C1.07511 42.0347 1.474 41.6836 2.24904 40.8284C2.46593 40.5884 2.58575 40.4483 2.64642 40.3662C4.20408 38.535 5.46143 36.4365 6.38511 34.0948C7.50444 31.2555 8.04742 28.2712 8.0004 25.2225C7.964 22.8695 7.57876 20.5648 6.85377 18.3504H15.5642C16.0617 20.5439 16.3317 22.8018 16.3666 25.0759C16.4333 29.3583 15.6719 33.5472 14.1036 37.5252C13.0465 40.2083 11.6481 42.7079 9.95089 44.9545C9.86444 45.0689 9.77495 45.1832 9.68547 45.296L9.57778 45.4329C9.25169 45.8468 8.97716 46.1817 8.71174 46.4894C8.52822 46.7019 8.34015 46.9129 8.15207 47.1191C7.7911 47.4589 4.03876 50.9747 1.03416 52.8155C0.944674 52.8654 0.855188 52.9137 0.765701 52.962L0.747501 52.9717C-6.44322 56.8691 -11.87 56.2427 -13.775 55.8288V55.832ZM20.078 55.5292C17.1659 56.1493 10.4757 56.9996 3.59892 53.8994C3.62621 53.88 3.65351 53.8607 3.6793 53.8414C3.71267 53.8172 3.74755 53.7931 3.78092 53.7689C3.85069 53.719 3.92197 53.6674 3.99174 53.6159C4.02359 53.5934 4.05544 53.5692 4.0873 53.5466C4.16313 53.4903 4.23897 53.4355 4.3148 53.3792C4.34059 53.3598 4.36637 53.3405 4.39215 53.3228C4.59691 53.1698 4.80015 53.0152 5.00035 52.859C5.01855 52.8445 5.03524 52.8316 5.05344 52.8171C5.13534 52.7527 5.21724 52.6899 5.29763 52.6254C5.32493 52.6045 5.35223 52.5836 5.37801 52.561C5.4493 52.5046 5.52058 52.4483 5.59187 52.3903C5.62069 52.3677 5.6495 52.3436 5.67832 52.321C5.74809 52.2647 5.81938 52.2083 5.88763 52.1519C5.91341 52.131 5.94071 52.1101 5.9665 52.0875C6.04385 52.0247 6.11968 51.9635 6.194 51.9007C6.2122 51.8862 6.22889 51.8717 6.24709 51.8572C6.43819 51.701 6.62323 51.5448 6.80524 51.3934C6.81434 51.3853 6.82344 51.3773 6.83254 51.3692C6.91141 51.3032 6.99027 51.2356 7.06763 51.1711C7.08583 51.155 7.10403 51.1405 7.12223 51.1244C7.19048 51.0665 7.25873 51.0069 7.32698 50.9505C7.34519 50.9344 7.36339 50.9199 7.38159 50.9038C7.44832 50.8458 7.51506 50.7878 7.58027 50.7315C7.59544 50.7186 7.61061 50.7041 7.62729 50.6912C7.69858 50.6284 7.76835 50.5688 7.83812 50.5076C7.8457 50.5012 7.85328 50.4947 7.86087 50.4883C8.09444 50.2837 8.31133 50.0905 8.5085 49.9149C8.51608 49.9085 8.52367 49.9004 8.53125 49.894C8.58889 49.8425 8.64349 49.7925 8.69657 49.7442C8.70567 49.7362 8.71326 49.7281 8.72236 49.7201C8.77393 49.6734 8.82398 49.6283 8.87251 49.5832C8.8801 49.5767 8.88616 49.5703 8.89375 49.5638C8.94683 49.5155 8.9984 49.4688 9.04693 49.4237C9.20012 49.2836 9.32752 49.166 9.42611 49.0726C9.42763 49.0726 9.42914 49.0694 9.43066 49.0678C9.46251 49.0388 9.48981 49.0114 9.51559 48.9873C9.51559 48.9873 9.51711 48.9873 9.51863 48.9857C9.59598 48.9132 9.64755 48.8649 9.66272 48.8504L9.71884 48.794C9.93118 48.5621 10.1435 48.3221 10.3498 48.0838C10.4271 47.9952 10.5045 47.9034 10.5834 47.8084C10.6091 47.7778 10.6349 47.7456 10.6607 47.715C10.7138 47.6505 10.7669 47.5861 10.823 47.5201C10.8321 47.5088 10.8412 47.4975 10.8518 47.4863C14.4449 48.1917 17.6634 47.6989 20.078 46.9677V55.5276V55.5292Z" fill="#3E3E3E"/>
<path d="M69.192 15.2469C67.2006 16.0183 64.2476 16.764 60.8486 16.363C62.3274 14.2323 63.5666 11.9131 64.5373 9.44902C66.2254 5.16665 67.0444 0.658811 66.9731 -3.95211C66.9306 -6.72381 66.5636 -9.47457 65.8826 -12.1287L65.6596 -13H51.9L52.5856 -11.3428C53.5881 -8.91895 54.1175 -6.35661 54.1584 -3.72502C54.2009 -1.00647 53.7155 1.65894 52.7145 4.19551C51.718 6.72241 50.2984 8.93526 48.4859 10.7841L48.3995 10.8679C42.5996 9.54887 36.4721 11.7585 32.6439 16.6013L32.383 16.9315V28.5965L33.1247 28.8751C33.2642 28.9266 34.9447 29.5354 37.7704 29.5354C40.596 29.5354 44.7639 28.896 49.631 26.3627C54.2737 28.8155 58.9285 29.4968 62.6656 29.4968C66.0176 29.4968 68.6324 28.9492 69.8336 28.6416L70.6845 28.4225V14.6703L69.1905 15.2501L69.192 15.2469ZM45.0415 12.852C45.3706 12.852 45.6997 12.8649 46.0289 12.8891C45.5147 13.2579 44.9808 13.6009 44.4318 13.9166C41.8776 15.3822 38.9837 16.1955 36.0838 16.2857C38.5955 14.0664 41.7866 12.852 45.043 12.852H45.0415ZM34.608 26.8426V18.6338C34.6505 18.6354 34.693 18.6354 34.737 18.637C35.0039 18.6483 35.2708 18.6547 35.5378 18.6547C38.9853 18.6547 42.4525 17.7368 45.4889 15.9942C46.9237 15.1712 48.2584 14.1791 49.4581 13.0453C49.4581 13.0453 49.857 12.6942 50.6321 11.839C50.849 11.5991 50.9688 11.459 51.0294 11.3768C52.5871 9.54565 53.8445 7.44715 54.7681 5.10545C55.8875 2.26611 56.4304 -0.718183 56.3834 -3.7669C56.347 -6.11986 55.9618 -8.42452 55.2368 -10.639H63.9473C64.4447 -8.44545 64.7147 -6.18751 64.7496 -3.91345C64.8163 0.368917 64.0549 4.55788 62.4867 8.53586C61.4295 11.219 60.0311 13.7185 58.3339 15.9652C58.2475 16.0795 58.158 16.1939 58.0685 16.3066L57.9608 16.4435C57.6347 16.8574 57.3602 17.1924 57.0948 17.5C56.9112 17.7126 56.7232 17.9236 56.5351 18.1297C56.1741 18.4695 52.4218 21.9853 49.4172 23.8261C49.3277 23.876 49.2382 23.9244 49.1487 23.9727L49.1305 23.9823C41.9398 27.8798 36.513 27.2533 34.608 26.8394V26.8426ZM68.461 26.5398C65.5489 27.1599 58.8587 28.0103 51.9819 24.91C52.0092 24.8907 52.0365 24.8713 52.0623 24.852C52.0957 24.8279 52.1306 24.8037 52.1639 24.7796C52.2337 24.7296 52.305 24.6781 52.3748 24.6266C52.4066 24.604 52.4385 24.5798 52.4703 24.5573C52.5462 24.5009 52.622 24.4462 52.6978 24.3898C52.7236 24.3705 52.7494 24.3512 52.7752 24.3334C52.9799 24.1804 53.1832 24.0258 53.3834 23.8696C53.4016 23.8551 53.4183 23.8422 53.4365 23.8277C53.5184 23.7633 53.6003 23.7005 53.6807 23.6361C53.708 23.6151 53.7353 23.5942 53.761 23.5717C53.8323 23.5153 53.9036 23.4589 53.9749 23.4009C54.0037 23.3784 54.0325 23.3542 54.0613 23.3317C54.1311 23.2753 54.2024 23.219 54.2707 23.1626C54.2964 23.1417 54.3237 23.1207 54.3495 23.0982C54.4269 23.0354 54.5027 22.9742 54.577 22.9114C54.5952 22.8969 54.6119 22.8824 54.6301 22.8679C54.8212 22.7116 55.0063 22.5554 55.1883 22.404C55.1974 22.396 55.2065 22.3879 55.2156 22.3799C55.2944 22.3138 55.3733 22.2462 55.4507 22.1818C55.4689 22.1657 55.4871 22.1512 55.5053 22.1351C55.5735 22.0771 55.6418 22.0175 55.71 21.9611C55.7282 21.945 55.7464 21.9305 55.7646 21.9144C55.8314 21.8565 55.8981 21.7985 55.9633 21.7421C55.9785 21.7292 55.9936 21.7147 56.0103 21.7019C56.0816 21.639 56.1514 21.5794 56.2211 21.5182C56.2287 21.5118 56.2363 21.5054 56.2439 21.4989C56.4775 21.2944 56.6944 21.1011 56.8915 20.9256C56.8991 20.9191 56.9067 20.9111 56.9143 20.9046C56.9719 20.8531 57.0265 20.8032 57.0796 20.7549C57.0887 20.7468 57.0963 20.7388 57.1054 20.7307C57.157 20.684 57.207 20.6389 57.2555 20.5938C57.2631 20.5874 57.2692 20.5809 57.2768 20.5745C57.3299 20.5262 57.3814 20.4795 57.43 20.4344C57.5832 20.2943 57.7106 20.1767 57.8091 20.0833C57.8107 20.0833 57.8122 20.0801 57.8137 20.0784C57.8455 20.0495 57.8728 20.0221 57.8986 19.9979C57.8986 19.9979 57.9001 19.9979 57.9017 19.9963C57.979 19.9238 58.0306 19.8755 58.0457 19.861L58.1019 19.8047C58.3142 19.5727 58.5265 19.3328 58.7328 19.0944C58.8102 19.0058 58.8875 18.914 58.9664 18.819C58.9922 18.7884 59.018 18.7562 59.0437 18.7256C59.0968 18.6612 59.1499 18.5968 59.206 18.5307C59.2151 18.5195 59.2242 18.5082 59.2348 18.4969C62.8279 19.2023 66.0464 18.7095 68.461 17.9783V26.5382V26.5398Z" fill="#3E3E3E"/>
<path d="M109.012 44.2362C107.02 45.0077 104.067 45.7533 100.668 45.3523C102.147 43.2216 103.386 40.9025 104.357 38.4384C106.045 34.156 106.864 29.6482 106.793 25.0372C106.75 22.2655 106.383 19.5148 105.702 16.8606L105.479 15.9893H91.7197L92.4053 17.6466C93.4078 20.0704 93.9371 22.6327 93.9781 25.2643C94.0206 27.9829 93.5352 30.6483 92.5342 33.1849C91.5377 35.7118 90.1181 37.9246 88.3056 39.7735L88.2192 39.8572C82.4193 38.5382 76.2918 40.7479 72.4636 45.5907L72.2027 45.9208V57.5858L72.9444 57.8645C73.0839 57.916 74.7644 58.5248 77.5901 58.5248C80.4157 58.5248 84.5836 57.8854 89.4507 55.352C94.0934 57.8049 98.7481 58.4861 102.485 58.4861C105.837 58.4861 108.452 57.9385 109.653 57.6309L110.504 57.4119V43.6597L109.01 44.2395L109.012 44.2362ZM84.8612 41.8414C85.1903 41.8414 85.5194 41.8543 85.8485 41.8784C85.3344 42.2472 84.8005 42.5903 84.2514 42.906C81.6973 44.3715 78.8034 45.1848 75.9035 45.275C78.4151 43.0557 81.6063 41.8414 84.8627 41.8414H84.8612ZM74.4277 55.832V47.6232C74.4702 47.6248 74.5126 47.6248 74.5566 47.6264C74.8236 47.6377 75.0905 47.6441 75.3575 47.6441C78.8049 47.6441 82.2721 46.7261 85.3086 44.9835C86.7434 44.1605 88.0781 43.1685 89.2778 42.0347C89.2778 42.0347 89.6767 41.6836 90.4517 40.8284C90.6686 40.5884 90.7885 40.4483 90.8491 40.3662C92.4068 38.535 93.6641 36.4365 94.5878 34.0948C95.7071 31.2555 96.2501 28.2712 96.2031 25.2225C96.1667 22.8695 95.7815 20.5648 95.0565 18.3504H103.767C104.264 20.5439 104.534 22.8018 104.569 25.0759C104.636 29.3583 103.875 33.5472 102.306 37.5252C101.249 40.2083 99.8508 42.7079 98.1536 44.9545C98.0671 45.0689 97.9777 45.1832 97.8882 45.296L97.7805 45.4329C97.4544 45.8468 97.1799 46.1817 96.9144 46.4894C96.7309 46.7019 96.5429 46.9129 96.3548 47.1191C95.9938 47.4589 92.2415 50.9747 89.2369 52.8155C89.1474 52.8654 89.0579 52.9137 88.9684 52.962L88.9502 52.9717C81.7595 56.8691 76.3327 56.2427 74.4277 55.8288V55.832ZM108.281 55.5292C105.369 56.1493 98.6784 56.9996 91.8016 53.8994C91.8289 53.88 91.8562 53.8607 91.882 53.8414C91.9154 53.8172 91.9503 53.7931 91.9836 53.7689C92.0534 53.719 92.1247 53.6674 92.1944 53.6159C92.2263 53.5934 92.2581 53.5692 92.29 53.5466C92.3658 53.4903 92.4417 53.4355 92.5175 53.3792C92.5433 53.3598 92.5691 53.3405 92.5949 53.3228C92.7996 53.1698 93.0029 53.0152 93.2031 52.859C93.2213 52.8445 93.2379 52.8316 93.2561 52.8171C93.338 52.7527 93.4199 52.6899 93.5003 52.6254C93.5276 52.6045 93.5549 52.5836 93.5807 52.561C93.652 52.5046 93.7233 52.4483 93.7946 52.3903C93.8234 52.3677 93.8522 52.3436 93.881 52.321C93.9508 52.2647 94.0221 52.2083 94.0903 52.1519C94.1161 52.131 94.1434 52.1101 94.1692 52.0875C94.2466 52.0247 94.3224 51.9635 94.3967 51.9007C94.4149 51.8862 94.4316 51.8717 94.4498 51.8572C94.6409 51.701 94.8259 51.5448 95.0079 51.3934C95.017 51.3853 95.0261 51.3773 95.0352 51.3692C95.1141 51.3032 95.193 51.2356 95.2703 51.1711C95.2885 51.155 95.3067 51.1405 95.3249 51.1244C95.3932 51.0665 95.4614 51.0069 95.5297 50.9505C95.5479 50.9344 95.5661 50.9199 95.5843 50.9038C95.651 50.8458 95.7178 50.7878 95.783 50.7315C95.7981 50.7186 95.8133 50.7041 95.83 50.6912C95.9013 50.6284 95.9711 50.5688 96.0408 50.5076C96.0484 50.5012 96.056 50.4947 96.0636 50.4883C96.2971 50.2837 96.514 50.0905 96.7112 49.9149C96.7188 49.9085 96.7264 49.9004 96.734 49.894C96.7916 49.8425 96.8462 49.7925 96.8993 49.7442C96.9084 49.7362 96.916 49.7281 96.9251 49.7201C96.9766 49.6734 97.0267 49.6283 97.0752 49.5832C97.0828 49.5767 97.0889 49.5703 97.0964 49.5638C97.1495 49.5155 97.2011 49.4688 97.2496 49.4237C97.4028 49.2836 97.5302 49.166 97.6288 49.0726C97.6303 49.0726 97.6319 49.0694 97.6334 49.0678C97.6652 49.0388 97.6925 49.0114 97.7183 48.9873C97.7183 48.9873 97.7198 48.9873 97.7213 48.9857C97.7987 48.9132 97.8503 48.8649 97.8654 48.8504L97.9215 48.794C98.1339 48.5621 98.3462 48.3221 98.5525 48.0838C98.6298 47.9952 98.7072 47.9034 98.7861 47.8084C98.8118 47.7778 98.8376 47.7456 98.8634 47.715C98.9165 47.6505 98.9696 47.5861 99.0257 47.5201C99.0348 47.5088 99.0439 47.4975 99.0545 47.4863C102.648 48.1917 105.866 47.6989 108.281 46.9677V55.5276V55.5292Z" fill="#3E3E3E"/>
<path d="M157.395 15.2469C155.403 16.0183 152.45 16.764 149.051 16.363C150.53 14.2323 151.769 11.9131 152.74 9.44902C154.428 5.16665 155.247 0.658811 155.176 -3.95211C155.133 -6.72381 154.766 -9.47457 154.085 -12.1287L153.862 -13H140.103L140.788 -11.3428C141.791 -8.91895 142.32 -6.35661 142.361 -3.72502C142.404 -1.00647 141.918 1.65894 140.917 4.19551C139.921 6.72241 138.501 8.93526 136.689 10.7841L136.602 10.8679C130.802 9.54887 124.675 11.7585 120.847 16.6013L120.586 16.9315V28.5965L121.327 28.8751C121.467 28.9266 123.147 29.5354 125.973 29.5354C128.799 29.5354 132.967 28.896 137.834 26.3627C142.476 28.8155 147.131 29.4968 150.868 29.4968C154.22 29.4968 156.835 28.9492 158.036 28.6416L158.887 28.4225V14.6703L157.393 15.2501L157.395 15.2469ZM133.244 12.852C133.573 12.852 133.902 12.8649 134.232 12.8891C133.717 13.2579 133.184 13.6009 132.634 13.9166C130.08 15.3822 127.186 16.1955 124.286 16.2857C126.798 14.0664 129.989 12.852 133.246 12.852H133.244ZM122.811 26.8426V18.6338C122.853 18.6354 122.896 18.6354 122.94 18.637C123.207 18.6483 123.474 18.6547 123.74 18.6547C127.188 18.6547 130.655 17.7368 133.692 15.9942C135.126 15.1712 136.461 14.1791 137.661 13.0453C137.661 13.0453 138.06 12.6942 138.835 11.839C139.052 11.5991 139.171 11.459 139.232 11.3768C140.79 9.54565 142.047 7.44715 142.971 5.10545C144.09 2.26611 144.633 -0.718183 144.586 -3.7669C144.55 -6.11986 144.164 -8.42452 143.439 -10.639H152.15C152.647 -8.44545 152.917 -6.18751 152.952 -3.91345C153.019 0.368917 152.258 4.55788 150.689 8.53586C149.632 11.219 148.234 13.7185 146.537 15.9652C146.45 16.0795 146.361 16.1939 146.271 16.3066L146.164 16.4435C145.837 16.8574 145.563 17.1924 145.297 17.5C145.114 17.7126 144.926 17.9236 144.738 18.1297C144.377 18.4695 140.624 21.9853 137.62 23.8261C137.53 23.876 137.441 23.9244 137.351 23.9727L137.333 23.9823C130.143 27.8798 124.716 27.2533 122.811 26.8394V26.8426ZM156.664 26.5398C153.752 27.1599 147.061 28.0103 140.185 24.91C140.212 24.8907 140.239 24.8713 140.265 24.852C140.298 24.8279 140.333 24.8037 140.367 24.7796C140.436 24.7296 140.508 24.6781 140.577 24.6266C140.609 24.604 140.641 24.5798 140.673 24.5573C140.749 24.5009 140.825 24.4462 140.901 24.3898C140.926 24.3705 140.952 24.3512 140.978 24.3334C141.183 24.1804 141.386 24.0258 141.586 23.8696C141.604 23.8551 141.621 23.8422 141.639 23.8277C141.721 23.7633 141.803 23.7005 141.883 23.6361C141.911 23.6151 141.938 23.5942 141.964 23.5717C142.035 23.5153 142.106 23.4589 142.178 23.4009C142.206 23.3784 142.235 23.3542 142.264 23.3317C142.334 23.2753 142.405 23.219 142.473 23.1626C142.499 23.1417 142.526 23.1207 142.552 23.0982C142.63 23.0354 142.705 22.9742 142.78 22.9114C142.798 22.8969 142.815 22.8824 142.833 22.8679C143.024 22.7116 143.209 22.5554 143.391 22.404C143.4 22.396 143.409 22.3879 143.418 22.3799C143.497 22.3138 143.576 22.2462 143.653 22.1818C143.672 22.1657 143.69 22.1512 143.708 22.1351C143.776 22.0771 143.844 22.0175 143.913 21.9611C143.931 21.945 143.949 21.9305 143.967 21.9144C144.034 21.8565 144.101 21.7985 144.166 21.7421C144.181 21.7292 144.196 21.7147 144.213 21.7019C144.284 21.639 144.354 21.5794 144.424 21.5182C144.431 21.5118 144.439 21.5054 144.447 21.4989C144.68 21.2944 144.897 21.1011 145.094 20.9256C145.102 20.9191 145.109 20.9111 145.117 20.9046C145.175 20.8531 145.229 20.8032 145.282 20.7549C145.291 20.7468 145.299 20.7388 145.308 20.7307C145.36 20.684 145.41 20.6389 145.458 20.5938C145.466 20.5874 145.472 20.5809 145.479 20.5745C145.533 20.5262 145.584 20.4795 145.633 20.4344C145.786 20.2943 145.913 20.1767 146.012 20.0833C146.013 20.0833 146.015 20.0801 146.016 20.0784C146.048 20.0495 146.076 20.0221 146.101 19.9979C146.101 19.9979 146.103 19.9979 146.104 19.9963C146.182 19.9238 146.233 19.8755 146.248 19.861L146.305 19.8047C146.517 19.5727 146.729 19.3328 146.936 19.0944C147.013 19.0058 147.09 18.914 147.169 18.819C147.195 18.7884 147.221 18.7562 147.246 18.7256C147.3 18.6612 147.353 18.5968 147.409 18.5307C147.418 18.5195 147.427 18.5082 147.438 18.4969C151.031 19.2023 154.249 18.7095 156.664 17.9783V26.5382V26.5398Z" fill="#3E3E3E"/>
<path d="M197.213 44.2362C195.221 45.0077 192.268 45.7533 188.869 45.3523C190.348 43.2216 191.587 40.9025 192.558 38.4384C194.246 34.156 195.065 29.6482 194.994 25.0372C194.951 22.2655 194.584 19.5148 193.903 16.8606L193.68 15.9893H179.921L180.606 17.6466C181.609 20.0704 182.138 22.6327 182.179 25.2643C182.222 27.9829 181.736 30.6483 180.735 33.1849C179.739 35.7118 178.319 37.9246 176.507 39.7735L176.42 39.8572C170.62 38.5382 164.493 40.7479 160.665 45.5907L160.404 45.9208V57.5858L161.146 57.8645C161.285 57.916 162.966 58.5248 165.791 58.5248C168.617 58.5248 172.785 57.8854 177.652 55.352C182.295 57.8049 186.949 58.4861 190.687 58.4861C194.038 58.4861 196.653 57.9385 197.854 57.6309L198.705 57.4119V43.6597L197.211 44.2395L197.213 44.2362ZM173.062 41.8414C173.391 41.8414 173.721 41.8543 174.05 41.8784C173.536 42.2472 173.002 42.5903 172.453 42.906C169.898 44.3715 167.005 45.1848 164.105 45.275C166.616 43.0557 169.807 41.8414 173.064 41.8414H173.062ZM162.629 55.832V47.6232C162.671 47.6248 162.714 47.6248 162.758 47.6264C163.025 47.6377 163.292 47.6441 163.559 47.6441C167.006 47.6441 170.473 46.7261 173.51 44.9835C174.945 44.1605 176.279 43.1685 177.479 42.0347C177.479 42.0347 177.878 41.6836 178.653 40.8284C178.87 40.5884 178.99 40.4483 179.05 40.3662C180.608 38.535 181.865 36.4365 182.789 34.0948C183.908 31.2555 184.451 28.2712 184.404 25.2225C184.368 22.8695 183.983 20.5648 183.258 18.3504H191.968C192.466 20.5439 192.736 22.8018 192.77 25.0759C192.837 29.3583 192.076 33.5472 190.508 37.5252C189.45 40.2083 188.052 42.7079 186.355 44.9545C186.268 45.0689 186.179 45.1832 186.089 45.296L185.982 45.4329C185.656 45.8468 185.381 46.1817 185.116 46.4894C184.932 46.7019 184.744 46.9129 184.556 47.1191C184.195 47.4589 180.443 50.9747 177.438 52.8155C177.349 52.8654 177.259 52.9137 177.17 52.962L177.151 52.9717C169.961 56.8691 164.534 56.2427 162.629 55.8288V55.832ZM196.482 55.5292C193.57 56.1493 186.88 56.9996 180.003 53.8994C180.03 53.88 180.057 53.8607 180.083 53.8414C180.117 53.8172 180.151 53.7931 180.185 53.7689C180.255 53.719 180.326 53.6674 180.396 53.6159C180.427 53.5934 180.459 53.5692 180.491 53.5466C180.567 53.4903 180.643 53.4355 180.719 53.3792C180.744 53.3598 180.77 53.3405 180.796 53.3228C181.001 53.1698 181.204 53.0152 181.404 52.859C181.422 52.8445 181.439 52.8316 181.457 52.8171C181.539 52.7527 181.621 52.6899 181.702 52.6254C181.729 52.6045 181.756 52.5836 181.782 52.561C181.853 52.5046 181.924 52.4483 181.996 52.3903C182.025 52.3677 182.053 52.3436 182.082 52.321C182.152 52.2647 182.223 52.2083 182.292 52.1519C182.317 52.131 182.345 52.1101 182.37 52.0875C182.448 52.0247 182.524 51.9635 182.598 51.9007C182.616 51.8862 182.633 51.8717 182.651 51.8572C182.842 51.701 183.027 51.5448 183.209 51.3934C183.218 51.3853 183.227 51.3773 183.236 51.3692C183.315 51.3032 183.394 51.2356 183.472 51.1711C183.49 51.155 183.508 51.1405 183.526 51.1244C183.594 51.0665 183.663 51.0069 183.731 50.9505C183.749 50.9344 183.767 50.9199 183.785 50.9038C183.852 50.8458 183.919 50.7878 183.984 50.7315C183.999 50.7186 184.015 50.7041 184.031 50.6912C184.102 50.6284 184.172 50.5688 184.242 50.5076C184.25 50.5012 184.257 50.4947 184.265 50.4883C184.498 50.2837 184.715 50.0905 184.912 49.9149C184.92 49.9085 184.928 49.9004 184.935 49.894C184.993 49.8425 185.047 49.7925 185.1 49.7442C185.11 49.7362 185.117 49.7281 185.126 49.7201C185.178 49.6734 185.228 49.6283 185.276 49.5832C185.284 49.5767 185.29 49.5703 185.298 49.5638C185.351 49.5155 185.402 49.4688 185.451 49.4237C185.604 49.2836 185.731 49.166 185.83 49.0726C185.832 49.0726 185.833 49.0694 185.835 49.0678C185.866 49.0388 185.894 49.0114 185.919 48.9873C185.919 48.9873 185.921 48.9873 185.923 48.9857C186 48.9132 186.051 48.8649 186.067 48.8504L186.123 48.794C186.335 48.5621 186.547 48.3221 186.754 48.0838C186.831 47.9952 186.908 47.9034 186.987 47.8084C187.013 47.7778 187.039 47.7456 187.065 47.715C187.118 47.6505 187.171 47.5861 187.227 47.5201C187.236 47.5088 187.245 47.4975 187.256 47.4863C190.849 48.1917 194.067 47.6989 196.482 46.9677V55.5276V55.5292Z" fill="#3E3E3E"/>
<path d="M245.596 15.2469C243.604 16.0183 240.651 16.764 237.252 16.363C238.731 14.2323 239.97 11.9131 240.941 9.44902C242.629 5.16665 243.448 0.658811 243.377 -3.95211C243.334 -6.72381 242.967 -9.47457 242.286 -12.1287L242.063 -13H228.304L228.989 -11.3428C229.992 -8.91895 230.521 -6.35661 230.562 -3.72502C230.605 -1.00647 230.119 1.65894 229.118 4.19551C228.122 6.72241 226.702 8.93526 224.89 10.7841L224.803 10.8679C219.003 9.54887 212.876 11.7585 209.048 16.6013L208.787 16.9315V28.5965L209.529 28.8751C209.668 28.9266 211.349 29.5354 214.174 29.5354C217 29.5354 221.168 28.896 226.035 26.3627C230.678 28.8155 235.332 29.4968 239.069 29.4968C242.421 29.4968 245.036 28.9492 246.237 28.6416L247.088 28.4225V14.6703L245.594 15.2501L245.596 15.2469ZM221.445 12.852C221.774 12.852 222.104 12.8649 222.433 12.8891C221.919 13.2579 221.385 13.6009 220.836 13.9166C218.281 15.3822 215.388 16.1955 212.488 16.2857C214.999 14.0664 218.19 12.852 221.447 12.852H221.445ZM211.012 26.8426V18.6338C211.054 18.6354 211.097 18.6354 211.141 18.637C211.408 18.6483 211.675 18.6547 211.942 18.6547C215.389 18.6547 218.856 17.7368 221.893 15.9942C223.328 15.1712 224.662 14.1791 225.862 13.0453C225.862 13.0453 226.261 12.6942 227.036 11.839C227.253 11.5991 227.373 11.459 227.433 11.3768C228.991 9.54565 230.248 7.44715 231.172 5.10545C232.291 2.26611 232.834 -0.718183 232.787 -3.7669C232.751 -6.11986 232.366 -8.42452 231.641 -10.639H240.351C240.849 -8.44545 241.119 -6.18751 241.153 -3.91345C241.22 0.368917 240.459 4.55788 238.891 8.53586C237.833 11.219 236.435 13.7185 234.738 15.9652C234.651 16.0795 234.562 16.1939 234.472 16.3066L234.365 16.4435C234.039 16.8574 233.764 17.1924 233.499 17.5C233.315 17.7126 233.127 17.9236 232.939 18.1297C232.578 18.4695 228.826 21.9853 225.821 23.8261C225.732 23.876 225.642 23.9244 225.553 23.9727L225.534 23.9823C218.344 27.8798 212.917 27.2533 211.012 26.8394V26.8426ZM244.865 26.5398C241.953 27.1599 235.263 28.0103 228.386 24.91C228.413 24.8907 228.44 24.8713 228.466 24.852C228.5 24.8279 228.534 24.8037 228.568 24.7796C228.638 24.7296 228.709 24.6781 228.779 24.6266C228.81 24.604 228.842 24.5798 228.874 24.5573C228.95 24.5009 229.026 24.4462 229.102 24.3898C229.127 24.3705 229.153 24.3512 229.179 24.3334C229.384 24.1804 229.587 24.0258 229.787 23.8696C229.805 23.8551 229.822 23.8422 229.84 23.8277C229.922 23.7633 230.004 23.7005 230.085 23.6361C230.112 23.6151 230.139 23.5942 230.165 23.5717C230.236 23.5153 230.307 23.4589 230.379 23.4009C230.408 23.3784 230.436 23.3542 230.465 23.3317C230.535 23.2753 230.606 23.219 230.675 23.1626C230.7 23.1417 230.728 23.1207 230.753 23.0982C230.831 23.0354 230.907 22.9742 230.981 22.9114C230.999 22.8969 231.016 22.8824 231.034 22.8679C231.225 22.7116 231.41 22.5554 231.592 22.404C231.601 22.396 231.61 22.3879 231.619 22.3799C231.698 22.3138 231.777 22.2462 231.855 22.1818C231.873 22.1657 231.891 22.1512 231.909 22.1351C231.977 22.0771 232.046 22.0175 232.114 21.9611C232.132 21.945 232.15 21.9305 232.168 21.9144C232.235 21.8565 232.302 21.7985 232.367 21.7421C232.382 21.7292 232.397 21.7147 232.414 21.7019C232.485 21.639 232.555 21.5794 232.625 21.5182C232.633 21.5118 232.64 21.5054 232.648 21.4989C232.881 21.2944 233.098 21.1011 233.295 20.9256C233.303 20.9191 233.311 20.9111 233.318 20.9046C233.376 20.8531 233.43 20.8032 233.483 20.7549C233.493 20.7468 233.5 20.7388 233.509 20.7307C233.561 20.684 233.611 20.6389 233.659 20.5938C233.667 20.5874 233.673 20.5809 233.681 20.5745C233.734 20.5262 233.785 20.4795 233.834 20.4344C233.987 20.2943 234.114 20.1767 234.213 20.0833C234.214 20.0833 234.216 20.0801 234.218 20.0784C234.249 20.0495 234.277 20.0221 234.302 19.9979C234.302 19.9979 234.304 19.9979 234.305 19.9963C234.383 19.9238 234.434 19.8755 234.45 19.861L234.506 19.8047C234.718 19.5727 234.93 19.3328 235.137 19.0944C235.214 19.0058 235.291 18.914 235.37 18.819C235.396 18.7884 235.422 18.7562 235.448 18.7256C235.501 18.6612 235.554 18.5968 235.61 18.5307C235.619 18.5195 235.628 18.5082 235.639 18.4969C239.232 19.2023 242.45 18.7095 244.865 17.9783V26.5382V26.5398Z" fill="#3E3E3E"/>
<path d="M285.416 44.2362C283.424 45.0077 280.471 45.7533 277.072 45.3523C278.551 43.2216 279.79 40.9025 280.761 38.4384C282.449 34.156 283.268 29.6482 283.197 25.0372C283.154 22.2655 282.787 19.5148 282.106 16.8606L281.883 15.9893H268.124L268.809 17.6466C269.812 20.0704 270.341 22.6327 270.382 25.2643C270.424 27.9829 269.939 30.6483 268.938 33.1849C267.942 35.7118 266.522 37.9246 264.709 39.7735L264.623 39.8572C258.823 38.5382 252.696 40.7479 248.867 45.5907L248.607 45.9208V57.5858L249.348 57.8645C249.488 57.916 251.168 58.5248 253.994 58.5248C256.82 58.5248 260.987 57.8854 265.855 55.352C270.497 57.8049 275.152 58.4861 278.889 58.4861C282.241 58.4861 284.856 57.9385 286.057 57.6309L286.908 57.4119V43.6597L285.414 44.2395L285.416 44.2362ZM261.265 41.8414C261.594 41.8414 261.923 41.8543 262.252 41.8784C261.738 42.2472 261.204 42.5903 260.655 42.906C258.101 44.3715 255.207 45.1848 252.307 45.275C254.819 43.0557 258.01 41.8414 261.267 41.8414H261.265ZM250.832 55.832V47.6232C250.874 47.6248 250.917 47.6248 250.961 47.6264C251.227 47.6377 251.494 47.6441 251.761 47.6441C255.209 47.6441 258.676 46.7261 261.712 44.9835C263.147 44.1605 264.482 43.1685 265.682 42.0347C265.682 42.0347 266.081 41.6836 266.856 40.8284C267.073 40.5884 267.192 40.4483 267.253 40.3662C268.811 38.535 270.068 36.4365 270.992 34.0948C272.111 31.2555 272.654 28.2712 272.607 25.2225C272.571 22.8695 272.185 20.5648 271.46 18.3504H280.171C280.668 20.5439 280.938 22.8018 280.973 25.0759C281.04 29.3583 280.278 33.5472 278.71 37.5252C277.653 40.2083 276.255 42.7079 274.557 44.9545C274.471 45.0689 274.382 45.1832 274.292 45.296L274.184 45.4329C273.858 45.8468 273.584 46.1817 273.318 46.4894C273.135 46.7019 272.947 46.9129 272.759 47.1191C272.398 47.4589 268.645 50.9747 265.641 52.8155C265.551 52.8654 265.462 52.9137 265.372 52.962L265.354 52.9717C258.163 56.8691 252.737 56.2427 250.832 55.8288V55.832ZM284.685 55.5292C281.772 56.1493 275.082 56.9996 268.205 53.8994C268.233 53.88 268.26 53.8607 268.286 53.8414C268.319 53.8172 268.354 53.7931 268.387 53.7689C268.457 53.719 268.529 53.6674 268.598 53.6159C268.63 53.5934 268.662 53.5692 268.694 53.5466C268.77 53.4903 268.846 53.4355 268.921 53.3792C268.947 53.3598 268.973 53.3405 268.999 53.3228C269.203 53.1698 269.407 53.0152 269.607 52.859C269.625 52.8445 269.642 52.8316 269.66 52.8171C269.742 52.7527 269.824 52.6899 269.904 52.6254C269.932 52.6045 269.959 52.5836 269.985 52.561C270.056 52.5046 270.127 52.4483 270.198 52.3903C270.227 52.3677 270.256 52.3436 270.285 52.321C270.355 52.2647 270.426 52.2083 270.494 52.1519C270.52 52.131 270.547 52.1101 270.573 52.0875C270.65 52.0247 270.726 51.9635 270.801 51.9007C270.819 51.8862 270.835 51.8717 270.854 51.8572C271.045 51.701 271.23 51.5448 271.412 51.3934C271.421 51.3853 271.43 51.3773 271.439 51.3692C271.518 51.3032 271.597 51.2356 271.674 51.1711C271.692 51.155 271.711 51.1405 271.729 51.1244C271.797 51.0665 271.865 51.0069 271.934 50.9505C271.952 50.9344 271.97 50.9199 271.988 50.9038C272.055 50.8458 272.122 50.7878 272.187 50.7315C272.202 50.7186 272.217 50.7041 272.234 50.6912C272.305 50.6284 272.375 50.5688 272.445 50.5076C272.452 50.5012 272.46 50.4947 272.467 50.4883C272.701 50.2837 272.918 50.0905 273.115 49.9149C273.123 49.9085 273.13 49.9004 273.138 49.894C273.195 49.8425 273.25 49.7925 273.303 49.7442C273.312 49.7362 273.32 49.7281 273.329 49.7201C273.38 49.6734 273.431 49.6283 273.479 49.5832C273.487 49.5767 273.493 49.5703 273.5 49.5638C273.553 49.5155 273.605 49.4688 273.654 49.4237C273.807 49.2836 273.934 49.166 274.033 49.0726C274.034 49.0726 274.036 49.0694 274.037 49.0678C274.069 49.0388 274.096 49.0114 274.122 48.9873C274.122 48.9873 274.124 48.9873 274.125 48.9857C274.203 48.9132 274.254 48.8649 274.269 48.8504L274.325 48.794C274.538 48.5621 274.75 48.3221 274.956 48.0838C275.034 47.9952 275.111 47.9034 275.19 47.8084C275.216 47.7778 275.242 47.7456 275.267 47.715C275.32 47.6505 275.373 47.5861 275.43 47.5201C275.439 47.5088 275.448 47.4975 275.458 47.4863C279.051 48.1917 282.27 47.6989 284.685 46.9677V55.5276V55.5292Z" fill="#3E3E3E"/>
<path d="M333.799 15.2469C331.807 16.0183 328.854 16.764 325.455 16.363C326.934 14.2323 328.173 11.9131 329.144 9.44902C330.832 5.16665 331.651 0.658811 331.58 -3.95211C331.537 -6.72381 331.17 -9.47457 330.489 -12.1287L330.266 -13H316.507L317.192 -11.3428C318.195 -8.91895 318.724 -6.35661 318.765 -3.72502C318.807 -1.00647 318.322 1.65894 317.321 4.19551C316.325 6.72241 314.905 8.93526 313.092 10.7841L313.006 10.8679C307.206 9.54887 301.079 11.7585 297.25 16.6013L296.99 16.9315V28.5965L297.731 28.8751C297.871 28.9266 299.551 29.5354 302.377 29.5354C305.203 29.5354 309.37 28.896 314.238 26.3627C318.88 28.8155 323.535 29.4968 327.272 29.4968C330.624 29.4968 333.239 28.9492 334.44 28.6416L335.291 28.4225V14.6703L333.797 15.2501L333.799 15.2469ZM309.648 12.852C309.977 12.852 310.306 12.8649 310.635 12.8891C310.121 13.2579 309.587 13.6009 309.038 13.9166C306.484 15.3822 303.59 16.1955 300.69 16.2857C303.202 14.0664 306.393 12.852 309.65 12.852H309.648ZM299.215 26.8426V18.6338C299.257 18.6354 299.3 18.6354 299.343 18.637C299.61 18.6483 299.877 18.6547 300.144 18.6547C303.592 18.6547 307.059 17.7368 310.095 15.9942C311.53 15.1712 312.865 14.1791 314.065 13.0453C314.065 13.0453 314.464 12.6942 315.239 11.839C315.455 11.5991 315.575 11.459 315.636 11.3768C317.194 9.54565 318.451 7.44715 319.375 5.10545C320.494 2.26611 321.037 -0.718183 320.99 -3.7669C320.954 -6.11986 320.568 -8.42452 319.843 -10.639H328.554C329.051 -8.44545 329.321 -6.18751 329.356 -3.91345C329.423 0.368917 328.662 4.55788 327.093 8.53586C326.036 11.219 324.638 13.7185 322.94 15.9652C322.854 16.0795 322.765 16.1939 322.675 16.3066L322.567 16.4435C322.241 16.8574 321.967 17.1924 321.701 17.5C321.518 17.7126 321.33 17.9236 321.142 18.1297C320.781 18.4695 317.028 21.9853 314.024 23.8261C313.934 23.876 313.845 23.9244 313.755 23.9727L313.737 23.9823C306.546 27.8798 301.12 27.2533 299.215 26.8394V26.8426ZM333.068 26.5398C330.155 27.1599 323.465 28.0103 316.589 24.91C316.616 24.8907 316.643 24.8713 316.669 24.852C316.702 24.8279 316.737 24.8037 316.771 24.7796C316.84 24.7296 316.912 24.6781 316.981 24.6266C317.013 24.604 317.045 24.5798 317.077 24.5573C317.153 24.5009 317.229 24.4462 317.304 24.3898C317.33 24.3705 317.356 24.3512 317.382 24.3334C317.586 24.1804 317.79 24.0258 317.99 23.8696C318.008 23.8551 318.025 23.8422 318.043 23.8277C318.125 23.7633 318.207 23.7005 318.287 23.6361C318.315 23.6151 318.342 23.5942 318.368 23.5717C318.439 23.5153 318.51 23.4589 318.581 23.4009C318.61 23.3784 318.639 23.3542 318.668 23.3317C318.738 23.2753 318.809 23.219 318.877 23.1626C318.903 23.1417 318.93 23.1207 318.956 23.0982C319.033 23.0354 319.109 22.9742 319.184 22.9114C319.202 22.8969 319.218 22.8824 319.237 22.8679C319.428 22.7116 319.613 22.5554 319.795 22.404C319.804 22.396 319.813 22.3879 319.822 22.3799C319.901 22.3138 319.98 22.2462 320.057 22.1818C320.075 22.1657 320.094 22.1512 320.112 22.1351C320.18 22.0771 320.248 22.0175 320.317 21.9611C320.335 21.945 320.353 21.9305 320.371 21.9144C320.438 21.8565 320.505 21.7985 320.57 21.7421C320.585 21.7292 320.6 21.7147 320.617 21.7019C320.688 21.639 320.758 21.5794 320.828 21.5182C320.835 21.5118 320.843 21.5054 320.85 21.4989C321.084 21.2944 321.301 21.1011 321.498 20.9256C321.506 20.9191 321.513 20.9111 321.521 20.9046C321.578 20.8531 321.633 20.8032 321.686 20.7549C321.695 20.7468 321.703 20.7388 321.712 20.7307C321.764 20.684 321.814 20.6389 321.862 20.5938C321.87 20.5874 321.876 20.5809 321.883 20.5745C321.936 20.5262 321.988 20.4795 322.037 20.4344C322.19 20.2943 322.317 20.1767 322.416 20.0833C322.417 20.0833 322.419 20.0801 322.42 20.0784C322.452 20.0495 322.479 20.0221 322.505 19.9979C322.505 19.9979 322.507 19.9979 322.508 19.9963C322.586 19.9238 322.637 19.8755 322.652 19.861L322.708 19.8047C322.921 19.5727 323.133 19.3328 323.339 19.0944C323.417 19.0058 323.494 18.914 323.573 18.819C323.599 18.7884 323.624 18.7562 323.65 18.7256C323.703 18.6612 323.756 18.5968 323.813 18.5307C323.822 18.5195 323.831 18.5082 323.841 18.4969C327.434 19.2023 330.653 18.7095 333.068 17.9783V26.5382V26.5398Z" fill="#3E3E3E"/>
<path d="M20.809 117.368C18.8176 118.14 15.8645 118.885 12.4656 118.484C13.9444 116.354 15.1835 114.035 16.1542 111.57C17.8423 107.288 18.6614 102.78 18.5901 98.1693C18.5476 95.3976 18.1806 92.6468 17.4995 89.9927L17.2766 89.1214H3.51701L4.20256 90.7786C5.20511 93.2025 5.73444 95.7648 5.77539 98.3964C5.81786 101.115 5.33251 103.78 4.33149 106.317C3.33501 108.844 1.91537 111.057 0.1029 112.906L0.0164471 112.989C-5.78345 111.67 -11.911 113.88 -15.7391 118.723L-16 119.053V130.718L-15.2583 130.996C-15.1188 131.048 -13.4383 131.657 -10.6126 131.657C-7.78702 131.657 -3.6191 131.017 1.24801 128.484C5.89066 130.937 10.5454 131.618 14.2826 131.618C17.6345 131.618 20.2493 131.071 21.4506 130.763L22.3015 130.544V116.792L20.8075 117.372L20.809 117.368ZM-3.34155 114.973C-3.01242 114.973 -2.68329 114.986 -2.35417 115.01C-2.86833 115.379 -3.40221 115.722 -3.95126 116.038C-6.5054 117.504 -9.39928 118.317 -12.2992 118.407C-9.78756 116.188 -6.5964 114.973 -3.34003 114.973H-3.34155ZM-13.775 128.964V120.755C-13.7325 120.757 -13.6901 120.757 -13.6461 120.758C-13.3791 120.77 -13.1122 120.776 -12.8452 120.776C-9.39777 120.776 -5.93057 119.858 -2.89412 118.116C-1.45931 117.293 -0.124606 116.301 1.07511 115.167C1.07511 115.167 1.474 114.816 2.24904 113.96C2.46593 113.72 2.58575 113.58 2.64642 113.498C4.20408 111.667 5.46143 109.569 6.38511 107.227C7.50444 104.388 8.04742 101.403 8.0004 98.3545C7.964 96.0015 7.57876 93.6969 6.85377 91.4824H15.5642C16.0617 93.6759 16.3317 95.9339 16.3666 98.2079C16.4333 102.49 15.6719 106.679 14.1036 110.657C13.0465 113.34 11.6481 115.84 9.95089 118.087C9.86444 118.201 9.77495 118.315 9.68547 118.428L9.57778 118.565C9.25169 118.979 8.97716 119.314 8.71174 119.621C8.52822 119.834 8.34015 120.045 8.15207 120.251C7.7911 120.591 4.03876 124.107 1.03416 125.948C0.944674 125.997 0.855188 126.046 0.765701 126.094L0.747501 126.104C-6.44322 130.001 -11.87 129.375 -13.775 128.961V128.964ZM20.078 128.661C17.1659 129.281 10.4757 130.132 3.59892 127.031C3.62621 127.012 3.65351 126.993 3.6793 126.973C3.71267 126.949 3.74755 126.925 3.78092 126.901C3.85069 126.851 3.92197 126.799 3.99174 126.748C4.02359 126.725 4.05544 126.701 4.0873 126.679C4.16313 126.622 4.23897 126.568 4.3148 126.511C4.34059 126.492 4.36637 126.473 4.39215 126.455C4.59691 126.302 4.80015 126.147 5.00035 125.991C5.01855 125.977 5.03524 125.964 5.05344 125.949C5.13534 125.885 5.21724 125.822 5.29763 125.757C5.32493 125.737 5.35223 125.716 5.37801 125.693C5.4493 125.637 5.52058 125.58 5.59187 125.522C5.62069 125.5 5.6495 125.476 5.67832 125.453C5.74809 125.397 5.81938 125.34 5.88763 125.284C5.91341 125.263 5.94071 125.242 5.9665 125.22C6.04385 125.157 6.11968 125.096 6.194 125.033C6.2122 125.018 6.22889 125.004 6.24709 124.989C6.43819 124.833 6.62323 124.677 6.80524 124.525C6.81434 124.517 6.82344 124.509 6.83254 124.501C6.91141 124.435 6.99027 124.368 7.06763 124.303C7.08583 124.287 7.10403 124.273 7.12223 124.256C7.19048 124.198 7.25873 124.139 7.32698 124.083C7.34519 124.066 7.36339 124.052 7.38159 124.036C7.44832 123.978 7.51506 123.92 7.58027 123.864C7.59544 123.851 7.61061 123.836 7.62729 123.823C7.69858 123.76 7.76835 123.701 7.83812 123.64C7.8457 123.633 7.85328 123.627 7.86087 123.62C8.09444 123.416 8.31133 123.223 8.5085 123.047C8.51608 123.041 8.52367 123.032 8.53125 123.026C8.58889 122.974 8.64349 122.925 8.69657 122.876C8.70567 122.868 8.71326 122.86 8.72236 122.852C8.77393 122.805 8.82398 122.76 8.87251 122.715C8.8801 122.709 8.88616 122.702 8.89375 122.696C8.94683 122.648 8.9984 122.601 9.04693 122.556C9.20012 122.416 9.32752 122.298 9.42611 122.205C9.42763 122.205 9.42914 122.201 9.43066 122.2C9.46251 122.171 9.48981 122.143 9.51559 122.119C9.51559 122.119 9.51711 122.119 9.51863 122.118C9.59598 122.045 9.64755 121.997 9.66272 121.982L9.71884 121.926C9.93118 121.694 10.1435 121.454 10.3498 121.216C10.4271 121.127 10.5045 121.035 10.5834 120.94C10.6091 120.91 10.6349 120.878 10.6607 120.847C10.7138 120.783 10.7669 120.718 10.823 120.652C10.8321 120.641 10.8412 120.63 10.8518 120.618C14.4449 121.324 17.6634 120.831 20.078 120.1V128.66V128.661Z" fill="#3E3E3E"/>
<path d="M69.192 88.3789C67.2006 89.1504 64.2476 89.8961 60.8486 89.495C62.3274 87.3643 63.5666 85.0452 64.5373 82.5811C66.2254 78.2987 67.0444 73.7909 66.9731 69.1799C66.9306 66.4082 66.5636 63.6575 65.8826 61.0033L65.6596 60.132H51.9L52.5856 61.7893C53.5881 64.2131 54.1175 66.7754 54.1584 69.407C54.2009 72.1256 53.7155 74.791 52.7145 77.3276C51.718 79.8545 50.2984 82.0673 48.4859 83.9162L48.3995 83.9999C42.5996 82.6809 36.4721 84.8906 32.6439 89.7334L32.383 90.0636V101.729L33.1247 102.007C33.2642 102.059 34.9447 102.667 37.7704 102.667C40.596 102.667 44.7639 102.028 49.631 99.4948C54.2737 101.948 58.9285 102.629 62.6656 102.629C66.0176 102.629 68.6324 102.081 69.8336 101.774L70.6845 101.555V87.8024L69.1905 88.3822L69.192 88.3789ZM45.0415 85.9841C45.3706 85.9841 45.6997 85.997 46.0289 86.0212C45.5147 86.39 44.9808 86.733 44.4318 87.0487C41.8776 88.5142 38.9837 89.3275 36.0838 89.4177C38.5955 87.1984 41.7866 85.9841 45.043 85.9841H45.0415ZM34.608 99.9747V91.7659C34.6505 91.7675 34.693 91.7675 34.737 91.7691C35.0039 91.7804 35.2708 91.7868 35.5378 91.7868C38.9853 91.7868 42.4525 90.8688 45.4889 89.1262C46.9237 88.3033 48.2584 87.3112 49.4581 86.1774C49.4581 86.1774 49.857 85.8263 50.6321 84.9711C50.849 84.7311 50.9688 84.591 51.0294 84.5089C52.5871 82.6777 53.8445 80.5792 54.7681 78.2375C55.8875 75.3982 56.4304 72.4139 56.3834 69.3652C56.347 67.0122 55.9618 64.7075 55.2368 62.4931H63.9473C64.4447 64.6866 64.7147 66.9445 64.7496 69.2186C64.8163 73.501 64.0549 77.6899 62.4867 81.6679C61.4295 84.351 60.0311 86.8506 58.3339 89.0972C58.2475 89.2116 58.158 89.3259 58.0685 89.4387L57.9608 89.5756C57.6347 89.9895 57.3602 90.3245 57.0948 90.6321C56.9112 90.8446 56.7232 91.0556 56.5351 91.2618C56.1741 91.6016 52.4218 95.1174 49.4172 96.9582C49.3277 97.0081 49.2382 97.0564 49.1487 97.1047L49.1305 97.1144C41.9398 101.012 36.513 100.385 34.608 99.9715V99.9747ZM68.461 99.6719C65.5489 100.292 58.8587 101.142 51.9819 98.0421C52.0092 98.0227 52.0365 98.0034 52.0623 97.9841C52.0957 97.9599 52.1306 97.9358 52.1639 97.9116C52.2337 97.8617 52.305 97.8101 52.3748 97.7586C52.4066 97.7361 52.4385 97.7119 52.4703 97.6894C52.5462 97.633 52.622 97.5782 52.6978 97.5219C52.7236 97.5025 52.7494 97.4832 52.7752 97.4655C52.9799 97.3125 53.1832 97.1579 53.3834 97.0017C53.4016 96.9872 53.4183 96.9743 53.4365 96.9598C53.5184 96.8954 53.6003 96.8326 53.6807 96.7681C53.708 96.7472 53.7353 96.7263 53.761 96.7037C53.8323 96.6474 53.9036 96.591 53.9749 96.533C54.0037 96.5105 54.0325 96.4863 54.0613 96.4638C54.1311 96.4074 54.2024 96.351 54.2707 96.2947C54.2964 96.2737 54.3237 96.2528 54.3495 96.2302C54.4269 96.1674 54.5027 96.1062 54.577 96.0434C54.5952 96.0289 54.6119 96.0144 54.6301 95.9999C54.8212 95.8437 55.0063 95.6875 55.1883 95.5361C55.1974 95.528 55.2065 95.52 55.2156 95.5119C55.2944 95.4459 55.3733 95.3783 55.4507 95.3138C55.4689 95.2977 55.4871 95.2832 55.5053 95.2671C55.5735 95.2092 55.6418 95.1496 55.71 95.0932C55.7282 95.0771 55.7464 95.0626 55.7646 95.0465C55.8314 94.9885 55.8981 94.9305 55.9633 94.8742C55.9785 94.8613 55.9936 94.8468 56.0103 94.8339C56.0816 94.7711 56.1514 94.7115 56.2211 94.6503C56.2287 94.6439 56.2363 94.6374 56.2439 94.631C56.4775 94.4264 56.6944 94.2332 56.8915 94.0576C56.8991 94.0512 56.9067 94.0431 56.9143 94.0367C56.9719 93.9852 57.0265 93.9352 57.0796 93.8869C57.0887 93.8789 57.0963 93.8708 57.1054 93.8628C57.157 93.8161 57.207 93.771 57.2555 93.7259C57.2631 93.7194 57.2692 93.713 57.2768 93.7065C57.3299 93.6582 57.3814 93.6115 57.43 93.5664C57.5832 93.4263 57.7106 93.3088 57.8091 93.2153C57.8107 93.2153 57.8122 93.2121 57.8137 93.2105C57.8455 93.1815 57.8728 93.1541 57.8986 93.13C57.8986 93.13 57.9001 93.13 57.9017 93.1284C57.979 93.0559 58.0306 93.0076 58.0457 92.9931L58.1019 92.9367C58.3142 92.7048 58.5265 92.4648 58.7328 92.2265C58.8102 92.1379 58.8875 92.0461 58.9664 91.9511C58.9922 91.9205 59.018 91.8883 59.0437 91.8577C59.0968 91.7933 59.1499 91.7288 59.206 91.6628C59.2151 91.6515 59.2242 91.6402 59.2348 91.629C62.8279 92.3344 66.0464 91.8416 68.461 91.1104V99.6703V99.6719Z" fill="#3E3E3E"/>
<path d="M109.012 117.368C107.02 118.14 104.067 118.885 100.668 118.484C102.147 116.354 103.386 114.035 104.357 111.57C106.045 107.288 106.864 102.78 106.793 98.1693C106.75 95.3976 106.383 92.6468 105.702 89.9927L105.479 89.1214H91.7197L92.4053 90.7786C93.4078 93.2025 93.9371 95.7648 93.9781 98.3964C94.0206 101.115 93.5352 103.78 92.5342 106.317C91.5377 108.844 90.1181 111.057 88.3056 112.906L88.2192 112.989C82.4193 111.67 76.2918 113.88 72.4636 118.723L72.2027 119.053V130.718L72.9444 130.996C73.0839 131.048 74.7644 131.657 77.5901 131.657C80.4157 131.657 84.5836 131.017 89.4507 128.484C94.0934 130.937 98.7481 131.618 102.485 131.618C105.837 131.618 108.452 131.071 109.653 130.763L110.504 130.544V116.792L109.01 117.372L109.012 117.368ZM84.8612 114.973C85.1903 114.973 85.5194 114.986 85.8485 115.01C85.3344 115.379 84.8005 115.722 84.2514 116.038C81.6973 117.504 78.8034 118.317 75.9035 118.407C78.4151 116.188 81.6063 114.973 84.8627 114.973H84.8612ZM74.4277 128.964V120.755C74.4702 120.757 74.5126 120.757 74.5566 120.758C74.8236 120.77 75.0905 120.776 75.3575 120.776C78.8049 120.776 82.2721 119.858 85.3086 118.116C86.7434 117.293 88.0781 116.301 89.2778 115.167C89.2778 115.167 89.6767 114.816 90.4517 113.96C90.6686 113.72 90.7885 113.58 90.8491 113.498C92.4068 111.667 93.6641 109.569 94.5878 107.227C95.7071 104.388 96.2501 101.403 96.2031 98.3545C96.1667 96.0015 95.7815 93.6969 95.0565 91.4824H103.767C104.264 93.6759 104.534 95.9339 104.569 98.2079C104.636 102.49 103.875 106.679 102.306 110.657C101.249 113.34 99.8508 115.84 98.1536 118.087C98.0671 118.201 97.9777 118.315 97.8882 118.428L97.7805 118.565C97.4544 118.979 97.1799 119.314 96.9144 119.621C96.7309 119.834 96.5429 120.045 96.3548 120.251C95.9938 120.591 92.2415 124.107 89.2369 125.948C89.1474 125.997 89.0579 126.046 88.9684 126.094L88.9502 126.104C81.7595 130.001 76.3327 129.375 74.4277 128.961V128.964ZM108.281 128.661C105.369 129.281 98.6784 130.132 91.8016 127.031C91.8289 127.012 91.8562 126.993 91.882 126.973C91.9154 126.949 91.9503 126.925 91.9836 126.901C92.0534 126.851 92.1247 126.799 92.1944 126.748C92.2263 126.725 92.2581 126.701 92.29 126.679C92.3658 126.622 92.4417 126.568 92.5175 126.511C92.5433 126.492 92.5691 126.473 92.5949 126.455C92.7996 126.302 93.0029 126.147 93.2031 125.991C93.2213 125.977 93.2379 125.964 93.2561 125.949C93.338 125.885 93.4199 125.822 93.5003 125.757C93.5276 125.737 93.5549 125.716 93.5807 125.693C93.652 125.637 93.7233 125.58 93.7946 125.522C93.8234 125.5 93.8522 125.476 93.881 125.453C93.9508 125.397 94.0221 125.34 94.0903 125.284C94.1161 125.263 94.1434 125.242 94.1692 125.22C94.2466 125.157 94.3224 125.096 94.3967 125.033C94.4149 125.018 94.4316 125.004 94.4498 124.989C94.6409 124.833 94.8259 124.677 95.0079 124.525C95.017 124.517 95.0261 124.509 95.0352 124.501C95.1141 124.435 95.193 124.368 95.2703 124.303C95.2885 124.287 95.3067 124.273 95.3249 124.256C95.3932 124.198 95.4614 124.139 95.5297 124.083C95.5479 124.066 95.5661 124.052 95.5843 124.036C95.651 123.978 95.7178 123.92 95.783 123.864C95.7981 123.851 95.8133 123.836 95.83 123.823C95.9013 123.76 95.9711 123.701 96.0408 123.64C96.0484 123.633 96.056 123.627 96.0636 123.62C96.2971 123.416 96.514 123.223 96.7112 123.047C96.7188 123.041 96.7264 123.032 96.734 123.026C96.7916 122.974 96.8462 122.925 96.8993 122.876C96.9084 122.868 96.916 122.86 96.9251 122.852C96.9766 122.805 97.0267 122.76 97.0752 122.715C97.0828 122.709 97.0889 122.702 97.0964 122.696C97.1495 122.648 97.2011 122.601 97.2496 122.556C97.4028 122.416 97.5302 122.298 97.6288 122.205C97.6303 122.205 97.6319 122.201 97.6334 122.2C97.6652 122.171 97.6925 122.143 97.7183 122.119C97.7183 122.119 97.7198 122.119 97.7213 122.118C97.7987 122.045 97.8503 121.997 97.8654 121.982L97.9215 121.926C98.1339 121.694 98.3462 121.454 98.5525 121.216C98.6298 121.127 98.7072 121.035 98.7861 120.94C98.8118 120.91 98.8376 120.878 98.8634 120.847C98.9165 120.783 98.9696 120.718 99.0257 120.652C99.0348 120.641 99.0439 120.63 99.0545 120.618C102.648 121.324 105.866 120.831 108.281 120.1V128.66V128.661Z" fill="#3E3E3E"/>
<path d="M157.395 88.3789C155.403 89.1504 152.45 89.8961 149.051 89.495C150.53 87.3643 151.769 85.0452 152.74 82.5811C154.428 78.2987 155.247 73.7909 155.176 69.1799C155.133 66.4082 154.766 63.6575 154.085 61.0033L153.862 60.132H140.103L140.788 61.7893C141.791 64.2131 142.32 66.7754 142.361 69.407C142.404 72.1256 141.918 74.791 140.917 77.3276C139.921 79.8545 138.501 82.0673 136.689 83.9162L136.602 83.9999C130.802 82.6809 124.675 84.8906 120.847 89.7334L120.586 90.0636V101.729L121.327 102.007C121.467 102.059 123.147 102.667 125.973 102.667C128.799 102.667 132.967 102.028 137.834 99.4948C142.476 101.948 147.131 102.629 150.868 102.629C154.22 102.629 156.835 102.081 158.036 101.774L158.887 101.555V87.8024L157.393 88.3822L157.395 88.3789ZM133.244 85.9841C133.573 85.9841 133.902 85.997 134.232 86.0212C133.717 86.39 133.184 86.733 132.634 87.0487C130.08 88.5142 127.186 89.3275 124.286 89.4177C126.798 87.1984 129.989 85.9841 133.246 85.9841H133.244ZM122.811 99.9747V91.7659C122.853 91.7675 122.896 91.7675 122.94 91.7691C123.207 91.7804 123.474 91.7868 123.74 91.7868C127.188 91.7868 130.655 90.8688 133.692 89.1262C135.126 88.3033 136.461 87.3112 137.661 86.1774C137.661 86.1774 138.06 85.8263 138.835 84.9711C139.052 84.7311 139.171 84.591 139.232 84.5089C140.79 82.6777 142.047 80.5792 142.971 78.2375C144.09 75.3982 144.633 72.4139 144.586 69.3652C144.55 67.0122 144.164 64.7075 143.439 62.4931H152.15C152.647 64.6866 152.917 66.9445 152.952 69.2186C153.019 73.501 152.258 77.6899 150.689 81.6679C149.632 84.351 148.234 86.8506 146.537 89.0972C146.45 89.2116 146.361 89.3259 146.271 89.4387L146.164 89.5756C145.837 89.9895 145.563 90.3245 145.297 90.6321C145.114 90.8446 144.926 91.0556 144.738 91.2618C144.377 91.6016 140.624 95.1174 137.62 96.9582C137.53 97.0081 137.441 97.0564 137.351 97.1047L137.333 97.1144C130.143 101.012 124.716 100.385 122.811 99.9715V99.9747ZM156.664 99.6719C153.752 100.292 147.061 101.142 140.185 98.0421C140.212 98.0227 140.239 98.0034 140.265 97.9841C140.298 97.9599 140.333 97.9358 140.367 97.9116C140.436 97.8617 140.508 97.8101 140.577 97.7586C140.609 97.7361 140.641 97.7119 140.673 97.6894C140.749 97.633 140.825 97.5782 140.901 97.5219C140.926 97.5025 140.952 97.4832 140.978 97.4655C141.183 97.3125 141.386 97.1579 141.586 97.0017C141.604 96.9872 141.621 96.9743 141.639 96.9598C141.721 96.8954 141.803 96.8326 141.883 96.7681C141.911 96.7472 141.938 96.7263 141.964 96.7037C142.035 96.6474 142.106 96.591 142.178 96.533C142.206 96.5105 142.235 96.4863 142.264 96.4638C142.334 96.4074 142.405 96.351 142.473 96.2947C142.499 96.2737 142.526 96.2528 142.552 96.2302C142.63 96.1674 142.705 96.1062 142.78 96.0434C142.798 96.0289 142.815 96.0144 142.833 95.9999C143.024 95.8437 143.209 95.6875 143.391 95.5361C143.4 95.528 143.409 95.52 143.418 95.5119C143.497 95.4459 143.576 95.3783 143.653 95.3138C143.672 95.2977 143.69 95.2832 143.708 95.2671C143.776 95.2092 143.844 95.1496 143.913 95.0932C143.931 95.0771 143.949 95.0626 143.967 95.0465C144.034 94.9885 144.101 94.9305 144.166 94.8742C144.181 94.8613 144.196 94.8468 144.213 94.8339C144.284 94.7711 144.354 94.7115 144.424 94.6503C144.431 94.6439 144.439 94.6374 144.447 94.631C144.68 94.4264 144.897 94.2332 145.094 94.0576C145.102 94.0512 145.109 94.0431 145.117 94.0367C145.175 93.9852 145.229 93.9352 145.282 93.8869C145.291 93.8789 145.299 93.8708 145.308 93.8628C145.36 93.8161 145.41 93.771 145.458 93.7259C145.466 93.7194 145.472 93.713 145.479 93.7065C145.533 93.6582 145.584 93.6115 145.633 93.5664C145.786 93.4263 145.913 93.3088 146.012 93.2153C146.013 93.2153 146.015 93.2121 146.016 93.2105C146.048 93.1815 146.076 93.1541 146.101 93.13C146.101 93.13 146.103 93.13 146.104 93.1284C146.182 93.0559 146.233 93.0076 146.248 92.9931L146.305 92.9367C146.517 92.7048 146.729 92.4648 146.936 92.2265C147.013 92.1379 147.09 92.0461 147.169 91.9511C147.195 91.9205 147.221 91.8883 147.246 91.8577C147.3 91.7933 147.353 91.7288 147.409 91.6628C147.418 91.6515 147.427 91.6402 147.438 91.629C151.031 92.3344 154.249 91.8416 156.664 91.1104V99.6703V99.6719Z" fill="#3E3E3E"/>
<path d="M197.213 117.368C195.221 118.14 192.268 118.885 188.869 118.484C190.348 116.354 191.587 114.035 192.558 111.57C194.246 107.288 195.065 102.78 194.994 98.1693C194.951 95.3976 194.584 92.6468 193.903 89.9927L193.68 89.1214H179.921L180.606 90.7786C181.609 93.2025 182.138 95.7648 182.179 98.3964C182.222 101.115 181.736 103.78 180.735 106.317C179.739 108.844 178.319 111.057 176.507 112.906L176.42 112.989C170.62 111.67 164.493 113.88 160.665 118.723L160.404 119.053V130.718L161.146 130.996C161.285 131.048 162.966 131.657 165.791 131.657C168.617 131.657 172.785 131.017 177.652 128.484C182.295 130.937 186.949 131.618 190.687 131.618C194.038 131.618 196.653 131.071 197.854 130.763L198.705 130.544V116.792L197.211 117.372L197.213 117.368ZM173.062 114.973C173.391 114.973 173.721 114.986 174.05 115.01C173.536 115.379 173.002 115.722 172.453 116.038C169.898 117.504 167.005 118.317 164.105 118.407C166.616 116.188 169.807 114.973 173.064 114.973H173.062ZM162.629 128.964V120.755C162.671 120.757 162.714 120.757 162.758 120.758C163.025 120.77 163.292 120.776 163.559 120.776C167.006 120.776 170.473 119.858 173.51 118.116C174.945 117.293 176.279 116.301 177.479 115.167C177.479 115.167 177.878 114.816 178.653 113.96C178.87 113.72 178.99 113.58 179.05 113.498C180.608 111.667 181.865 109.569 182.789 107.227C183.908 104.388 184.451 101.403 184.404 98.3545C184.368 96.0015 183.983 93.6969 183.258 91.4824H191.968C192.466 93.6759 192.736 95.9339 192.77 98.2079C192.837 102.49 192.076 106.679 190.508 110.657C189.45 113.34 188.052 115.84 186.355 118.087C186.268 118.201 186.179 118.315 186.089 118.428L185.982 118.565C185.656 118.979 185.381 119.314 185.116 119.621C184.932 119.834 184.744 120.045 184.556 120.251C184.195 120.591 180.443 124.107 177.438 125.948C177.349 125.997 177.259 126.046 177.17 126.094L177.151 126.104C169.961 130.001 164.534 129.375 162.629 128.961V128.964ZM196.482 128.661C193.57 129.281 186.88 130.132 180.003 127.031C180.03 127.012 180.057 126.993 180.083 126.973C180.117 126.949 180.151 126.925 180.185 126.901C180.255 126.851 180.326 126.799 180.396 126.748C180.427 126.725 180.459 126.701 180.491 126.679C180.567 126.622 180.643 126.568 180.719 126.511C180.744 126.492 180.77 126.473 180.796 126.455C181.001 126.302 181.204 126.147 181.404 125.991C181.422 125.977 181.439 125.964 181.457 125.949C181.539 125.885 181.621 125.822 181.702 125.757C181.729 125.737 181.756 125.716 181.782 125.693C181.853 125.637 181.924 125.58 181.996 125.522C182.025 125.5 182.053 125.476 182.082 125.453C182.152 125.397 182.223 125.34 182.292 125.284C182.317 125.263 182.345 125.242 182.37 125.22C182.448 125.157 182.524 125.096 182.598 125.033C182.616 125.018 182.633 125.004 182.651 124.989C182.842 124.833 183.027 124.677 183.209 124.525C183.218 124.517 183.227 124.509 183.236 124.501C183.315 124.435 183.394 124.368 183.472 124.303C183.49 124.287 183.508 124.273 183.526 124.256C183.594 124.198 183.663 124.139 183.731 124.083C183.749 124.066 183.767 124.052 183.785 124.036C183.852 123.978 183.919 123.92 183.984 123.864C183.999 123.851 184.015 123.836 184.031 123.823C184.102 123.76 184.172 123.701 184.242 123.64C184.25 123.633 184.257 123.627 184.265 123.62C184.498 123.416 184.715 123.223 184.912 123.047C184.92 123.041 184.928 123.032 184.935 123.026C184.993 122.974 185.047 122.925 185.1 122.876C185.11 122.868 185.117 122.86 185.126 122.852C185.178 122.805 185.228 122.76 185.276 122.715C185.284 122.709 185.29 122.702 185.298 122.696C185.351 122.648 185.402 122.601 185.451 122.556C185.604 122.416 185.731 122.298 185.83 122.205C185.832 122.205 185.833 122.201 185.835 122.2C185.866 122.171 185.894 122.143 185.919 122.119C185.919 122.119 185.921 122.119 185.923 122.118C186 122.045 186.051 121.997 186.067 121.982L186.123 121.926C186.335 121.694 186.547 121.454 186.754 121.216C186.831 121.127 186.908 121.035 186.987 120.94C187.013 120.91 187.039 120.878 187.065 120.847C187.118 120.783 187.171 120.718 187.227 120.652C187.236 120.641 187.245 120.63 187.256 120.618C190.849 121.324 194.067 120.831 196.482 120.1V128.66V128.661Z" fill="#3E3E3E"/>
<path d="M245.596 88.3789C243.604 89.1504 240.651 89.8961 237.252 89.495C238.731 87.3643 239.97 85.0452 240.941 82.5811C242.629 78.2987 243.448 73.7909 243.377 69.1799C243.334 66.4082 242.967 63.6575 242.286 61.0033L242.063 60.132H228.304L228.989 61.7893C229.992 64.2131 230.521 66.7754 230.562 69.407C230.605 72.1256 230.119 74.791 229.118 77.3276C228.122 79.8545 226.702 82.0673 224.89 83.9162L224.803 83.9999C219.003 82.6809 212.876 84.8906 209.048 89.7334L208.787 90.0636V101.729L209.529 102.007C209.668 102.059 211.349 102.667 214.174 102.667C217 102.667 221.168 102.028 226.035 99.4948C230.678 101.948 235.332 102.629 239.069 102.629C242.421 102.629 245.036 102.081 246.237 101.774L247.088 101.555V87.8024L245.594 88.3822L245.596 88.3789ZM221.445 85.9841C221.774 85.9841 222.104 85.997 222.433 86.0212C221.919 86.39 221.385 86.733 220.836 87.0487C218.281 88.5142 215.388 89.3275 212.488 89.4177C214.999 87.1984 218.19 85.9841 221.447 85.9841H221.445ZM211.012 99.9747V91.7659C211.054 91.7675 211.097 91.7675 211.141 91.7691C211.408 91.7804 211.675 91.7868 211.942 91.7868C215.389 91.7868 218.856 90.8688 221.893 89.1262C223.328 88.3033 224.662 87.3112 225.862 86.1774C225.862 86.1774 226.261 85.8263 227.036 84.9711C227.253 84.7311 227.373 84.591 227.433 84.5089C228.991 82.6777 230.248 80.5792 231.172 78.2375C232.291 75.3982 232.834 72.4139 232.787 69.3652C232.751 67.0122 232.366 64.7075 231.641 62.4931H240.351C240.849 64.6866 241.119 66.9445 241.153 69.2186C241.22 73.501 240.459 77.6899 238.891 81.6679C237.833 84.351 236.435 86.8506 234.738 89.0972C234.651 89.2116 234.562 89.3259 234.472 89.4387L234.365 89.5756C234.039 89.9895 233.764 90.3245 233.499 90.6321C233.315 90.8446 233.127 91.0556 232.939 91.2618C232.578 91.6016 228.826 95.1174 225.821 96.9582C225.732 97.0081 225.642 97.0564 225.553 97.1047L225.534 97.1144C218.344 101.012 212.917 100.385 211.012 99.9715V99.9747ZM244.865 99.6719C241.953 100.292 235.263 101.142 228.386 98.0421C228.413 98.0227 228.44 98.0034 228.466 97.9841C228.5 97.9599 228.534 97.9358 228.568 97.9116C228.638 97.8617 228.709 97.8101 228.779 97.7586C228.81 97.7361 228.842 97.7119 228.874 97.6894C228.95 97.633 229.026 97.5782 229.102 97.5219C229.127 97.5025 229.153 97.4832 229.179 97.4655C229.384 97.3125 229.587 97.1579 229.787 97.0017C229.805 96.9872 229.822 96.9743 229.84 96.9598C229.922 96.8954 230.004 96.8326 230.085 96.7681C230.112 96.7472 230.139 96.7263 230.165 96.7037C230.236 96.6474 230.307 96.591 230.379 96.533C230.408 96.5105 230.436 96.4863 230.465 96.4638C230.535 96.4074 230.606 96.351 230.675 96.2947C230.7 96.2737 230.728 96.2528 230.753 96.2302C230.831 96.1674 230.907 96.1062 230.981 96.0434C230.999 96.0289 231.016 96.0144 231.034 95.9999C231.225 95.8437 231.41 95.6875 231.592 95.5361C231.601 95.528 231.61 95.52 231.619 95.5119C231.698 95.4459 231.777 95.3783 231.855 95.3138C231.873 95.2977 231.891 95.2832 231.909 95.2671C231.977 95.2092 232.046 95.1496 232.114 95.0932C232.132 95.0771 232.15 95.0626 232.168 95.0465C232.235 94.9885 232.302 94.9305 232.367 94.8742C232.382 94.8613 232.397 94.8468 232.414 94.8339C232.485 94.7711 232.555 94.7115 232.625 94.6503C232.633 94.6439 232.64 94.6374 232.648 94.631C232.881 94.4264 233.098 94.2332 233.295 94.0576C233.303 94.0512 233.311 94.0431 233.318 94.0367C233.376 93.9852 233.43 93.9352 233.483 93.8869C233.493 93.8789 233.5 93.8708 233.509 93.8628C233.561 93.8161 233.611 93.771 233.659 93.7259C233.667 93.7194 233.673 93.713 233.681 93.7065C233.734 93.6582 233.785 93.6115 233.834 93.5664C233.987 93.4263 234.114 93.3088 234.213 93.2153C234.214 93.2153 234.216 93.2121 234.218 93.2105C234.249 93.1815 234.277 93.1541 234.302 93.13C234.302 93.13 234.304 93.13 234.305 93.1284C234.383 93.0559 234.434 93.0076 234.45 92.9931L234.506 92.9367C234.718 92.7048 234.93 92.4648 235.137 92.2265C235.214 92.1379 235.291 92.0461 235.37 91.9511C235.396 91.9205 235.422 91.8883 235.448 91.8577C235.501 91.7933 235.554 91.7288 235.61 91.6628C235.619 91.6515 235.628 91.6402 235.639 91.629C239.232 92.3344 242.45 91.8416 244.865 91.1104V99.6703V99.6719Z" fill="#3E3E3E"/>
<path d="M285.416 117.368C283.424 118.14 280.471 118.885 277.072 118.484C278.551 116.354 279.79 114.035 280.761 111.57C282.449 107.288 283.268 102.78 283.197 98.1693C283.154 95.3976 282.787 92.6468 282.106 89.9927L281.883 89.1214H268.124L268.809 90.7786C269.812 93.2025 270.341 95.7648 270.382 98.3964C270.424 101.115 269.939 103.78 268.938 106.317C267.942 108.844 266.522 111.057 264.709 112.906L264.623 112.989C258.823 111.67 252.696 113.88 248.867 118.723L248.607 119.053V130.718L249.348 130.996C249.488 131.048 251.168 131.657 253.994 131.657C256.82 131.657 260.987 131.017 265.855 128.484C270.497 130.937 275.152 131.618 278.889 131.618C282.241 131.618 284.856 131.071 286.057 130.763L286.908 130.544V116.792L285.414 117.372L285.416 117.368ZM261.265 114.973C261.594 114.973 261.923 114.986 262.252 115.01C261.738 115.379 261.204 115.722 260.655 116.038C258.101 117.504 255.207 118.317 252.307 118.407C254.819 116.188 258.01 114.973 261.267 114.973H261.265ZM250.832 128.964V120.755C250.874 120.757 250.917 120.757 250.961 120.758C251.227 120.77 251.494 120.776 251.761 120.776C255.209 120.776 258.676 119.858 261.712 118.116C263.147 117.293 264.482 116.301 265.682 115.167C265.682 115.167 266.081 114.816 266.856 113.96C267.073 113.72 267.192 113.58 267.253 113.498C268.811 111.667 270.068 109.569 270.992 107.227C272.111 104.388 272.654 101.403 272.607 98.3545C272.571 96.0015 272.185 93.6969 271.46 91.4824H280.171C280.668 93.6759 280.938 95.9339 280.973 98.2079C281.04 102.49 280.278 106.679 278.71 110.657C277.653 113.34 276.255 115.84 274.557 118.087C274.471 118.201 274.382 118.315 274.292 118.428L274.184 118.565C273.858 118.979 273.584 119.314 273.318 119.621C273.135 119.834 272.947 120.045 272.759 120.251C272.398 120.591 268.645 124.107 265.641 125.948C265.551 125.997 265.462 126.046 265.372 126.094L265.354 126.104C258.163 130.001 252.737 129.375 250.832 128.961V128.964ZM284.685 128.661C281.772 129.281 275.082 130.132 268.205 127.031C268.233 127.012 268.26 126.993 268.286 126.973C268.319 126.949 268.354 126.925 268.387 126.901C268.457 126.851 268.529 126.799 268.598 126.748C268.63 126.725 268.662 126.701 268.694 126.679C268.77 126.622 268.846 126.568 268.921 126.511C268.947 126.492 268.973 126.473 268.999 126.455C269.203 126.302 269.407 126.147 269.607 125.991C269.625 125.977 269.642 125.964 269.66 125.949C269.742 125.885 269.824 125.822 269.904 125.757C269.932 125.737 269.959 125.716 269.985 125.693C270.056 125.637 270.127 125.58 270.198 125.522C270.227 125.5 270.256 125.476 270.285 125.453C270.355 125.397 270.426 125.34 270.494 125.284C270.52 125.263 270.547 125.242 270.573 125.22C270.65 125.157 270.726 125.096 270.801 125.033C270.819 125.018 270.835 125.004 270.854 124.989C271.045 124.833 271.23 124.677 271.412 124.525C271.421 124.517 271.43 124.509 271.439 124.501C271.518 124.435 271.597 124.368 271.674 124.303C271.692 124.287 271.711 124.273 271.729 124.256C271.797 124.198 271.865 124.139 271.934 124.083C271.952 124.066 271.97 124.052 271.988 124.036C272.055 123.978 272.122 123.92 272.187 123.864C272.202 123.851 272.217 123.836 272.234 123.823C272.305 123.76 272.375 123.701 272.445 123.64C272.452 123.633 272.46 123.627 272.467 123.62C272.701 123.416 272.918 123.223 273.115 123.047C273.123 123.041 273.13 123.032 273.138 123.026C273.195 122.974 273.25 122.925 273.303 122.876C273.312 122.868 273.32 122.86 273.329 122.852C273.38 122.805 273.431 122.76 273.479 122.715C273.487 122.709 273.493 122.702 273.5 122.696C273.553 122.648 273.605 122.601 273.654 122.556C273.807 122.416 273.934 122.298 274.033 122.205C274.034 122.205 274.036 122.201 274.037 122.2C274.069 122.171 274.096 122.143 274.122 122.119C274.122 122.119 274.124 122.119 274.125 122.118C274.203 122.045 274.254 121.997 274.269 121.982L274.325 121.926C274.538 121.694 274.75 121.454 274.956 121.216C275.034 121.127 275.111 121.035 275.19 120.94C275.216 120.91 275.242 120.878 275.267 120.847C275.32 120.783 275.373 120.718 275.43 120.652C275.439 120.641 275.448 120.63 275.458 120.618C279.051 121.324 282.27 120.831 284.685 120.1V128.66V128.661Z" fill="#3E3E3E"/>
<path d="M333.799 88.3789C331.807 89.1504 328.854 89.8961 325.455 89.495C326.934 87.3643 328.173 85.0452 329.144 82.5811C330.832 78.2987 331.651 73.7909 331.58 69.1799C331.537 66.4082 331.17 63.6575 330.489 61.0033L330.266 60.132H316.507L317.192 61.7893C318.195 64.2131 318.724 66.7754 318.765 69.407C318.807 72.1256 318.322 74.791 317.321 77.3276C316.325 79.8545 314.905 82.0673 313.092 83.9162L313.006 83.9999C307.206 82.6809 301.079 84.8906 297.25 89.7334L296.99 90.0636V101.729L297.731 102.007C297.871 102.059 299.551 102.667 302.377 102.667C305.203 102.667 309.37 102.028 314.238 99.4948C318.88 101.948 323.535 102.629 327.272 102.629C330.624 102.629 333.239 102.081 334.44 101.774L335.291 101.555V87.8024L333.797 88.3822L333.799 88.3789ZM309.648 85.9841C309.977 85.9841 310.306 85.997 310.635 86.0212C310.121 86.39 309.587 86.733 309.038 87.0487C306.484 88.5142 303.59 89.3275 300.69 89.4177C303.202 87.1984 306.393 85.9841 309.65 85.9841H309.648ZM299.215 99.9747V91.7659C299.257 91.7675 299.3 91.7675 299.343 91.7691C299.61 91.7804 299.877 91.7868 300.144 91.7868C303.592 91.7868 307.059 90.8688 310.095 89.1262C311.53 88.3033 312.865 87.3112 314.065 86.1774C314.065 86.1774 314.464 85.8263 315.239 84.9711C315.455 84.7311 315.575 84.591 315.636 84.5089C317.194 82.6777 318.451 80.5792 319.375 78.2375C320.494 75.3982 321.037 72.4139 320.99 69.3652C320.954 67.0122 320.568 64.7075 319.843 62.4931H328.554C329.051 64.6866 329.321 66.9445 329.356 69.2186C329.423 73.501 328.662 77.6899 327.093 81.6679C326.036 84.351 324.638 86.8506 322.94 89.0972C322.854 89.2116 322.765 89.3259 322.675 89.4387L322.567 89.5756C322.241 89.9895 321.967 90.3245 321.701 90.6321C321.518 90.8446 321.33 91.0556 321.142 91.2618C320.781 91.6016 317.028 95.1174 314.024 96.9582C313.934 97.0081 313.845 97.0564 313.755 97.1047L313.737 97.1144C306.546 101.012 301.12 100.385 299.215 99.9715V99.9747ZM333.068 99.6719C330.155 100.292 323.465 101.142 316.589 98.0421C316.616 98.0227 316.643 98.0034 316.669 97.9841C316.702 97.9599 316.737 97.9358 316.771 97.9116C316.84 97.8617 316.912 97.8101 316.981 97.7586C317.013 97.7361 317.045 97.7119 317.077 97.6894C317.153 97.633 317.229 97.5782 317.304 97.5219C317.33 97.5025 317.356 97.4832 317.382 97.4655C317.586 97.3125 317.79 97.1579 317.99 97.0017C318.008 96.9872 318.025 96.9743 318.043 96.9598C318.125 96.8954 318.207 96.8326 318.287 96.7681C318.315 96.7472 318.342 96.7263 318.368 96.7037C318.439 96.6474 318.51 96.591 318.581 96.533C318.61 96.5105 318.639 96.4863 318.668 96.4638C318.738 96.4074 318.809 96.351 318.877 96.2947C318.903 96.2737 318.93 96.2528 318.956 96.2302C319.033 96.1674 319.109 96.1062 319.184 96.0434C319.202 96.0289 319.218 96.0144 319.237 95.9999C319.428 95.8437 319.613 95.6875 319.795 95.5361C319.804 95.528 319.813 95.52 319.822 95.5119C319.901 95.4459 319.98 95.3783 320.057 95.3138C320.075 95.2977 320.094 95.2832 320.112 95.2671C320.18 95.2092 320.248 95.1496 320.317 95.0932C320.335 95.0771 320.353 95.0626 320.371 95.0465C320.438 94.9885 320.505 94.9305 320.57 94.8742C320.585 94.8613 320.6 94.8468 320.617 94.8339C320.688 94.7711 320.758 94.7115 320.828 94.6503C320.835 94.6439 320.843 94.6374 320.85 94.631C321.084 94.4264 321.301 94.2332 321.498 94.0576C321.506 94.0512 321.513 94.0431 321.521 94.0367C321.578 93.9852 321.633 93.9352 321.686 93.8869C321.695 93.8789 321.703 93.8708 321.712 93.8628C321.764 93.8161 321.814 93.771 321.862 93.7259C321.87 93.7194 321.876 93.713 321.883 93.7065C321.936 93.6582 321.988 93.6115 322.037 93.5664C322.19 93.4263 322.317 93.3088 322.416 93.2153C322.417 93.2153 322.419 93.2121 322.42 93.2105C322.452 93.1815 322.479 93.1541 322.505 93.13C322.505 93.13 322.507 93.13 322.508 93.1284C322.586 93.0559 322.637 93.0076 322.652 92.9931L322.708 92.9367C322.921 92.7048 323.133 92.4648 323.339 92.2265C323.417 92.1379 323.494 92.0461 323.573 91.9511C323.599 91.9205 323.624 91.8883 323.65 91.8577C323.703 91.7933 323.756 91.7288 323.813 91.6628C323.822 91.6515 323.831 91.6402 323.841 91.629C327.434 92.3344 330.653 91.8416 333.068 91.1104V99.6703V99.6719Z" fill="#3E3E3E"/>
</svg>
