<svg xmlns="http://www.w3.org/2000/svg" width="196" height="60" viewBox="0 0 196 60" fill="none">
  <path d="M75.9465 21.0595L74.9666 14.9015L72.2313 20.9298H71.8779L69.1403 14.9061L68.1536 21.0595H66.7446L68.1191 12.5639H69.4776L72.0431 18.3419L74.6201 12.5639H75.997L77.3508 21.0595H75.9419H75.9465Z" fill="#3E3E3E"/>
  <path d="M83.067 21.2194C81.284 21.2194 80.1137 20.0564 80.1137 18.2933V14.5053H81.4469V18.1033C81.4469 19.2408 82.0619 19.9336 83.0647 19.9336C84.0675 19.9336 84.6802 19.2293 84.6802 18.1033V14.5053H86.0158V18.2933C86.0158 20.0564 84.8592 21.2194 83.067 21.2194Z" fill="#3E3E3E"/>
  <path d="M92.7508 14.3571C94.2699 14.3571 95.2176 15.4992 95.2176 17.114V21.0595H93.8821V17.3874C93.8821 16.1966 93.3681 15.5641 92.3928 15.5641C91.4176 15.5641 90.6488 16.3912 90.6488 17.5496V21.0595H89.3133V14.5053H90.2427L90.502 15.4205C90.993 14.7602 91.7939 14.3571 92.7485 14.3571H92.7508Z" fill="#3E3E3E"/>
  <path d="M98.5129 12.1005H99.892V13.4906H98.5129V12.1005ZM98.5358 14.5053H99.8714V21.0595H98.5358V14.5053Z" fill="#3E3E3E"/>
  <path d="M106.196 21.2194C104.261 21.2194 102.793 19.7343 102.793 17.7766C102.793 15.819 104.257 14.3478 106.198 14.3478C107.802 14.3478 109.057 15.3394 109.417 16.843H108.096C107.754 16.09 107.042 15.6336 106.196 15.6336C105.028 15.6336 104.151 16.565 104.151 17.7813C104.151 18.9976 105.039 19.9359 106.196 19.9359C107.045 19.9359 107.733 19.4725 108.086 18.6756H109.434C109.076 20.2069 107.8 21.2217 106.196 21.2217V21.2194Z" fill="#3E3E3E"/>
  <path d="M112.228 12.1005H113.608V13.4906H112.228V12.1005ZM112.251 14.5053H113.587V21.0595H112.251V14.5053Z" fill="#3E3E3E"/>
  <path d="M120.476 14.3455C122.419 14.3455 123.838 15.8097 123.838 17.7813C123.838 19.7529 122.417 21.2217 120.476 21.2217C119.636 21.2217 118.89 20.9275 118.321 20.427V23.4064H116.985V14.503H117.885L118.135 15.307C118.723 14.7023 119.54 14.3432 120.476 14.3432V14.3455ZM122.488 17.7813C122.488 16.5464 121.593 15.6313 120.37 15.6313C119.147 15.6313 118.243 16.5557 118.243 17.7813C118.243 19.0069 119.145 19.9312 120.37 19.9312C121.596 19.9312 122.488 19.0161 122.488 17.7813Z" fill="#3E3E3E"/>
  <path d="M133.234 21.0572H132.158L132.027 20.2602C131.44 20.8603 130.618 21.2194 129.673 21.2194C127.739 21.2194 126.293 19.7436 126.293 17.779C126.293 15.8143 127.739 14.3455 129.673 14.3455C130.63 14.3455 131.458 14.7092 132.048 15.3209L132.204 14.5007H133.234V21.0572ZM131.897 17.779C131.897 16.5441 131.002 15.629 129.779 15.629C128.555 15.629 127.651 16.5534 127.651 17.779C127.651 19.0045 128.553 19.9289 129.779 19.9289C131.004 19.9289 131.897 19.0138 131.897 17.779Z" fill="#3E3E3E"/>
  <path d="M136.64 12.1561H137.973V21.0595H136.64V12.1561Z" fill="#3E3E3E"/>
  <path d="M141.356 12.1005H142.735V13.4906H141.356V12.1005ZM141.378 14.5053H142.712V21.0595H141.378V14.5053Z" fill="#3E3E3E"/>
  <path d="M152.483 12.1561V21.0595H151.473L151.301 20.3158C150.716 20.8834 149.919 21.2217 149.008 21.2217C147.046 21.2217 145.633 19.7459 145.633 17.7813C145.633 15.8166 147.044 14.3455 149.008 14.3455C149.841 14.3455 150.58 14.6258 151.147 15.1077V12.1561H152.483ZM149.114 19.9336C150.337 19.9336 151.241 19.0022 151.241 17.7836C151.241 16.565 150.339 15.6336 149.114 15.6336C147.889 15.6336 146.996 16.5487 146.996 17.7836C146.996 19.0184 147.891 19.9336 149.114 19.9336Z" fill="#3E3E3E"/>
  <path d="M162.35 21.0572H161.274L161.143 20.2602C160.556 20.8603 159.734 21.2194 158.789 21.2194C156.854 21.2194 155.408 19.7436 155.408 17.779C155.408 15.8143 156.854 14.3455 158.789 14.3455C159.746 14.3455 160.574 14.7092 161.164 15.3209L161.32 14.5007H162.35V21.0572ZM161.012 17.779C161.012 16.5441 160.117 15.629 158.894 15.629C157.671 15.629 156.767 16.5534 156.767 17.779C156.767 19.0045 157.669 19.9289 158.894 19.9289C160.12 19.9289 161.012 19.0138 161.012 17.779Z" fill="#3E3E3E"/>
  <path d="M172.126 12.1561V21.0595H171.116L170.944 20.3158C170.359 20.8834 169.562 21.2217 168.651 21.2217C166.689 21.2217 165.276 19.7459 165.276 17.7813C165.276 15.8166 166.687 14.3455 168.651 14.3455C169.484 14.3455 170.223 14.6258 170.79 15.1077V12.1561H172.126ZM168.757 19.9336C169.98 19.9336 170.884 19.0022 170.884 17.7836C170.884 16.565 169.982 15.6336 168.757 15.6336C167.532 15.6336 166.639 16.5487 166.639 17.7836C166.639 19.0184 167.534 19.9336 168.757 19.9336Z" fill="#3E3E3E"/>
  <path d="M186.429 12.1561V21.0595H185.419L185.247 20.3158C184.662 20.8834 183.865 21.2217 182.954 21.2217C180.992 21.2217 179.579 19.7459 179.579 17.7813C179.579 15.8166 180.99 14.3455 182.954 14.3455C183.787 14.3455 184.526 14.6258 185.093 15.1077V12.1561H186.429ZM183.06 19.9336C184.283 19.9336 185.187 19.0022 185.187 17.7836C185.187 16.565 184.285 15.6336 183.06 15.6336C181.835 15.6336 180.942 16.5487 180.942 17.7836C180.942 19.0184 181.837 19.9336 183.06 19.9336Z" fill="#3E3E3E"/>
  <path d="M196 17.7998C196 17.9481 195.989 18.094 195.972 18.2423H190.704C190.871 19.3034 191.629 19.9567 192.691 19.9567C193.467 19.9567 194.095 19.5953 194.437 18.9976H195.842C195.325 20.3807 194.139 21.2217 192.691 21.2217C190.793 21.2217 189.354 19.7436 189.354 17.7859C189.354 15.8282 190.789 14.3501 192.691 14.3501C194.593 14.3501 196 15.8954 196 17.8021V17.7998ZM192.691 15.5641C191.688 15.5641 190.956 16.1757 190.738 17.1465H194.664C194.426 16.1503 193.682 15.5641 192.693 15.5641H192.691Z" fill="#3E3E3E"/>
  <path d="M72.089 30.5977H67.8621V54.3818H82.7664V50.7074H72.089V30.5977Z" fill="#3E3E3E"/>
  <path d="M99.0131 44.7556C99.0131 46.2869 98.5106 47.5843 97.5215 48.606C96.5302 49.6301 95.2727 50.1513 93.788 50.1513C92.3033 50.1513 91.0458 49.6324 90.0522 48.606C89.0632 47.5843 88.5606 46.2893 88.5606 44.7556V30.6325H84.3337V44.7556C84.3337 47.45 85.2562 49.7552 87.0759 51.6086C88.8933 53.4597 91.1514 54.4003 93.788 54.4003C96.4247 54.4003 98.6804 53.462 100.5 51.6086C102.32 49.7552 103.242 47.45 103.242 44.7556V30.6325H99.0154V44.7556H99.0131Z" fill="#3E3E3E"/>
  <path d="M117.656 30.6325C114.431 30.6325 111.636 31.8048 109.344 34.1169C107.054 36.429 105.893 39.2578 105.893 42.5245C105.893 46.6345 107.667 49.9637 111.166 52.4218L121.18 60L123.686 56.5735L120.411 54.0968L120.923 53.9393C123.411 53.1724 125.469 51.736 127.039 49.6741C128.606 47.6145 129.4 45.2096 129.4 42.5245C129.4 39.2578 128.241 36.429 125.956 34.1169C123.67 31.8048 120.877 30.6325 117.653 30.6325H117.656ZM122.97 47.8971C121.506 49.3799 119.718 50.1328 117.656 50.1328C115.593 50.1328 113.787 49.3799 112.325 47.8971C110.861 46.4144 110.12 44.6073 110.12 42.5245C110.12 40.4417 110.861 38.6161 112.325 37.1334C113.789 35.6506 115.581 34.8977 117.656 34.8977C119.73 34.8977 121.506 35.6506 122.97 37.1334C124.434 38.6161 125.175 40.4301 125.175 42.5245C125.175 44.6189 124.434 46.4144 122.97 47.8971Z" fill="#3E3E3E"/>
  <path d="M146.831 44.7556C146.831 46.2869 146.328 47.582 145.339 48.606C144.348 49.6301 143.093 50.1513 141.606 50.1513C140.119 50.1513 138.861 49.6324 137.87 48.606C136.881 47.5843 136.378 46.2893 136.378 44.7556V30.6325H132.151V44.7556C132.151 47.45 133.074 49.7552 134.894 51.6086C136.711 53.4597 138.969 54.4003 141.606 54.4003C144.242 54.4003 146.498 53.462 148.318 51.6086C150.137 49.7552 151.06 47.45 151.06 44.7556V30.6325H146.833V44.7556H146.831Z" fill="#3E3E3E"/>
  <path d="M165.175 30.5653C158.6 30.5653 153.644 35.6761 153.644 42.455C153.644 49.2339 158.6 54.3447 165.175 54.3447C170.072 54.3447 174.065 51.6179 175.93 47.026H171.513C170.207 49.1876 167.908 50.4224 165.175 50.4224C161.281 50.4224 158.483 48.0083 157.875 44.1208L157.825 43.8034H176.545C176.582 43.4234 176.616 42.9693 176.616 42.5129V42.3345C176.534 35.507 171.749 30.5699 165.175 30.5699V30.5653ZM157.919 40.4765L157.995 40.1405C158.802 36.5518 161.554 34.3231 165.175 34.3231C168.835 34.3231 171.54 36.4962 172.417 40.1382L172.5 40.4788H157.921L157.919 40.4765Z" fill="#3E3E3E"/>
  <path d="M36.6193 39.9135C36.1971 40.4232 35.7657 40.9282 35.3205 41.4217C35.0314 41.7414 34.7377 42.0542 34.4393 42.3646C34.4393 42.3646 28.5579 47.6863 23.8033 50.4502C23.6495 50.5313 23.4981 50.6101 23.3466 50.6865C35.8093 57.2847 48.4831 54.961 52.1868 54.0598V38.7481C48.0815 40.261 42.6292 41.2572 36.6216 39.9135H36.6193Z" fill="#FF2745"/>
  <path d="M16.5817 36.8229C18.5621 35.7433 20.3795 34.4551 22.0157 32.984C22.018 32.9817 22.0226 32.977 22.0226 32.977C14.0369 30.9221 5.41098 33.6188 0 40.1289C5.68176 40.7429 11.5058 39.5915 16.5817 36.8229Z" fill="#FFB900"/>
  <path d="M34.4393 42.3646C34.7377 42.0542 35.0314 41.7414 35.3205 41.4217C35.768 40.9306 36.1971 40.4255 36.6193 39.9135C36.8075 39.6864 36.9982 39.4616 37.1818 39.2299C39.7335 36.0189 41.8263 32.4626 43.4188 28.6214C45.7732 22.9406 46.916 16.961 46.8173 10.8447C46.7577 7.1541 46.246 3.52602 45.2959 -0.00244141H29.0882C30.6257 3.52833 31.4358 7.2653 31.4977 11.0996C31.562 15.0659 30.8185 18.9511 29.2856 22.6464C27.6219 26.6614 25.162 30.1481 22.0388 32.963C22.0342 32.963 22.0319 32.9607 22.0273 32.9584L22.0228 32.9723C22.0228 32.9723 22.0251 32.9723 22.0273 32.9723C22.0273 32.9723 22.0228 32.9769 22.0205 32.9793C20.3843 34.4504 18.5669 35.7385 16.5865 36.8182C11.5106 39.5867 5.68656 40.7382 0.00480096 40.1242V54.428C0.00480096 54.428 9.49811 57.8221 23.3514 50.6841C23.5029 50.6053 23.6543 50.5289 23.8081 50.4478C28.5627 47.6839 34.4441 42.3622 34.4441 42.3622L34.4393 42.3646Z" fill="#00C3A8"/>
</svg>