<svg xmlns="http://www.w3.org/2000/svg" width="29" height="29" viewBox="0 0 29 29" fill="none">
<path fill-rule="evenodd" clip-rule="evenodd" d="M24.6724 4.19668C23.3373 2.86103 21.7513 1.80262 20.0056 1.08239C18.2599 0.362155 16.389 -0.00567699 14.5006 6.62302e-05C6.57534 6.62302e-05 0.123771 6.4194 0.120548 14.3111C0.117042 16.824 0.779433 19.2929 2.04029 21.4666L0 28.88L7.62288 26.89C9.73294 28.0331 12.095 28.6314 14.4948 28.6305H14.5006C22.4251 28.6305 28.8761 22.2105 28.8799 14.3195C28.8847 12.4375 28.5152 10.5733 27.7929 8.83548C27.0705 7.09763 26.0098 5.52078 24.6724 4.19668ZM14.5006 26.2151H14.4954C12.3561 26.2157 10.2557 25.6432 8.41257 24.557L7.97615 24.2992L3.4527 25.4802L4.66011 21.0908L4.37583 20.6396C3.17962 18.7457 2.54585 16.5511 2.54827 14.3111C2.54827 7.75317 7.91233 2.41747 14.5051 2.41747C17.6677 2.41182 20.703 3.66262 22.9435 5.89474C25.184 8.12687 26.4461 11.1575 26.4522 14.3201C26.4496 20.8787 21.0882 26.2151 14.5006 26.2151ZM21.0559 17.3068C20.6969 17.1275 18.9286 16.2624 18.6011 16.1432C18.2736 16.0239 18.0319 15.964 17.7927 16.3224C17.5536 16.6808 16.8645 17.4827 16.655 17.7245C16.4454 17.9662 16.2359 17.9927 15.8769 17.8134C15.5178 17.6342 14.3594 17.2571 12.9869 16.0387C11.9188 15.0905 11.1981 13.9198 10.9886 13.562C10.779 13.2043 10.966 13.0102 11.1458 12.8323C11.3077 12.6718 11.5049 12.4146 11.6848 12.2057C11.8646 11.9968 11.9246 11.8473 12.0438 11.6088C12.1631 11.3703 12.1038 11.1614 12.0142 10.9828C11.9246 10.8043 11.2058 9.04374 10.9067 8.32754C10.6147 7.63004 10.3188 7.7248 10.0983 7.71385C9.8888 7.70353 9.64706 7.70095 9.40919 7.70095C9.22734 7.70569 9.04842 7.74786 8.8836 7.82483C8.71878 7.90181 8.5716 8.01193 8.45125 8.14833C8.12184 8.50675 7.19355 9.37315 7.19355 11.1317C7.19355 12.8903 8.48284 14.5922 8.66076 14.8307C8.83868 15.0692 11.1942 18.6811 14.7984 20.2302C15.4676 20.5168 16.1515 20.7681 16.8471 20.9831C17.7077 21.2552 18.4909 21.2171 19.1097 21.125C19.8002 21.0225 21.2371 20.2599 21.5355 19.4244C21.834 18.5889 21.8346 17.8734 21.745 17.7245C21.6554 17.5756 21.4156 17.4853 21.0559 17.3068Z" fill="#FF2745"/>
</svg>